<?xml version="1.0" encoding="utf-8"?>
<svg version="1.1" xmlns="http://www.w3.org/2000/svg" xmlns:xlink="http://www.w3.org/1999/xlink" x="0px" y="0px"
     viewBox="0 0 591.4 128" style="enable-background:new 0 0 591.4 128;" xml:space="preserve">
<style type="text/css">
	.st0-climate-neutral-certificate{display:none;}
	.st1-climate-neutral-certificate{display:inline;}
	.st2-climate-neutral-certificate{fill:#0BBBEF;}
	.st3-climate-neutral-certificate{fill:#004899;}
</style>
    <g id="NL" class="st0-climate-neutral-certificate">
	<g class="st1-climate-neutral-certificate">
		<path class="st2-climate-neutral-certificate" d="M82.1,55.5c0,13.9-11.4,25.2-25.5,25.2c-14.1,0-25.5-11.3-25.5-25.2c0-13.9,11.4-25.2,25.5-25.2
			C70.7,30.3,82.1,41.6,82.1,55.5"/>
        <path class="st3-climate-neutral-certificate" d="M161.5,55.4L149,38.8l-3.2,3.9v12.7H137V14.2h8.8v18.4l14.6-18.4h10.8l-16.4,19.3l17.5,21.9H161.5L161.5,55.4
			L161.5,55.4z M176,47.9L176,47.9c0,5.4,2.9,8.2,8.4,8.2c3.2,0,5.4-0.9,6.6-1.9l-1.7-6c-0.4,0.5-1.5,0.9-2.7,0.9
			c-1.7,0-2.7-1.4-2.7-3.3V14.2H176V47.9L176,47.9z M193.6,17.6L193.6,17.6c0,2.6,2.1,4.7,4.6,4.7c2.6,0,4.7-2.1,4.7-4.7
			c0-2.6-2.1-4.6-4.7-4.6C195.7,13,193.6,15,193.6,17.6L193.6,17.6z M194.3,55.4L194.3,55.4h7.8V25.5h-7.8V55.4L194.3,55.4z
			 M246.9,55.4L246.9,55.4h7.9V33.8c0-6.1-3.3-9-8.8-9c-4.6,0-8.5,2.7-10.3,5.4c-1.1-3.3-3.9-5.4-8.3-5.4c-4.6,0-8.5,2.8-9.8,4.6
			v-3.8h-7.8v29.8h7.8V35.2c1.2-1.6,3.5-3.5,6.2-3.5c3.2,0,4.4,2,4.4,4.8v18.8h7.9V35.2c1.1-1.6,3.4-3.5,6.2-3.5
			c3.2,0,4.4,2,4.4,4.8V55.4L246.9,55.4z M282.9,55.4L282.9,55.4h7.9V25.5h-7.9v3.8c-2.4-3.1-5.7-4.6-9.2-4.6
			c-7.6,0-13.2,5.9-13.2,15.6c0,10,5.7,15.7,13.2,15.7c3.6,0,6.9-1.6,9.2-4.6V55.4L282.9,55.4z M282.9,45.7L282.9,45.7
			c-1.3,2-4.1,3.4-6.7,3.4c-4.5,0-7.6-3.5-7.6-8.7c0-5.1,3.1-8.7,7.6-8.7c2.6,0,5.4,1.5,6.7,3.5V45.7L282.9,45.7z M319,55.4
			L319,55.4h7.9V25.5H319v3.8c-2.4-3.1-5.7-4.6-9.2-4.6c-7.6,0-13.2,5.9-13.2,15.6c0,10,5.7,15.7,13.2,15.7c3.6,0,6.9-1.6,9.2-4.6
			V55.4L319,55.4z M319,45.7L319,45.7c-1.3,2-4.1,3.4-6.7,3.4c-4.5,0-7.6-3.5-7.6-8.7c0-5.1,3.1-8.7,7.6-8.7c2.6,0,5.4,1.5,6.7,3.5
			V45.7L319,45.7z M336.2,47.9L336.2,47.9c0,5.4,2.9,8.2,8.4,8.2c3.3,0,5.4-0.9,6.6-1.9l-1.7-6c-0.4,0.5-1.5,0.9-2.7,0.9
			c-1.7,0-2.7-1.4-2.7-3.3V32.4h6.1v-6.9h-6.1v-8.2h-7.8v8.2h-4.9v6.9h4.9V47.9L336.2,47.9z M375.5,55.4L375.5,55.4h7.9V34.3
			c0-5.8-3.2-9.5-9.8-9.5c-4.8,0-8.5,2.3-10.4,4.6v-3.8h-7.8v29.8h7.8V35.2c1.4-1.7,3.7-3.5,6.8-3.5c3.3,0,5.5,1.4,5.5,5.6V55.4
			L375.5,55.4z M389.1,40.4L389.1,40.4c0,9.6,6.9,15.7,15.9,15.7c4.6,0,9.3-1.4,12.3-4.1l-3.5-5.2c-1.9,1.9-5.4,2.9-7.9,2.9
			c-5.1,0-8-3-8.6-6.7h22.2v-1.9c0-9.7-6-16.4-15-16.4C395.5,24.8,389.1,31.8,389.1,40.4L389.1,40.4z M404.6,31.2L404.6,31.2
			c5.2,0,7.2,3.5,7.4,6.4h-14.7C397.6,34.6,399.7,31.2,404.6,31.2L404.6,31.2z M445.2,55.4L445.2,55.4h7.8V25.5h-7.8v20.2
			c-1.4,1.7-3.8,3.4-6.8,3.4c-3.3,0-5.5-1.4-5.5-5.5V25.5h-7.9v21.2c0,5.8,3.1,9.4,9.6,9.4c4.9,0,8.5-2.3,10.5-4.5V55.4L445.2,55.4z
			 M462.3,47.9L462.3,47.9c0,5.4,2.9,8.2,8.4,8.2c3.3,0,5.4-0.9,6.6-1.9l-1.7-6c-0.4,0.5-1.5,0.9-2.7,0.9c-1.7,0-2.7-1.4-2.7-3.3
			V32.4h6.1v-6.9h-6.1v-8.2h-7.8v8.2h-4.9v6.9h4.9V47.9L462.3,47.9z M481.5,55.4L481.5,55.4h7.8V35.7c1.3-1.9,4.8-3.4,7.4-3.4
			c0.9,0,1.6,0.1,2.2,0.2v-7.7c-3.7,0-7.4,2.2-9.5,4.8v-4h-7.8V55.4L481.5,55.4z M524.1,55.4L524.1,55.4h7.9V25.5h-7.9v3.8
			c-2.4-3.1-5.7-4.6-9.2-4.6c-7.6,0-13.2,5.9-13.2,15.6c0,10,5.7,15.7,13.2,15.7c3.6,0,6.9-1.6,9.2-4.6V55.4L524.1,55.4z
			 M524.1,45.7L524.1,45.7c-1.3,2-4.1,3.4-6.7,3.4c-4.5,0-7.6-3.5-7.6-8.7c0-5.1,3.1-8.7,7.6-8.7c2.6,0,5.4,1.5,6.7,3.5V45.7
			L524.1,45.7z M560.2,55.4L560.2,55.4h7.9V25.5h-7.9v3.8c-2.4-3.1-5.7-4.6-9.2-4.6c-7.6,0-13.2,5.9-13.2,15.6
			c0,10,5.7,15.7,13.2,15.7c3.6,0,6.9-1.6,9.2-4.6V55.4L560.2,55.4z M560.2,45.7L560.2,45.7c-1.3,2-4.1,3.4-6.7,3.4
			c-4.5,0-7.6-3.5-7.6-8.7c0-5.1,3.1-8.7,7.6-8.7c2.6,0,5.4,1.5,6.7,3.5V45.7L560.2,45.7z M575.8,47.9L575.8,47.9
			c0,5.4,2.9,8.2,8.4,8.2c3.2,0,5.4-0.9,6.5-1.9l-1.7-6c-0.4,0.5-1.5,0.9-2.7,0.9c-1.7,0-2.7-1.4-2.7-3.3V14.2h-7.9V47.9L575.8,47.9
			z M33.2,89.7c-11.1-7.5-18.3-20-18.3-34.2c0-22.8,18.8-41.4,41.8-41.4c3.2,0,6.3,0.4,9.3,1L71.7,2c-4.8-1.3-9.8-2-15-2
			C25.8,0,0.6,24.9,0.6,55.5c0,20,10.7,37.6,26.8,47.3L33.2,89.7L33.2,89.7L33.2,89.7z M57.7,111c30.4-0.6,55-25.2,55-55.5
			c0-20-10.7-37.6-26.8-47.3l-5.7,13.1c11.1,7.5,18.3,20,18.3,34.2c0,22.8-18.8,41.4-41.8,41.4c-3.2,0-6.3-0.4-9.3-1l-13.9,31.7
			h16.9L57.7,111L57.7,111L57.7,111z M220.5,96.6L220.5,96.6V84.1h-2.6v-3h2.6v-0.9c0-3.5,2.1-5.4,4.9-5.4c1.1,0,2,0.2,2.7,0.6
			l-0.7,2.5c-0.4-0.2-0.9-0.3-1.3-0.3c-1.3,0-2.2,0.9-2.2,2.6v0.9h3.1v3h-3.1v12.5H220.5L220.5,96.6z M215.3,81.1L215.3,81.1v16.4
			c0,3.3-1.7,5.4-5.1,5.4c-0.7,0-1.3-0.1-1.7-0.2l0.4-2.8c0.3,0.1,0.7,0.1,1,0.1c1.2,0,2.2-0.7,2.2-2.5V81.1H215.3L215.3,81.1z
			 M213.6,78.6L213.6,78.6c-1.1,0-2.1-0.9-2.1-2.1c0-1.2,1-2.1,2.1-2.1c1.2,0,2.1,0.9,2.1,2.1C215.7,77.6,214.8,78.6,213.6,78.6
			L213.6,78.6z M204.2,96.6L204.2,96.6V81.1h3.4v15.5H204.2L204.2,96.6z M205.9,78.6L205.9,78.6c-1.1,0-2.1-0.9-2.1-2.1
			c0-1.2,1-2.1,2.1-2.1c1.2,0,2.1,0.9,2.1,2.1C208,77.6,207,78.6,205.9,78.6L205.9,78.6z M193.1,96.6L193.1,96.6V81.1h3.4v2.3
			c1.2-1.5,3-2.6,5-2.6v3.3c-0.3-0.1-0.6-0.1-1.1-0.1c-1.4,0-3.3,1-4,2.1v10.6H193.1L193.1,96.6z M185.4,92L185.4,92v-6.2
			c-0.8-1.2-2.4-2.1-4-2.1c-2.7,0-4.4,2.1-4.4,5.2c0,3,1.7,5.1,4.4,5.1C183,94,184.6,93.1,185.4,92L185.4,92z M185.4,96.6
			L185.4,96.6v-2.1c-1.2,1.5-3,2.5-5,2.5c-4,0-6.9-3-6.9-8.1c0-5,2.9-8.1,6.9-8.1c1.9,0,3.7,0.9,5,2.5v-8.1h3.4v21.4H185.4
			L185.4,96.6z M163.5,83.5L163.5,83.5c-2.9,0-4.2,2.2-4.4,4.1h8.7C167.8,85.8,166.5,83.5,163.5,83.5L163.5,83.5z M155.6,88.9
			L155.6,88.9c0-4.5,3.3-8.1,7.9-8.1c4.7,0,7.6,3.6,7.6,8.4V90h-12c0.3,2.3,2,4.3,4.9,4.3c1.5,0,3.3-0.6,4.4-1.7l1.5,2.2
			c-1.5,1.5-3.8,2.2-6.3,2.2C159.1,97,155.6,93.8,155.6,88.9L155.6,88.9z M139.6,93.3L139.6,93.3h6.2c2.1,0,3.3-1.1,3.3-3
			c0-1.6-1.1-3-3.3-3h-6.2V93.3L139.6,93.3z M139.6,84.1L139.6,84.1h6c1.9,0,3-1.2,3-2.8c0-1.6-1.1-2.8-3-2.8h-6V84.1L139.6,84.1z
			 M135.9,96.6L135.9,96.6V75.2h10.5c3.9,0,6.1,2.4,6.1,5.5c0,2.7-1.7,4.5-3.7,4.9c2.3,0.4,4.1,2.6,4.1,5.3c0,3.3-2.2,5.8-6.2,5.8
			H135.9L135.9,96.6z M481.2,126.8L481.2,126.8v-1.5c5.3-4.2,8.2-6.6,8.2-9.1c0-1.9-1.5-2.7-3.1-2.7c-1.8,0-3.1,0.7-4,1.9l-1.1-1.2
			c1.1-1.5,3-2.3,5.1-2.3c2.4,0,4.9,1.4,4.9,4.3c0,3-3,5.7-7.1,9h7.2v1.6H481.2L481.2,126.8z M477.1,119.5L477.1,119.5
			c0-2.9-0.9-5.9-3.7-5.9c-2.8,0-3.7,3-3.7,5.9c0,2.9,0.9,6,3.7,6C476.1,125.4,477.1,122.4,477.1,119.5L477.1,119.5z M467.7,119.5
			L467.7,119.5c0-3.6,1.6-7.6,5.6-7.6c4,0,5.6,4,5.6,7.6c0,3.6-1.6,7.6-5.6,7.6C469.3,127.1,467.7,123,467.7,119.5L467.7,119.5z
			 M463.6,119.5L463.6,119.5c0-2.9-0.9-5.9-3.7-5.9c-2.8,0-3.7,3-3.7,5.9c0,2.9,0.9,6,3.7,6C462.6,125.4,463.6,122.4,463.6,119.5
			L463.6,119.5z M454.2,119.5L454.2,119.5c0-3.6,1.6-7.6,5.6-7.6c4,0,5.6,4,5.6,7.6c0,3.6-1.6,7.6-5.6,7.6
			C455.8,127.1,454.2,123,454.2,119.5L454.2,119.5z M449.5,126.8L449.5,126.8v-12.3l-2.4,2.5l-1.1-1.1l3.7-3.8h1.6v14.7H449.5
			L449.5,126.8z M439.7,122.2L439.7,122.2v-1.5h5.3v1.5H439.7L439.7,122.2z M436,119.5L436,119.5c0-2.9-0.9-5.9-3.7-5.9
			c-2.8,0-3.7,3-3.7,5.9c0,2.9,0.9,6,3.7,6C435.1,125.4,436,122.4,436,119.5L436,119.5z M426.6,119.5L426.6,119.5
			c0-3.6,1.6-7.6,5.6-7.6c4,0,5.6,4,5.6,7.6c0,3.6-1.6,7.6-5.6,7.6C428.2,127.1,426.6,123,426.6,119.5L426.6,119.5z M422,126.8
			L422,126.8v-12.3l-2.4,2.5l-1.1-1.1l3.7-3.8h1.6v14.7H422L422,126.8z M414.5,126.8L414.5,126.8v-12.3l-2.4,2.5l-1.1-1.1l3.7-3.8
			h1.6v14.7H414.5L414.5,126.8z M398.8,126.8L398.8,126.8v-1.5c5.3-4.2,8.2-6.6,8.2-9.1c0-1.9-1.5-2.7-3.1-2.7c-1.8,0-3.1,0.7-4,1.9
			l-1.1-1.2c1.1-1.5,3-2.3,5.1-2.3c2.4,0,4.9,1.4,4.9,4.3c0,3-3,5.7-7.1,9h7.2v1.6H398.8L398.8,126.8z M391.7,122.2L391.7,122.2
			v-1.5h5.3v1.5H391.7L391.7,122.2z M379.2,126.8L379.2,126.8v-1.5c5.3-4.2,8.2-6.6,8.2-9.1c0-1.9-1.5-2.7-3.1-2.7
			c-1.8,0-3.1,0.7-4,1.9l-1.1-1.2c1.1-1.5,3-2.3,5.1-2.3c2.4,0,4.9,1.4,4.9,4.3c0,3-3,5.7-7.1,9h7.2v1.6H379.2L379.2,126.8z
			 M366.5,124.7L366.5,124.7l1.1-1.2c1,1.2,2.2,1.9,4.1,1.9c2,0,3.4-1.4,3.4-3.2c0-1.9-1.4-3.2-3.4-3.2c-1.3,0-2.4,0.4-3.4,1.4
			L367,120v-7.9h9v1.6h-7.2v5.1c0.7-0.7,2-1.3,3.4-1.3c2.4,0,4.7,1.7,4.7,4.7c0,3-2.3,4.9-5.2,4.9
			C369.2,127.1,367.6,126.1,366.5,124.7L366.5,124.7z M356.4,126.8L356.4,126.8l5.9-13.1h-7.9v-1.6h10v1.3l-6,13.4H356.4
			L356.4,126.8z M349.1,113.8L349.1,113.8l-5.2,7.7h5.2V113.8L349.1,113.8z M349.1,126.8L349.1,126.8v-3.7h-7v-1.5l6.3-9.5h2.5v9.4
			h2.1v1.6h-2.1v3.7H349.1L349.1,126.8z M337.9,126.8L337.9,126.8v-12.3l-2.4,2.5l-1.1-1.1l3.7-3.8h1.6v14.7H337.9L337.9,126.8z
			 M327.4,127.2L327.4,127.2l5.2-15.6h1.3l-5.2,15.6H327.4L327.4,127.2z M324.1,126.8L324.1,126.8v-7.2c0-1.3-0.6-2.2-2-2.2
			c-1.1,0-2.3,0.8-2.8,1.6v7.8h-1.7v-7.2c0-1.3-0.6-2.2-2-2.2c-1.1,0-2.2,0.8-2.8,1.6v7.8h-1.6v-10.6h1.6v1.5
			c0.4-0.7,1.9-1.8,3.4-1.8c1.6,0,2.6,0.9,2.9,2c0.6-1,2-2,3.6-2c1.9,0,3,1.1,3,3.2v7.7H324.1L324.1,126.8z M303.3,125.6
			L303.3,125.6c2.3,0,3.5-1.9,3.5-4.1c0-2.2-1.3-4.1-3.5-4.1c-2.3,0-3.5,1.9-3.5,4.1C299.8,123.6,301.1,125.6,303.3,125.6
			L303.3,125.6z M303.3,127.1L303.3,127.1c-3.2,0-5.3-2.5-5.3-5.6c0-3.1,2-5.6,5.3-5.6c3.2,0,5.3,2.5,5.3,5.6
			C308.6,124.5,306.6,127.1,303.3,127.1L303.3,127.1z M287.1,121.5L287.1,121.5c0-3.1,2.1-5.6,5.3-5.6c1.9,0,3.1,0.8,3.9,1.9l-1.1,1
			c-0.7-1-1.6-1.4-2.7-1.4c-2.3,0-3.7,1.7-3.7,4.1c0,2.4,1.4,4.1,3.7,4.1c1.1,0,2-0.4,2.7-1.4l1.1,1c-0.8,1.1-2,1.9-3.9,1.9
			C289.3,127.1,287.1,124.6,287.1,121.5L287.1,121.5z M282.4,125.8L282.4,125.8c0-0.7,0.5-1.2,1.2-1.2c0.7,0,1.2,0.5,1.2,1.2
			c0,0.7-0.5,1.2-1.2,1.2C282.9,127,282.4,126.5,282.4,125.8L282.4,125.8z M275.4,126.8L275.4,126.8v-10.6h1.6v1.7
			c0.9-1.1,2.1-1.9,3.6-1.9v1.7c-0.2,0-0.4-0.1-0.7-0.1c-1,0-2.4,0.8-2.9,1.7v7.5H275.4L275.4,126.8z M267.6,117.2L267.6,117.2
			c-2.3,0-3.4,1.9-3.5,3.6h7C271.1,119.2,270,117.2,267.6,117.2L267.6,117.2z M262.4,121.5L262.4,121.5c0-3.1,2.2-5.6,5.2-5.6
			c3.2,0,5.1,2.5,5.1,5.7v0.4h-8.6c0.1,2,1.5,3.7,3.8,3.7c1.2,0,2.4-0.5,3.3-1.3l0.8,1.1c-1.1,1.1-2.5,1.6-4.2,1.6
			C264.7,127.1,262.4,124.8,262.4,121.5L262.4,121.5z M258.1,126.8L258.1,126.8v-7c0-1.9-0.9-2.5-2.4-2.5c-1.3,0-2.5,0.8-3.2,1.6
			v7.8h-1.6v-10.6h1.6v1.5c0.7-0.9,2.2-1.8,3.8-1.8c2.2,0,3.4,1.1,3.4,3.4v7.5H258.1L258.1,126.8z M247.1,127.1L247.1,127.1
			c-1.6,0-2.4-0.9-2.4-2.5v-7H243v-1.5h1.8v-2.9h1.7v2.9h2.2v1.5h-2.2v6.6c0,0.8,0.4,1.4,1.1,1.4c0.5,0,0.9-0.2,1.1-0.4l0.5,1.2
			C248.7,126.8,248.1,127.1,247.1,127.1L247.1,127.1z M237.1,126.8L237.1,126.8v-10.6h1.6v1.7c0.9-1.1,2.1-1.9,3.6-1.9v1.7
			c-0.2,0-0.4-0.1-0.7-0.1c-1,0-2.4,0.8-2.9,1.7v7.5H237.1L237.1,126.8z M232.2,123.9L232.2,123.9v-4.8c-0.6-0.9-1.9-1.7-3.2-1.7
			c-2.1,0-3.4,1.8-3.4,4.1c0,2.4,1.3,4.1,3.4,4.1C230.3,125.6,231.6,124.8,232.2,123.9L232.2,123.9z M232.2,126.8L232.2,126.8v-1.6
			c-0.8,1.1-2.1,1.9-3.6,1.9c-2.8,0-4.7-2.1-4.7-5.6c0-3.4,1.9-5.6,4.7-5.6c1.4,0,2.7,0.7,3.6,1.9v-1.6h1.7v10.6H232.2L232.2,126.8z
			 M220.2,116.5L220.2,116.5c0-1.7-1.2-2.8-2.9-2.8h-3.9v5.6h3.9C219,119.3,220.2,118.2,220.2,116.5L220.2,116.5z M211.6,126.8
			L211.6,126.8v-14.7h5.9c3,0,4.6,2,4.6,4.4c0,2.4-1.7,4.4-4.6,4.4h-4.1v5.8H211.6L211.6,126.8z M203.7,117.2L203.7,117.2
			c-2.3,0-3.4,1.9-3.5,3.6h7C207.2,119.2,206.2,117.2,203.7,117.2L203.7,117.2z M198.5,121.5L198.5,121.5c0-3.1,2.2-5.6,5.2-5.6
			c3.2,0,5.1,2.5,5.1,5.7v0.4h-8.6c0.1,2,1.5,3.7,3.8,3.7c1.2,0,2.4-0.5,3.3-1.3l0.8,1.1c-1.1,1.1-2.5,1.6-4.2,1.6
			C200.8,127.1,198.5,124.8,198.5,121.5L198.5,121.5z M195.3,127.1L195.3,127.1c-1.6,0-2.4-0.9-2.4-2.5v-7h-1.8v-1.5h1.8v-2.9h1.7
			v2.9h2.2v1.5h-2.2v6.6c0,0.8,0.4,1.4,1.1,1.4c0.5,0,0.9-0.2,1.1-0.4l0.5,1.2C196.9,126.8,196.3,127.1,195.3,127.1L195.3,127.1z
			 M187.7,123.9L187.7,123.9v-4.8c-0.6-0.9-1.9-1.7-3.2-1.7c-2.1,0-3.4,1.8-3.4,4.1c0,2.4,1.3,4.1,3.4,4.1
			C185.8,125.6,187.1,124.8,187.7,123.9L187.7,123.9z M187.7,126.8L187.7,126.8v-1.6c-0.8,1.1-2.1,1.9-3.6,1.9
			c-2.8,0-4.7-2.1-4.7-5.6c0-3.4,1.9-5.6,4.7-5.6c1.4,0,2.7,0.7,3.6,1.9v-1.6h1.7v10.6H187.7L187.7,126.8z M175,126.8L175,126.8
			v-7.2c0-1.3-0.6-2.2-2-2.2c-1.1,0-2.3,0.8-2.8,1.6v7.8h-1.7v-7.2c0-1.3-0.6-2.2-2-2.2c-1.1,0-2.2,0.8-2.8,1.6v7.8h-1.6v-10.6h1.6
			v1.5c0.4-0.7,1.9-1.8,3.4-1.8c1.6,0,2.6,0.9,2.9,2c0.6-1,2-2,3.6-2c1.9,0,3,1.1,3,3.2v7.7H175L175,126.8z M157.2,126.8
			L157.2,126.8v-10.6h1.6v10.6H157.2L157.2,126.8z M158,114.4L158,114.4c-0.6,0-1.1-0.5-1.1-1.1c0-0.6,0.5-1.1,1.1-1.1
			c0.6,0,1.1,0.5,1.1,1.1C159.2,113.9,158.7,114.4,158,114.4L158,114.4z M153.7,127.1L153.7,127.1c-1.6,0-2.4-0.9-2.4-2.5v-12.5h1.6
			v12.1c0,0.8,0.4,1.4,1.1,1.4c0.5,0,0.9-0.2,1.1-0.4l0.5,1.2C155.2,126.8,154.6,127.1,153.7,127.1L153.7,127.1z M143.4,127.1
			L143.4,127.1c-4.2,0-7.5-3.1-7.5-7.6c0-4.5,3.3-7.6,7.5-7.6c2.7,0,4.5,1.3,5.6,2.9l-1.5,0.9c-0.8-1.2-2.4-2.1-4.1-2.1
			c-3.1,0-5.6,2.5-5.6,6c0,3.5,2.4,6,5.6,6c1.7,0,3.3-0.9,4.1-2.1l1.6,0.9C147.8,125.8,146,127.1,143.4,127.1L143.4,127.1z"/>
	</g>
</g>
    <g id="IT" class="st0-climate-neutral-certificate">
	<g class="st1-climate-neutral-certificate">
		<path class="st3-climate-neutral-certificate" d="M133.5,35.7c0-13.3,10-22.3,22.7-22.3c9.8,0,15.3,5.2,18.4,10.6l-7.9,3.9c-1.8-3.5-5.7-6.3-10.5-6.3
			c-7.5,0-13.2,6-13.2,14.2c0,8.2,5.7,14.2,13.2,14.2c4.8,0,8.7-2.7,10.5-6.3l7.9,3.8c-3.1,5.4-8.5,10.6-18.4,10.6
			C143.5,58.1,133.5,49,133.5,35.7L133.5,35.7L133.5,35.7z M202.2,53.4L202.2,53.4v4h8.3V26h-8.3v4c-2.5-3.2-6-4.8-9.6-4.8
			c-8,0-13.9,6.2-13.9,16.4c0,10.4,6,16.4,13.9,16.4C196.3,58.1,199.7,56.4,202.2,53.4L202.2,53.4z M202.2,36.2L202.2,36.2v11
			c-1.4,2.1-4.3,3.6-7.1,3.6c-4.7,0-7.9-3.7-7.9-9.1c0-5.4,3.2-9.1,7.9-9.1C197.8,32.6,200.8,34.1,202.2,36.2L202.2,36.2z M219.5,26
			L219.5,26v31.3h8.2V36.7c1.4-2,5-3.5,7.7-3.5c0.9,0,1.7,0.1,2.3,0.2v-8c-3.9,0-7.8,2.2-10,5V26H219.5L219.5,26z M243.6,14.1
			L243.6,14.1v43.2h8.2v-4c2.5,3,5.9,4.7,9.6,4.7c7.9,0,13.9-6,13.9-16.4c0-10.2-5.9-16.4-13.9-16.4c-3.7,0-7.2,1.6-9.6,4.8V14.1
			H243.6L243.6,14.1z M258.9,50.8L258.9,50.8c-2.7,0-5.7-1.5-7.1-3.5V36.2c1.4-2.1,4.4-3.6,7.1-3.6c4.8,0,8,3.7,8,9.1
			C266.9,47.1,263.7,50.8,258.9,50.8L258.9,50.8z M280.4,41.6L280.4,41.6c0,8.9,6.2,16.4,16.5,16.4c10.4,0,16.6-7.5,16.6-16.4
			c0-8.9-6.2-16.4-16.6-16.4C286.6,25.3,280.4,32.8,280.4,41.6L280.4,41.6z M304.9,41.6L304.9,41.6c0,4.9-2.9,9.1-8,9.1
			c-5.1,0-8-4.2-8-9.1c0-4.9,2.8-9.1,8-9.1C302,32.6,304.9,36.8,304.9,41.6L304.9,41.6z M341.5,38.4L341.5,38.4v18.9h8.2V35.2
			c0-6.1-3.3-10-10.2-10c-5.1,0-8.9,2.5-10.9,4.9V26h-8.2v31.3h8.2v-21c1.4-1.9,3.9-3.7,7.1-3.7C339.3,32.6,341.5,34.1,341.5,38.4
			L341.5,38.4z M397.3,38.4L397.3,38.4v18.9h8.2V35.2c0-6.1-3.3-10-10.2-10c-5.1,0-8.9,2.5-10.9,4.9V26h-8.2v31.3h8.2v-21
			c1.4-1.9,3.9-3.7,7.1-3.7C395,32.6,397.3,34.1,397.3,38.4L397.3,38.4z M428.7,25.3L428.7,25.3c-9.5,0-16.2,7.3-16.2,16.4
			c0,10,7.2,16.4,16.7,16.4c4.9,0,9.7-1.4,12.9-4.3l-3.6-5.3c-2,1.9-5.4,3.1-8.4,3.1c-5.3,0-8.5-3.3-9-7.3h23.3v-1.8
			C444.4,32.2,438,25.3,428.7,25.3L428.7,25.3z M421,38.7L421,38.7c0.4-3.1,2.6-6.9,7.7-6.9c5.4,0,7.5,4,7.7,6.9H421L421,38.7z
			 M472.3,53.4L472.3,53.4v4h8.2V26h-8.2v21.2c-1.4,1.8-4,3.6-7.1,3.6c-3.5,0-5.8-1.4-5.8-5.8V26h-8.2v22.2c0,6.1,3.2,9.8,10.1,9.8
			C466.4,58.1,470.1,55.8,472.3,53.4L472.3,53.4z M491.1,49.5L491.1,49.5c0,5.6,3.1,8.5,8.9,8.5c3.4,0,5.6-0.9,6.9-2l-1.7-6.2
			c-0.5,0.5-1.6,0.9-2.9,0.9c-1.8,0-2.9-1.5-2.9-3.4V33.2h6.3V26h-6.3v-8.5h-8.3V26h-5.2v7.2h5.2V49.5L491.1,49.5z M512.2,26
			L512.2,26v31.3h8.2V36.7c1.4-2,5-3.5,7.7-3.5c0.9,0,1.7,0.1,2.3,0.2v-8c-3.9,0-7.8,2.2-10,5V26H512.2L512.2,26z M557.9,53.4
			L557.9,53.4v4h8.3V26h-8.3v4c-2.5-3.2-6-4.8-9.6-4.8c-8,0-13.9,6.2-13.9,16.4c0,10.4,6,16.4,13.9,16.4
			C552,58.1,555.4,56.4,557.9,53.4L557.9,53.4z M557.9,36.2L557.9,36.2v11c-1.4,2.1-4.3,3.6-7.1,3.6c-4.7,0-7.9-3.7-7.9-9.1
			c0-5.4,3.2-9.1,7.9-9.1C553.5,32.6,556.5,34.1,557.9,36.2L557.9,36.2z M575.2,49.5L575.2,49.5c0,5.6,3,8.5,8.8,8.5
			c3.4,0,5.6-0.9,6.8-2l-1.7-6.2c-0.4,0.5-1.6,0.9-2.8,0.9c-1.8,0-2.9-1.5-2.9-3.4V14.1h-8.2V49.5L575.2,49.5z M33.3,90.1
			C22.2,82.6,14.9,70,14.9,55.7c0-22.9,18.8-41.5,42-41.5c3.2,0,6.3,0.4,9.3,1l5.8-13.1c-4.8-1.3-9.8-2-15.1-2
			c-31,0-56.2,25-56.2,55.7c0,20.1,10.8,37.7,26.9,47.5L33.3,90.1L33.3,90.1L33.3,90.1z M57.9,111.4c30.5-0.6,55.2-25.3,55.2-55.7
			c0-20.1-10.8-37.7-26.9-47.5l-5.8,13.1c11.1,7.5,18.4,20.1,18.4,34.3c0,22.9-18.8,41.5-42,41.5c-3.2,0-6.3-0.4-9.3-1l-14,31.8h17
			L57.9,111.4L57.9,111.4L57.9,111.4z M245.2,92.3L245.2,92.3v-6.1c-0.8-1.2-2.4-2.1-4-2.1c-2.7,0-4.4,2.1-4.4,5.1
			c0,3,1.7,5.1,4.4,5.1C242.8,94.4,244.4,93.5,245.2,92.3L245.2,92.3z M245.2,97L245.2,97v-2.1c-1.2,1.5-3,2.5-5,2.5
			c-4,0-6.9-3-6.9-8.1c0-5,2.9-8.2,6.9-8.2c1.9,0,3.8,0.9,5,2.5v-2.2h3.4V97H245.2L245.2,97z M217.7,95L217.7,95l1.5-2.4
			c1.1,1.1,3.3,2.2,5.3,2.2c2,0,3.1-0.7,3.1-1.9c0-1.4-1.6-1.8-3.5-2.2c-2.7-0.6-5.9-1.3-5.9-4.8c0-2.5,2.2-4.7,6.1-4.7
			c2.6,0,4.6,0.9,6.1,2.2l-1.4,2.4c-0.9-1.1-2.7-1.9-4.6-1.9c-1.8,0-2.9,0.6-2.9,1.7c0,1.2,1.5,1.6,3.4,2c2.7,0.6,6,1.4,6,5
			c0,2.7-2.3,4.8-6.5,4.8C221.8,97.4,219.3,96.6,217.7,95L217.7,95z M208.1,83.8L208.1,83.8c-2.9,0-4.2,2.2-4.4,4.1h8.8
			C212.4,86.1,211.1,83.8,208.1,83.8L208.1,83.8z M200.2,89.2L200.2,89.2c0-4.5,3.3-8.1,7.9-8.1c4.7,0,7.7,3.6,7.7,8.5v0.8h-12
			c0.3,2.4,2,4.3,5,4.3c1.5,0,3.3-0.6,4.4-1.7l1.5,2.2c-1.5,1.5-3.8,2.3-6.3,2.3C203.7,97.4,200.2,94.1,200.2,89.2L200.2,89.2z
			 M190,97L190,97V81.5h3.4v2.3c1.2-1.5,3-2.6,5.1-2.6v3.3c-0.3-0.1-0.6-0.1-1.1-0.1c-1.4,0-3.3,1-4,2.1V97H190L190,97z M183.1,89.2
			L183.1,89.2c0-3-1.7-5.1-4.4-5.1c-1.6,0-3.3,0.9-4,2.1v6.1c0.7,1.1,2.4,2.1,4,2.1C181.4,94.4,183.1,92.2,183.1,89.2L183.1,89.2z
			 M174.7,102.9L174.7,102.9h-3.4V81.5h3.4v2.1c1.2-1.5,3-2.5,5-2.5c4,0,6.9,3,6.9,8.1c0,5.1-2.9,8.2-6.9,8.2c-2,0-3.7-0.9-5-2.5
			V102.9L174.7,102.9z M163.6,97L163.6,97V86.9c0-1.7-0.7-2.8-2.5-2.8c-1.5,0-2.9,1.1-3.6,2.1V97H154V86.9c0-1.7-0.7-2.8-2.6-2.8
			c-1.5,0-2.9,1.1-3.6,2.1V97h-3.4V81.5h3.4v2.1c0.6-1,2.7-2.5,5.1-2.5c2.3,0,3.7,1.2,4.2,2.9c0.9-1.4,3-2.9,5.3-2.9
			c2.9,0,4.5,1.5,4.5,4.7V97H163.6L163.6,97z M136.3,97L136.3,97V75.5h3.8V97H136.3L136.3,97z M482.7,127.2L482.7,127.2v-1.5
			c5.3-4.2,8.2-6.6,8.2-9.2c0-1.9-1.6-2.7-3.1-2.7c-1.8,0-3.1,0.8-4,1.9l-1.1-1.2c1.1-1.5,3.1-2.3,5.1-2.3c2.5,0,4.9,1.4,4.9,4.3
			c0,3-3.1,5.7-7.2,9h7.2v1.6H482.7L482.7,127.2z M478.5,119.9L478.5,119.9c0-2.9-0.9-6-3.8-6c-2.8,0-3.8,3-3.8,6c0,2.9,1,6,3.8,6
			C477.6,125.9,478.5,122.8,478.5,119.9L478.5,119.9z M469.1,119.9L469.1,119.9c0-3.6,1.6-7.6,5.6-7.6c4,0,5.6,4,5.6,7.6
			c0,3.6-1.6,7.6-5.6,7.6C470.7,127.5,469.1,123.5,469.1,119.9L469.1,119.9z M465,119.9L465,119.9c0-2.9-0.9-6-3.8-6
			c-2.8,0-3.8,3-3.8,6c0,2.9,1,6,3.8,6C464,125.9,465,122.8,465,119.9L465,119.9z M455.6,119.9L455.6,119.9c0-3.6,1.6-7.6,5.6-7.6
			c4,0,5.6,4,5.6,7.6c0,3.6-1.6,7.6-5.6,7.6C457.2,127.5,455.6,123.5,455.6,119.9L455.6,119.9z M450.9,127.2L450.9,127.2v-12.3
			l-2.4,2.5l-1.1-1.1l3.7-3.8h1.6v14.7H450.9L450.9,127.2z M441,122.6L441,122.6v-1.5h5.3v1.5H441L441,122.6z M437.3,119.9
			L437.3,119.9c0-2.9-0.9-6-3.8-6c-2.8,0-3.8,3-3.8,6c0,2.9,0.9,6,3.8,6C436.4,125.9,437.3,122.8,437.3,119.9L437.3,119.9z
			 M427.9,119.9L427.9,119.9c0-3.6,1.6-7.6,5.6-7.6c4,0,5.6,4,5.6,7.6c0,3.6-1.6,7.6-5.6,7.6C429.5,127.5,427.9,123.5,427.9,119.9
			L427.9,119.9z M423.3,127.2L423.3,127.2v-12.3l-2.4,2.5l-1.1-1.1l3.7-3.8h1.6v14.7H423.3L423.3,127.2z M415.8,127.2L415.8,127.2
			v-12.3l-2.4,2.5l-1.1-1.1l3.7-3.8h1.6v14.7H415.8L415.8,127.2z M400,127.2L400,127.2v-1.5c5.3-4.2,8.2-6.6,8.2-9.2
			c0-1.9-1.6-2.7-3.1-2.7c-1.8,0-3.1,0.8-4,1.9l-1.1-1.2c1.1-1.5,3.1-2.3,5.1-2.3c2.5,0,4.9,1.4,4.9,4.3c0,3-3.1,5.7-7.2,9h7.2v1.6
			H400L400,127.2z M392.9,122.6L392.9,122.6v-1.5h5.3v1.5H392.9L392.9,122.6z M380.4,127.2L380.4,127.2v-1.5
			c5.3-4.2,8.2-6.6,8.2-9.2c0-1.9-1.6-2.7-3.1-2.7c-1.8,0-3.1,0.8-4,1.9l-1.1-1.2c1.1-1.5,3.1-2.3,5.1-2.3c2.5,0,5,1.4,5,4.3
			c0,3-3.1,5.7-7.2,9h7.2v1.6H380.4L380.4,127.2z M367.6,125.1L367.6,125.1l1.1-1.2c1,1.2,2.3,1.9,4.1,1.9c2,0,3.4-1.4,3.4-3.2
			c0-1.9-1.4-3.2-3.4-3.2c-1.3,0-2.4,0.4-3.4,1.4l-1.4-0.5v-8h9v1.6h-7.2v5.1c0.7-0.7,2-1.3,3.4-1.3c2.5,0,4.7,1.7,4.7,4.7
			c0,3-2.3,4.9-5.2,4.9C370.3,127.5,368.7,126.6,367.6,125.1L367.6,125.1z M357.5,127.2L357.5,127.2l5.9-13.1h-7.9v-1.6h10.1v1.3
			l-6,13.5H357.5L357.5,127.2z M350.2,114.2L350.2,114.2l-5.2,7.7h5.2V114.2L350.2,114.2z M350.2,127.2L350.2,127.2v-3.7h-7V122
			l6.3-9.5h2.5v9.4h2.1v1.6H352v3.7H350.2L350.2,127.2z M338.9,127.2L338.9,127.2v-12.3l-2.4,2.5l-1.1-1.1l3.7-3.8h1.6v14.7H338.9
			L338.9,127.2z M328.4,127.7L328.4,127.7l5.2-15.6h1.3l-5.2,15.6H328.4L328.4,127.7z M325.1,127.2L325.1,127.2V120
			c0-1.3-0.6-2.2-2-2.2c-1.1,0-2.3,0.8-2.8,1.6v7.8h-1.7V120c0-1.3-0.6-2.2-2-2.2c-1.1,0-2.2,0.8-2.8,1.7v7.8h-1.7v-10.7h1.7v1.5
			c0.4-0.7,1.9-1.8,3.4-1.8c1.6,0,2.6,0.9,2.9,2c0.6-1,2-2,3.6-2c1.9,0,3,1.1,3,3.2v7.7H325.1L325.1,127.2z M304.2,126L304.2,126
			c2.3,0,3.5-1.9,3.5-4.1c0-2.2-1.3-4.1-3.5-4.1c-2.3,0-3.6,1.9-3.6,4.1C300.7,124.1,302,126,304.2,126L304.2,126z M304.2,127.5
			L304.2,127.5c-3.2,0-5.3-2.5-5.3-5.6c0-3.1,2-5.6,5.3-5.6c3.3,0,5.3,2.5,5.3,5.6C309.5,125,307.5,127.5,304.2,127.5L304.2,127.5z
			 M288,121.9L288,121.9c0-3.2,2.1-5.6,5.3-5.6c1.9,0,3.1,0.8,3.9,1.9l-1.1,1c-0.7-1-1.6-1.4-2.7-1.4c-2.3,0-3.7,1.7-3.7,4.1
			c0,2.4,1.4,4.1,3.7,4.1c1.1,0,2-0.4,2.7-1.4l1.1,1c-0.8,1.1-2,1.9-3.9,1.9C290.2,127.5,288,125.1,288,121.9L288,121.9z
			 M283.2,126.3L283.2,126.3c0-0.7,0.6-1.2,1.2-1.2c0.7,0,1.2,0.6,1.2,1.2c0,0.7-0.6,1.2-1.2,1.2
			C283.8,127.5,283.2,126.9,283.2,126.3L283.2,126.3z M276.3,127.2L276.3,127.2v-10.7h1.7v1.7c0.9-1.1,2.1-1.9,3.6-1.9v1.7
			c-0.2,0-0.4-0.1-0.7-0.1c-1,0-2.4,0.8-2.9,1.7v7.6H276.3L276.3,127.2z M268.4,117.7L268.4,117.7c-2.3,0-3.4,1.9-3.5,3.6h7
			C271.9,119.6,270.9,117.7,268.4,117.7L268.4,117.7z M263.2,121.9L263.2,121.9c0-3.1,2.2-5.6,5.3-5.6c3.2,0,5.1,2.5,5.1,5.7v0.4
			h-8.6c0.1,2,1.5,3.7,3.8,3.7c1.2,0,2.5-0.5,3.3-1.4l0.8,1.1c-1.1,1.1-2.5,1.6-4.2,1.6C265.5,127.5,263.2,125.2,263.2,121.9
			L263.2,121.9z M258.8,127.2L258.8,127.2v-7c0-1.9-1-2.5-2.4-2.5c-1.3,0-2.5,0.8-3.2,1.7v7.8h-1.7v-10.7h1.7v1.5
			c0.8-0.9,2.2-1.8,3.8-1.8c2.2,0,3.4,1.1,3.4,3.4v7.5H258.8L258.8,127.2z M247.8,127.5L247.8,127.5c-1.6,0-2.4-0.9-2.4-2.5v-7h-1.8
			v-1.5h1.8v-2.9h1.7v2.9h2.2v1.5h-2.2v6.6c0,0.8,0.4,1.4,1.1,1.4c0.5,0,0.9-0.2,1.1-0.4l0.5,1.2
			C249.4,127.2,248.8,127.5,247.8,127.5L247.8,127.5z M237.8,127.2L237.8,127.2v-10.7h1.7v1.7c0.9-1.1,2.1-1.9,3.6-1.9v1.7
			c-0.2,0-0.4-0.1-0.7-0.1c-1,0-2.4,0.8-2.9,1.7v7.6H237.8L237.8,127.2z M232.9,124.3L232.9,124.3v-4.8c-0.6-0.9-1.9-1.7-3.2-1.7
			c-2.1,0-3.4,1.8-3.4,4.1c0,2.4,1.3,4.1,3.4,4.1C231,126,232.3,125.3,232.9,124.3L232.9,124.3z M232.9,127.2L232.9,127.2v-1.6
			c-0.8,1.1-2.1,1.9-3.6,1.9c-2.8,0-4.8-2.1-4.8-5.6c0-3.4,1.9-5.6,4.8-5.6c1.4,0,2.7,0.7,3.6,1.9v-1.6h1.7v10.7H232.9L232.9,127.2z
			 M220.9,116.9L220.9,116.9c0-1.7-1.2-2.8-2.9-2.8h-3.9v5.6h3.9C219.7,119.8,220.9,118.6,220.9,116.9L220.9,116.9z M212.2,127.2
			L212.2,127.2v-14.7h5.9c3,0,4.6,2,4.6,4.4c0,2.4-1.7,4.4-4.6,4.4h-4.1v5.9H212.2L212.2,127.2z M204.3,117.7L204.3,117.7
			c-2.3,0-3.4,1.9-3.5,3.6h7C207.8,119.6,206.8,117.7,204.3,117.7L204.3,117.7z M199.1,121.9L199.1,121.9c0-3.1,2.2-5.6,5.3-5.6
			c3.2,0,5.1,2.5,5.1,5.7v0.4h-8.6c0.1,2,1.5,3.7,3.8,3.7c1.2,0,2.5-0.5,3.3-1.4l0.8,1.1c-1.1,1.1-2.5,1.6-4.2,1.6
			C201.4,127.5,199.1,125.2,199.1,121.9L199.1,121.9z M195.9,127.5L195.9,127.5c-1.6,0-2.4-0.9-2.4-2.5v-7h-1.8v-1.5h1.8v-2.9h1.7
			v2.9h2.2v1.5h-2.2v6.6c0,0.8,0.4,1.4,1.1,1.4c0.5,0,0.9-0.2,1.1-0.4l0.5,1.2C197.5,127.2,196.9,127.5,195.9,127.5L195.9,127.5z
			 M188.2,124.3L188.2,124.3v-4.8c-0.6-0.9-1.9-1.7-3.2-1.7c-2.1,0-3.4,1.8-3.4,4.1c0,2.4,1.3,4.1,3.4,4.1
			C186.4,126,187.6,125.3,188.2,124.3L188.2,124.3z M188.2,127.2L188.2,127.2v-1.6c-0.8,1.1-2.1,1.9-3.6,1.9c-2.8,0-4.8-2.1-4.8-5.6
			c0-3.4,1.9-5.6,4.8-5.6c1.4,0,2.7,0.7,3.6,1.9v-1.6h1.7v10.7H188.2L188.2,127.2z M175.5,127.2L175.5,127.2V120
			c0-1.3-0.6-2.2-2-2.2c-1.1,0-2.3,0.8-2.8,1.6v7.8h-1.7V120c0-1.3-0.6-2.2-2-2.2c-1.1,0-2.2,0.8-2.8,1.7v7.8h-1.7v-10.7h1.7v1.5
			c0.4-0.7,1.9-1.8,3.4-1.8c1.6,0,2.6,0.9,2.9,2c0.6-1,2-2,3.6-2c1.9,0,3,1.1,3,3.2v7.7H175.5L175.5,127.2z M157.7,127.2
			L157.7,127.2v-10.7h1.7v10.7H157.7L157.7,127.2z M158.5,114.8L158.5,114.8c-0.6,0-1.1-0.5-1.1-1.1c0-0.6,0.5-1.1,1.1-1.1
			c0.6,0,1.1,0.5,1.1,1.1C159.6,114.3,159.1,114.8,158.5,114.8L158.5,114.8z M154.1,127.5L154.1,127.5c-1.6,0-2.4-0.9-2.4-2.5v-12.5
			h1.7v12.2c0,0.8,0.4,1.4,1.1,1.4c0.5,0,0.9-0.2,1.1-0.4l0.5,1.2C155.7,127.2,155.1,127.5,154.1,127.5L154.1,127.5z M143.8,127.5
			L143.8,127.5c-4.2,0-7.5-3.1-7.5-7.6c0-4.5,3.3-7.6,7.5-7.6c2.7,0,4.5,1.3,5.7,2.9l-1.5,0.9c-0.8-1.2-2.4-2.1-4.1-2.1
			c-3.2,0-5.6,2.5-5.6,6c0,3.5,2.5,6,5.6,6c1.8,0,3.3-0.9,4.1-2.1l1.6,0.9C148.2,126.3,146.5,127.5,143.8,127.5L143.8,127.5z"/>
        <path class="st2-climate-neutral-certificate" d="M82.4,55.7c0,14-11.4,25.3-25.5,25.3c-14.1,0-25.5-11.3-25.5-25.3c0-14,11.4-25.3,25.5-25.3
			C70.9,30.4,82.4,41.8,82.4,55.7"/>
	</g>
</g>
    <g id="FR" class="st0-climate-neutral-certificate">
	<g class="st1-climate-neutral-certificate">
		<g>
			<path class="st2-climate-neutral-certificate" d="M83.6,55.4c0,13.8-11.3,25-25.2,25c-13.9,0-25.2-11.2-25.2-25s11.3-25,25.2-25
				C72.3,30.4,83.6,41.6,83.6,55.4"/>
		</g>
        <path class="st3-climate-neutral-certificate" d="M133.3,33.2c0-14,10.6-23.6,23.9-23.6c10.4,0,16.2,5.5,19.4,11.1l-8.3,4.1c-1.9-3.7-6-6.6-11.1-6.6
			c-7.9,0-13.9,6.4-13.9,15c0,8.6,6,15,13.9,15c5.1,0,9.2-2.9,11.1-6.6l8.3,4c-3.3,5.7-9,11.2-19.4,11.2
			C143.9,56.8,133.3,47.2,133.3,33.2L133.3,33.2z M204.1,18.2c8.4,0,13.9,6.4,13.9,15c0,8.5-5.5,15-13.9,15c-8.4,0-13.8-6.5-13.8-15
			C190.3,24.6,195.7,18.2,204.1,18.2L204.1,18.2z M204.1,9.6c-13.7,0-23.8,9.8-23.8,23.6c0,13.7,10,23.6,23.8,23.6
			c13.8,0,23.9-9.8,23.9-23.6C227.9,19.4,217.9,9.6,204.1,9.6L204.1,9.6z M232,51.2v4.8h21.5v-5.3h-12c7.9-5.6,11.8-9.5,11.8-13.9
			c0-5.5-4.7-8.5-11-8.5c-3.8,0-8.1,1.3-11,4.5l3.4,4.2c1.4-1.7,4.3-3.4,7.5-3.4c2.6,0,4.6,1.2,4.6,3.8
			C246.8,40.2,243.9,42.9,232,51.2L232,51.2z M293.2,22.1c-10.2,0-17.5,7.2-17.5,17.3c0,10.2,7.3,17.4,17.5,17.4
			c6.8,0,10.9-2.9,13.1-6l-5.7-5.3c-1.6,2.2-4,3.6-7,3.6c-5.3,0-9-3.9-9-9.6c0-5.7,3.7-9.6,9-9.6c3,0,5.4,1.3,7,3.6l5.7-5.3
			C304.1,25,300,22.1,293.2,22.1L293.2,22.1z M335.7,39.4c0,5.2-3.1,9.6-8.5,9.6c-5.4,0-8.4-4.4-8.4-9.6c0-5.1,3-9.6,8.4-9.6
			C332.7,29.8,335.7,34.3,335.7,39.4L335.7,39.4z M309.8,39.4c0,9.4,6.6,17.4,17.4,17.4c10.9,0,17.5-7.9,17.5-17.4
			c0-9.4-6.6-17.3-17.5-17.3C316.4,22.1,309.8,30,309.8,39.4L309.8,39.4z M392.1,35.1v20.8h8.8V32.1c0-6.8-3.6-10-9.7-10
			c-5.1,0-9.4,3-11.3,6c-1.2-3.8-4.3-6-9.2-6c-5.1,0-9.4,3.1-10.8,5.1v-4.3h-8.7v33h8.7V33.7c1.3-1.8,3.8-3.9,6.8-3.9
			c3.6,0,4.9,2.2,4.9,5.3v20.8h8.7V33.7c1.2-1.8,3.8-3.8,6.8-3.8C390.8,29.8,392.1,32,392.1,35.1L392.1,35.1z M425.6,29.8
			c5,0,8.3,3.9,8.3,9.6c0,5.7-3.3,9.6-8.3,9.6c-2.8,0-6-1.7-7.5-3.8V33.6C419.5,31.5,422.8,29.8,425.6,29.8L425.6,29.8z M409.4,68.5
			h8.7V51.7c2.7,3.4,6.3,5.1,10.2,5.1c8.5,0,14.6-6.4,14.6-17.4c0-11-6.2-17.3-14.6-17.3c-4,0-7.7,1.8-10.2,5v-4.2h-8.7V68.5
			L409.4,68.5z M456.2,36.3c0.4-3.3,2.7-7.3,8.1-7.3c5.7,0,7.9,4.2,8.1,7.3H456.2L456.2,36.3z M464.4,22.1c-10,0-17.1,7.7-17.1,17.3
			c0,10.6,7.6,17.4,17.6,17.4c5.1,0,10.3-1.5,13.6-4.6l-3.8-5.6c-2.1,2.1-5.7,3.3-8.8,3.3c-5.6,0-9-3.5-9.5-7.7h24.5v-1.9
			C480.9,29.5,474.2,22.1,464.4,22.1L464.4,22.1z M509.5,36v20h8.7V32.6c0-6.4-3.5-10.5-10.7-10.5c-5.4,0-9.4,2.6-11.6,5.1v-4.3
			h-8.7v33h8.7V33.7c1.4-2,4.1-3.9,7.5-3.9C507.1,29.8,509.5,31.4,509.5,36L509.5,36z M527.7,45.6l-3.8,6.1c3.5,3.2,9,5.1,14.8,5.1
			c9.2,0,14.3-4.5,14.3-10.6c0-8.2-7.6-9.7-13.3-10.8c-3.7-0.8-6.3-1.5-6.3-3.6c0-1.9,2.1-3.1,5.2-3.1c4,0,7.8,1.7,9.8,3.8l3.4-5.9
			c-3.2-2.6-7.7-4.5-13.3-4.5c-8.7,0-13.5,4.9-13.5,10.4c0,7.9,7.3,9.2,13,10.3c3.8,0.8,6.6,1.6,6.6,3.9c0,2.1-1.8,3.3-5.5,3.3
			C535,50.1,530.1,47.8,527.7,45.6L527.7,45.6z M571.1,17.9h6.1l11.1-9.8h-8L571.1,17.9L571.1,17.9z M566.2,36.3
			c0.4-3.3,2.7-7.3,8.1-7.3c5.7,0,7.9,4.2,8.1,7.3H566.2L566.2,36.3z M574.4,22.1c-10,0-17.1,7.7-17.1,17.3
			c0,10.6,7.6,17.4,17.6,17.4c5.1,0,10.3-1.5,13.6-4.6l-3.8-5.6c-2.1,2.1-5.7,3.3-8.8,3.3c-5.6,0-9-3.5-9.5-7.7h24.5v-1.9
			C590.9,29.5,584.2,22.1,574.4,22.1L574.4,22.1z M33,90c-11-7.5-18.3-20-18.3-34.2c0-22.8,18.7-41.4,41.8-41.4c3.2,0,6.3,0.4,9.3,1
			l5.7-13.1c-4.8-1.3-9.8-2-15-2c-30.9,0-56,24.9-56,55.5c0,20,10.7,37.5,26.8,47.3L33,90L33,90z M57.5,111.2
			c30.4-0.6,55-25.2,55-55.4c0-20-10.7-37.5-26.8-47.3l-5.7,13.1c11,7.5,18.3,20,18.3,34.2c0,22.8-18.7,41.4-41.8,41.4
			c-3.2,0-6.3-0.4-9.3-1l-13.9,31.6h16.9L57.5,111.2L57.5,111.2z M135.6,96.8V75.5h14.7v3.3h-10.9v5.5H150v3.3h-10.7v5.9h10.9v3.3
			H135.6L135.6,96.8z M164.4,96.8v-9.7c0-2.4-1.2-3.2-3.1-3.2c-1.7,0-3.2,1-4,2.1v10.8H154V81.4h3.4v2.1c1-1.2,3-2.5,5.4-2.5
			c3.3,0,5,1.8,5,5v10.9H164.4L164.4,96.8z M176.8,97.2c-2.6,0-4-1.4-4-4v-8.9h-2.6v-3h2.6v-4.2h3.4v4.2h3.1v3h-3.1v8.1
			c0,1.1,0.5,1.8,1.5,1.8c0.6,0,1.2-0.3,1.5-0.5l0.8,2.5C179.4,96.8,178.4,97.2,176.8,97.2L176.8,97.2z M182.4,96.8V81.4h3.4v2.3
			c1.2-1.5,3-2.6,5-2.6v3.3c-0.3-0.1-0.6-0.1-1.1-0.1c-1.4,0-3.3,1-4,2.1v10.5H182.4L182.4,96.8z M192.6,89.1c0-4.5,3.3-8.1,7.9-8.1
			c4.7,0,7.6,3.6,7.6,8.4v0.8h-12c0.3,2.3,2,4.3,4.9,4.3c1.5,0,3.3-0.6,4.4-1.7L207,95c-1.5,1.5-3.8,2.2-6.3,2.2
			C196,97.2,192.6,94,192.6,89.1L192.6,89.1z M200.4,83.7c-2.9,0-4.2,2.2-4.4,4.1h8.7C204.7,86,203.5,83.7,200.4,83.7L200.4,83.7z
			 M214.7,102.7h-3.4V81.4h3.4v2.1c1.2-1.5,3-2.5,5-2.5c4,0,6.9,3,6.9,8.1c0,5.1-2.9,8.1-6.9,8.1c-2,0-3.7-0.9-5-2.5V102.7
			L214.7,102.7z M223.1,89.1c0-3-1.7-5.1-4.4-5.1c-1.6,0-3.2,0.9-4,2.1v6.1c0.7,1.1,2.4,2.1,4,2.1C221.4,94.2,223.1,92.1,223.1,89.1
			L223.1,89.1z M230,96.8V81.4h3.4v2.3c1.2-1.5,3-2.6,5-2.6v3.3c-0.3-0.1-0.6-0.1-1.1-0.1c-1.4,0-3.3,1-4,2.1v10.5H230L230,96.8z
			 M242.8,78.8c-1.1,0-2.1-0.9-2.1-2.1c0-1.2,1-2.1,2.1-2.1c1.2,0,2.1,0.9,2.1,2.1C244.8,77.9,243.9,78.8,242.8,78.8L242.8,78.8z
			 M241.1,96.8V81.4h3.4v15.5H241.1L241.1,96.8z M247.5,94.8l1.5-2.4c1.1,1.1,3.2,2.2,5.3,2.2c2,0,3-0.7,3-1.9
			c0-1.3-1.6-1.8-3.5-2.2c-2.7-0.6-5.8-1.3-5.8-4.7c0-2.5,2.2-4.7,6.1-4.7c2.6,0,4.6,0.9,6,2.2l-1.4,2.4c-0.9-1.1-2.7-1.9-4.6-1.9
			c-1.8,0-2.9,0.6-2.9,1.7c0,1.2,1.5,1.6,3.4,2c2.7,0.6,6,1.3,6,5c0,2.7-2.3,4.8-6.4,4.8C251.5,97.2,249.1,96.4,247.5,94.8
			L247.5,94.8z M263,89.1c0-4.5,3.3-8.1,7.9-8.1c4.7,0,7.6,3.6,7.6,8.4v0.8h-12c0.3,2.3,2,4.3,4.9,4.3c1.5,0,3.3-0.6,4.4-1.7
			l1.5,2.2c-1.5,1.5-3.8,2.2-6.3,2.2C266.4,97.2,263,94,263,89.1L263,89.1z M270.8,83.7c-2.9,0-4.2,2.2-4.4,4.1h8.7
			C275.1,86,273.9,83.7,270.8,83.7L270.8,83.7z M143.1,127.2c-4.2,0-7.5-3.1-7.5-7.6c0-4.5,3.3-7.6,7.5-7.6c2.7,0,4.5,1.3,5.6,2.9
			l-1.5,0.9c-0.8-1.2-2.4-2.1-4.1-2.1c-3.1,0-5.6,2.5-5.6,6c0,3.5,2.4,6,5.6,6c1.7,0,3.3-0.9,4.1-2.1l1.6,0.9
			C147.5,126,145.8,127.2,143.1,127.2L143.1,127.2z M153.4,127.2c-1.6,0-2.4-0.9-2.4-2.5v-12.5h1.6v12.1c0,0.8,0.4,1.4,1.1,1.4
			c0.5,0,0.9-0.2,1.1-0.4l0.5,1.2C154.9,126.9,154.3,127.2,153.4,127.2L153.4,127.2z M157.7,114.5c-0.6,0-1.1-0.5-1.1-1.1
			c0-0.6,0.5-1.1,1.1-1.1c0.6,0,1.1,0.5,1.1,1.1C158.9,114,158.3,114.5,157.7,114.5L157.7,114.5z M156.9,127v-10.6h1.6V127H156.9
			L156.9,127z M174.7,127v-7.2c0-1.3-0.6-2.2-2-2.2c-1.1,0-2.3,0.8-2.8,1.6v7.8h-1.7v-7.2c0-1.3-0.6-2.2-2-2.2
			c-1.1,0-2.2,0.8-2.8,1.6v7.8h-1.6v-10.6h1.6v1.5c0.4-0.7,1.9-1.8,3.4-1.8c1.6,0,2.6,0.9,2.9,2c0.6-1,2-2,3.6-2c1.9,0,3,1.1,3,3.2
			v7.7H174.7L174.7,127z M187.4,127v-1.6c-0.8,1.1-2.1,1.9-3.6,1.9c-2.8,0-4.7-2.1-4.7-5.6c0-3.4,1.9-5.6,4.7-5.6
			c1.4,0,2.7,0.7,3.6,1.9v-1.6h1.7V127H187.4L187.4,127z M187.4,124.1v-4.8c-0.6-0.9-1.9-1.7-3.2-1.7c-2.1,0-3.4,1.8-3.4,4.1
			c0,2.4,1.3,4.1,3.4,4.1C185.5,125.7,186.8,125,187.4,124.1L187.4,124.1z M195,127.2c-1.6,0-2.4-0.9-2.4-2.5v-7h-1.8v-1.5h1.8v-2.9
			h1.7v2.9h2.2v1.5h-2.2v6.6c0,0.8,0.3,1.4,1.1,1.4c0.5,0,0.9-0.2,1.1-0.4l0.5,1.2C196.6,126.9,196,127.2,195,127.2L195,127.2z
			 M198.2,121.6c0-3.1,2.2-5.6,5.2-5.6c3.2,0,5.1,2.5,5.1,5.7v0.4h-8.6c0.1,2,1.5,3.7,3.8,3.7c1.2,0,2.4-0.5,3.3-1.3l0.8,1.1
			c-1.1,1.1-2.5,1.6-4.2,1.6C200.4,127.2,198.2,125,198.2,121.6L198.2,121.6z M203.4,117.4c-2.3,0-3.4,1.9-3.5,3.5h7
			C206.9,119.4,205.8,117.4,203.4,117.4L203.4,117.4z M211.2,127v-14.7h5.9c3,0,4.6,2,4.6,4.4c0,2.4-1.7,4.4-4.6,4.4h-4.1v5.8H211.2
			L211.2,127z M219.8,116.7c0-1.7-1.2-2.8-2.9-2.8h-3.9v5.6h3.9C218.7,119.5,219.8,118.4,219.8,116.7L219.8,116.7z M231.8,127v-1.6
			c-0.8,1.1-2.1,1.9-3.6,1.9c-2.8,0-4.7-2.1-4.7-5.6c0-3.4,1.9-5.6,4.7-5.6c1.4,0,2.7,0.7,3.6,1.9v-1.6h1.7V127H231.8L231.8,127z
			 M231.8,124.1v-4.8c-0.6-0.9-1.9-1.7-3.2-1.7c-2.1,0-3.4,1.8-3.4,4.1c0,2.4,1.3,4.1,3.4,4.1C229.9,125.7,231.2,125,231.8,124.1
			L231.8,124.1z M236.8,127v-10.6h1.6v1.7c0.9-1.1,2.1-1.9,3.5-1.9v1.7c-0.2,0-0.4-0.1-0.7-0.1c-1,0-2.4,0.8-2.9,1.7v7.5H236.8
			L236.8,127z M246.7,127.2c-1.6,0-2.4-0.9-2.4-2.5v-7h-1.8v-1.5h1.8v-2.9h1.7v2.9h2.2v1.5H246v6.6c0,0.8,0.3,1.4,1.1,1.4
			c0.5,0,0.9-0.2,1.1-0.4l0.5,1.2C248.3,126.9,247.7,127.2,246.7,127.2L246.7,127.2z M257.7,127v-7c0-1.9-0.9-2.5-2.4-2.5
			c-1.3,0-2.5,0.8-3.2,1.6v7.8h-1.6v-10.6h1.6v1.5c0.7-0.9,2.2-1.8,3.8-1.8c2.2,0,3.4,1.1,3.4,3.4v7.5H257.7L257.7,127z M262,121.6
			c0-3.1,2.2-5.6,5.2-5.6c3.2,0,5.1,2.5,5.1,5.7v0.4h-8.6c0.1,2,1.5,3.7,3.8,3.7c1.2,0,2.4-0.5,3.3-1.3l0.8,1.1
			c-1.1,1.1-2.5,1.6-4.2,1.6C264.3,127.2,262,125,262,121.6L262,121.6z M267.2,117.4c-2.3,0-3.4,1.9-3.5,3.5h7
			C270.7,119.4,269.6,117.4,267.2,117.4L267.2,117.4z M275,127v-10.6h1.6v1.7c0.9-1.1,2.1-1.9,3.5-1.9v1.7c-0.2,0-0.4-0.1-0.7-0.1
			c-1,0-2.4,0.8-2.9,1.7v7.5H275L275,127z M281.9,126c0-0.7,0.5-1.2,1.2-1.2c0.7,0,1.2,0.5,1.2,1.2c0,0.7-0.5,1.2-1.2,1.2
			C282.5,127.2,281.9,126.6,281.9,126L281.9,126z M286.7,121.6c0-3.1,2.1-5.6,5.3-5.6c1.9,0,3.1,0.8,3.9,1.9l-1.1,1
			c-0.7-1-1.6-1.4-2.7-1.4c-2.3,0-3.7,1.7-3.7,4.1c0,2.4,1.4,4.1,3.7,4.1c1.1,0,2-0.4,2.7-1.4l1.1,1c-0.8,1.1-2,1.9-3.9,1.9
			C288.9,127.2,286.7,124.8,286.7,121.6L286.7,121.6z M302.9,127.2c-3.2,0-5.3-2.5-5.3-5.6c0-3.1,2-5.6,5.3-5.6
			c3.2,0,5.3,2.5,5.3,5.6C308.1,124.7,306.1,127.2,302.9,127.2L302.9,127.2z M302.9,125.7c2.3,0,3.5-1.9,3.5-4.1
			c0-2.2-1.3-4.1-3.5-4.1c-2.3,0-3.5,1.9-3.5,4.1C299.3,123.8,300.6,125.7,302.9,125.7L302.9,125.7z M323.7,127v-7.2
			c0-1.3-0.6-2.2-2-2.2c-1.1,0-2.3,0.8-2.8,1.6v7.8h-1.7v-7.2c0-1.3-0.6-2.2-2-2.2c-1.1,0-2.2,0.8-2.8,1.6v7.8h-1.6v-10.6h1.6v1.5
			c0.4-0.7,1.9-1.8,3.4-1.8c1.6,0,2.6,0.9,2.9,2c0.6-1,2-2,3.6-2c1.9,0,3,1.1,3,3.2v7.7H323.7L323.7,127z M327,127.4l5.2-15.6h1.3
			l-5.2,15.6H327L327,127.4z M337.4,127v-12.3l-2.4,2.5l-1.1-1.1l3.7-3.8h1.6V127H337.4L337.4,127z M348.6,127v-3.7h-7v-1.5l6.3-9.4
			h2.5v9.4h2.1v1.6h-2.1v3.7H348.6L348.6,127z M348.6,114l-5.1,7.7h5.1V114L348.6,114z M355.9,127l5.9-13.1h-7.9v-1.6h10v1.3
			l-6,13.4H355.9L355.9,127z M366,124.9l1.1-1.2c1,1.2,2.2,1.9,4,1.9c2,0,3.4-1.4,3.4-3.1c0-1.9-1.4-3.2-3.4-3.2
			c-1.3,0-2.4,0.4-3.4,1.4l-1.3-0.5v-7.9h9v1.6h-7.2v5.1c0.7-0.7,2-1.3,3.4-1.3c2.4,0,4.7,1.7,4.7,4.7c0,3-2.3,4.8-5.2,4.8
			C368.7,127.2,367.1,126.3,366,124.9L366,124.9z M378.7,127v-1.5c5.3-4.2,8.1-6.6,8.1-9.1c0-1.9-1.5-2.7-3.1-2.7
			c-1.8,0-3.1,0.7-4,1.9l-1.1-1.2c1.1-1.5,3-2.3,5.1-2.3c2.4,0,4.9,1.4,4.9,4.3c0,3-3,5.7-7.1,9h7.2v1.6H378.7L378.7,127z
			 M391.2,122.4v-1.5h5.3v1.5H391.2L391.2,122.4z M398.3,127v-1.5c5.3-4.2,8.1-6.6,8.1-9.1c0-1.9-1.5-2.7-3.1-2.7
			c-1.8,0-3.1,0.7-4,1.9l-1.1-1.2c1.1-1.5,3-2.3,5.1-2.3c2.4,0,4.9,1.4,4.9,4.3c0,3-3,5.7-7.1,9h7.2v1.6H398.3L398.3,127z M414,127
			v-12.3l-2.4,2.5l-1.1-1.1l3.7-3.8h1.6V127H414L414,127z M421.4,127v-12.3l-2.4,2.5l-1.1-1.1l3.7-3.8h1.6V127H421.4L421.4,127z
			 M426.1,119.6c0-3.6,1.6-7.6,5.6-7.6c4,0,5.6,4,5.6,7.6c0,3.6-1.6,7.6-5.6,7.6C427.7,127.2,426.1,123.2,426.1,119.6L426.1,119.6z
			 M435.4,119.6c0-2.9-0.9-5.9-3.7-5.9c-2.8,0-3.7,3-3.7,5.9s0.9,6,3.7,6C434.5,125.6,435.4,122.6,435.4,119.6L435.4,119.6z
			 M439.1,122.4v-1.5h5.3v1.5H439.1L439.1,122.4z M449,127v-12.3l-2.4,2.5l-1.1-1.1l3.7-3.8h1.6V127H449L449,127z M453.6,119.6
			c0-3.6,1.6-7.6,5.6-7.6c4,0,5.6,4,5.6,7.6c0,3.6-1.6,7.6-5.6,7.6C455.2,127.2,453.6,123.2,453.6,119.6L453.6,119.6z M463,119.6
			c0-2.9-0.9-5.9-3.7-5.9c-2.8,0-3.7,3-3.7,5.9s0.9,6,3.7,6C462,125.6,463,122.6,463,119.6L463,119.6z M467.1,119.6
			c0-3.6,1.6-7.6,5.6-7.6c4,0,5.6,4,5.6,7.6c0,3.6-1.6,7.6-5.6,7.6C468.7,127.2,467.1,123.2,467.1,119.6L467.1,119.6z M476.5,119.6
			c0-2.9-0.9-5.9-3.7-5.9c-2.8,0-3.7,3-3.7,5.9s0.9,6,3.7,6C475.5,125.6,476.5,122.6,476.5,119.6L476.5,119.6z M480.6,127v-1.5
			c5.3-4.2,8.1-6.6,8.1-9.1c0-1.9-1.5-2.7-3.1-2.7c-1.8,0-3.1,0.7-4,1.9l-1.1-1.2c1.1-1.5,3-2.3,5.1-2.3c2.4,0,4.9,1.4,4.9,4.3
			c0,3-3,5.7-7.1,9h7.2v1.6H480.6L480.6,127z"/>
	</g>
</g>
    <g id="ES" class="st0-climate-neutral-certificate">
	<g class="st1-climate-neutral-certificate">
		<g>
			<path class="st2-climate-neutral-certificate" d="M83.1,55.7c0,13.9-11.4,25.2-25.4,25.2c-14.1,0-25.4-11.3-25.4-25.2c0-13.9,11.4-25.2,25.4-25.2
				C71.7,30.5,83.1,41.8,83.1,55.7"/>
		</g>
        <path class="st3-climate-neutral-certificate" d="M134.9,40.8c0-9.3,7-15.6,16.1-15.6c6.6,0,10.4,3.6,12.6,7.4l-5.5,2.7c-1.3-2.4-4-4.4-7-4.4
			c-5.5,0-9.5,4.2-9.5,9.9c0,5.7,4,9.9,9.5,9.9c3.1,0,5.8-1.9,7-4.4l5.5,2.7c-2.1,3.8-6,7.4-12.6,7.4
			C141.9,56.4,134.9,50.1,134.9,40.8L134.9,40.8z M166.5,50.4c0,3.9,2.1,6,6.1,6c2.3,0,3.9-0.6,4.8-1.4l-1.2-4.4
			c-0.3,0.4-1.1,0.7-2,0.7c-1.3,0-2-1-2-2.4V25.7h-5.7V50.4L166.5,50.4z M179.2,55.9h5.7V34h-5.7V55.9L179.2,55.9z M178.7,28.3
			c0,1.9,1.5,3.4,3.4,3.4c1.9,0,3.4-1.5,3.4-3.4c0-1.9-1.5-3.4-3.4-3.4C180.2,24.9,178.7,26.4,178.7,28.3L178.7,28.3z M217,55.9h5.8
			V40.1c0-4.5-2.4-6.6-6.4-6.6c-3.3,0-6.2,2-7.5,3.9c-0.8-2.4-2.8-3.9-6.1-3.9c-3.3,0-6.2,2.1-7.1,3.3V34h-5.7v21.8h5.7V41.1
			c0.9-1.2,2.5-2.5,4.5-2.5c2.3,0,3.3,1.4,3.3,3.5v13.8h5.8V41.1c0.8-1.2,2.5-2.5,4.5-2.5c2.3,0,3.3,1.4,3.3,3.5V55.9L217,55.9z
			 M238.7,30.7l7.3-6.5h-5.3l-6.1,6.5H238.7L238.7,30.7z M242.7,48.8c-0.9,1.4-3,2.5-4.9,2.5c-3.3,0-5.6-2.6-5.6-6.4
			c0-3.8,2.3-6.3,5.6-6.3c1.9,0,4,1.1,4.9,2.5V48.8L242.7,48.8z M242.7,55.9h5.8V34h-5.8v2.8c-1.8-2.3-4.2-3.3-6.7-3.3
			c-5.6,0-9.7,4.3-9.7,11.4c0,7.3,4.2,11.5,9.7,11.5c2.7,0,5-1.2,6.7-3.3V55.9L242.7,55.9z M254.6,50.4c0,3.9,2.1,6,6.1,6
			c2.4,0,3.9-0.6,4.8-1.4l-1.2-4.4c-0.3,0.4-1.1,0.7-2,0.7c-1.3,0-2-1-2-2.4v-9.8h4.4v-5h-4.4v-6h-5.7v6h-3.6v5h3.6V50.4L254.6,50.4
			z M267.9,55.9h5.7V34h-5.7V55.9L267.9,55.9z M267.3,28.3c0,1.9,1.5,3.4,3.4,3.4c1.9,0,3.4-1.5,3.4-3.4c0-1.9-1.5-3.4-3.4-3.4
			C268.9,24.9,267.3,26.4,267.3,28.3L267.3,28.3z M277.1,44.9c0,6.7,4.9,11.5,11.6,11.5c4.5,0,7.2-2,8.6-4l-3.8-3.5
			c-1,1.5-2.6,2.4-4.6,2.4c-3.5,0-5.9-2.6-5.9-6.4c0-3.8,2.4-6.3,5.9-6.3c2,0,3.6,0.8,4.6,2.4l3.8-3.5c-1.4-2-4.2-3.9-8.6-3.9
			C282,33.5,277.1,38.2,277.1,44.9L277.1,44.9z M315.3,48.8c-0.9,1.4-3,2.5-4.9,2.5c-3.3,0-5.6-2.6-5.6-6.4c0-3.8,2.3-6.3,5.6-6.3
			c1.9,0,4,1.1,4.9,2.5V48.8L315.3,48.8z M315.3,55.9h5.8V34h-5.8v2.8c-1.8-2.3-4.2-3.3-6.7-3.3c-5.6,0-9.7,4.3-9.7,11.4
			c0,7.3,4.2,11.5,9.7,11.5c2.7,0,5-1.2,6.7-3.3V55.9L315.3,55.9z M353.1,55.9h5.8V40.1c0-4.5-2.4-6.6-6.4-6.6c-3.3,0-6.2,2-7.5,3.9
			c-0.8-2.4-2.8-3.9-6.1-3.9c-3.3,0-6.2,2.1-7.1,3.3V34H326v21.8h5.7V41.1c0.9-1.2,2.5-2.5,4.5-2.5c2.3,0,3.3,1.4,3.3,3.5v13.8h5.8
			V41.1c0.8-1.2,2.5-2.5,4.5-2.5c2.3,0,3.3,1.4,3.3,3.5V55.9L353.1,55.9z M373.7,38.2c3.8,0,5.2,2.6,5.4,4.7h-10.8
			C368.6,40.7,370.1,38.2,373.7,38.2L373.7,38.2z M362.4,44.9c0,7,5,11.5,11.7,11.5c3.4,0,6.8-1,9-3l-2.6-3.8
			c-1.4,1.4-3.9,2.1-5.8,2.1c-3.7,0-5.9-2.2-6.3-4.9h16.2v-1.4c0-7.1-4.4-12-10.9-12C367.1,33.5,362.4,38.6,362.4,44.9L362.4,44.9z
			 M402.8,55.9h5.8V40.5c0-4.2-2.3-7-7.1-7c-3.5,0-6.2,1.7-7.6,3.3V34H388v21.8h5.7V41.1c1-1.3,2.7-2.5,5-2.5c2.4,0,4,1,4,4.1V55.9
			L402.8,55.9z M414.6,50.4c0,3.9,2.1,6,6.1,6c2.4,0,3.9-0.6,4.8-1.4l-1.2-4.4c-0.3,0.4-1.1,0.7-2,0.7c-1.3,0-2-1-2-2.4v-9.8h4.4v-5
			h-4.4v-6h-5.7v6H411v5h3.6V50.4L414.6,50.4z M437.8,38.2c3.8,0,5.2,2.6,5.4,4.7h-10.8C432.7,40.7,434.3,38.2,437.8,38.2
			L437.8,38.2z M426.5,44.9c0,7,5,11.5,11.7,11.5c3.4,0,6.8-1,9-3l-2.6-3.8c-1.4,1.4-3.9,2.1-5.8,2.1c-3.7,0-5.9-2.2-6.3-4.9h16.2
			v-1.4c0-7.1-4.4-12-10.9-12C431.2,33.5,426.5,38.6,426.5,44.9L426.5,44.9z M477.7,55.9h5.8V40.5c0-4.2-2.3-7-7.1-7
			c-3.5,0-6.2,1.7-7.6,3.3V34H463v21.8h5.7V41.1c1-1.3,2.7-2.5,5-2.5c2.4,0,4,1,4,4.1V55.9L477.7,55.9z M498.3,38.2
			c3.8,0,5.2,2.6,5.4,4.7H493C493.2,40.7,494.7,38.2,498.3,38.2L498.3,38.2z M487,44.9c0,7,5,11.5,11.7,11.5c3.4,0,6.8-1,9-3
			l-2.6-3.8c-1.4,1.4-3.9,2.1-5.8,2.1c-3.7,0-5.9-2.2-6.3-4.9h16.2v-1.4c0-7.1-4.4-12-10.9-12C491.7,33.5,487,38.6,487,44.9
			L487,44.9z M527.4,55.9h5.7V34h-5.7v14.8c-1,1.3-2.8,2.5-5,2.5c-2.4,0-4-1-4-4V34h-5.7v15.5c0,4.2,2.3,6.9,7.1,6.9
			c3.6,0,6.2-1.7,7.7-3.3V55.9L527.4,55.9z M539.2,50.4c0,3.9,2.1,6,6.1,6c2.4,0,3.9-0.6,4.8-1.4l-1.2-4.4c-0.3,0.4-1.1,0.7-2,0.7
			c-1.3,0-2-1-2-2.4v-9.8h4.4v-5h-4.4v-6h-5.7v6h-3.6v5h3.6V50.4L539.2,50.4z M552.5,55.9h5.7V41.4c1-1.4,3.5-2.5,5.4-2.5
			c0.7,0,1.2,0,1.6,0.1v-5.6c-2.7,0-5.4,1.6-7,3.5V34h-5.7V55.9L552.5,55.9z M583.8,44.9c0,3.4-2,6.4-5.6,6.4
			c-3.6,0-5.6-2.9-5.6-6.4c0-3.4,2-6.3,5.6-6.3C581.8,38.6,583.8,41.5,583.8,44.9L583.8,44.9z M566.6,44.9c0,6.2,4.3,11.5,11.5,11.5
			c7.2,0,11.6-5.3,11.6-11.5c0-6.2-4.3-11.4-11.6-11.4C571,33.5,566.6,38.7,566.6,44.9L566.6,44.9z M34.2,90
			c-11-7.5-18.3-20-18.3-34.2c0-22.8,18.7-41.4,41.8-41.4c3.2,0,6.3,0.4,9.3,1l5.7-13.1c-4.8-1.3-9.8-2-15-2
			c-30.9,0-56,24.9-56,55.5c0,20,10.7,37.5,26.8,47.3L34.2,90L34.2,90z M58.7,111.2c30.4-0.6,55-25.2,55-55.4
			c0-20-10.7-37.5-26.8-47.3l-5.7,13.1c11,7.5,18.3,20,18.3,34.2c0,22.8-18.7,41.4-41.8,41.4c-3.2,0-6.3-0.4-9.3-1l-13.9,31.6h16.9
			L58.7,111.2L58.7,111.2z M136.8,96.8V75.5h14.7v3.3h-10.9v5.5h10.7v3.3h-10.7v5.9h10.9v3.3H136.8L136.8,96.8z M174.2,96.8V86.7
			c0-1.7-0.7-2.8-2.5-2.8c-1.5,0-2.9,1.1-3.6,2.1v10.8h-3.4V86.7c0-1.7-0.7-2.8-2.6-2.8c-1.5,0-2.9,1.1-3.6,2.1v10.8h-3.4V81.4h3.4
			v2.1c0.6-1,2.7-2.5,5-2.5c2.3,0,3.7,1.2,4.2,2.8c0.9-1.4,3-2.8,5.3-2.8c2.9,0,4.5,1.5,4.5,4.7v11.2H174.2L174.2,96.8z
			 M185.2,102.7h-3.4V81.4h3.4v2.1c1.2-1.5,3-2.5,5-2.5c4,0,6.9,3,6.9,8.1c0,5.1-2.9,8.1-6.9,8.1c-2,0-3.7-0.9-5-2.5V102.7
			L185.2,102.7z M193.6,89.1c0-3-1.7-5.1-4.4-5.1c-1.6,0-3.2,0.9-4,2.1v6.1c0.7,1.1,2.4,2.1,4,2.1C191.9,94.2,193.6,92.1,193.6,89.1
			L193.6,89.1z M200.5,96.8V81.4h3.4v2.3c1.2-1.5,3-2.6,5-2.6v3.3c-0.3-0.1-0.6-0.1-1.1-0.1c-1.4,0-3.3,1-4,2.1v10.5H200.5
			L200.5,96.8z M210.6,89.1c0-4.5,3.3-8.1,7.9-8.1c4.7,0,7.6,3.6,7.6,8.4v0.8h-12c0.3,2.3,2,4.3,4.9,4.3c1.5,0,3.3-0.6,4.4-1.7
			L225,95c-1.5,1.5-3.8,2.2-6.3,2.2C214.1,97.2,210.6,94,210.6,89.1L210.6,89.1z M218.5,83.7c-2.9,0-4.2,2.2-4.4,4.1h8.7
			C222.8,86,221.5,83.7,218.5,83.7L218.5,83.7z M228.1,94.8l1.5-2.4c1.1,1.1,3.2,2.2,5.3,2.2c2,0,3-0.7,3-1.9c0-1.3-1.6-1.8-3.5-2.2
			c-2.7-0.6-5.8-1.3-5.8-4.7c0-2.5,2.2-4.7,6.1-4.7c2.6,0,4.6,0.9,6,2.2l-1.4,2.4c-0.9-1.1-2.7-1.9-4.6-1.9c-1.8,0-2.9,0.6-2.9,1.7
			c0,1.2,1.5,1.6,3.4,2c2.7,0.6,6,1.3,6,5c0,2.7-2.3,4.8-6.4,4.8C232.1,97.2,229.7,96.4,228.1,94.8L228.1,94.8z M255.5,96.8v-2.1
			c-1.2,1.5-3,2.5-5,2.5c-4,0-6.9-3-6.9-8.1c0-5,2.9-8.1,6.9-8.1c1.9,0,3.7,0.9,5,2.5v-2.1h3.4v15.5H255.5L255.5,96.8z M255.5,92.2
			v-6.1c-0.8-1.2-2.4-2.1-4-2.1c-2.7,0-4.4,2.1-4.4,5.1c0,3,1.7,5.1,4.4,5.1C253.1,94.2,254.7,93.3,255.5,92.2L255.5,92.2z
			 M144.3,127.2c-4.2,0-7.5-3.1-7.5-7.6c0-4.5,3.3-7.6,7.5-7.6c2.7,0,4.5,1.3,5.6,2.9l-1.5,0.9c-0.8-1.2-2.4-2.1-4.1-2.1
			c-3.1,0-5.6,2.5-5.6,6c0,3.5,2.4,6,5.6,6c1.7,0,3.3-0.9,4.1-2.1l1.6,0.9C148.7,126,146.9,127.2,144.3,127.2L144.3,127.2z
			 M154.6,127.2c-1.6,0-2.4-0.9-2.4-2.5v-12.5h1.6v12.1c0,0.8,0.4,1.4,1.1,1.4c0.5,0,0.9-0.2,1.1-0.4l0.5,1.2
			C156.1,126.9,155.5,127.2,154.6,127.2L154.6,127.2z M158.9,114.5c-0.6,0-1.1-0.5-1.1-1.1c0-0.6,0.5-1.1,1.1-1.1
			c0.6,0,1.1,0.5,1.1,1.1C160,114,159.5,114.5,158.9,114.5L158.9,114.5z M158.1,127v-10.6h1.6V127H158.1L158.1,127z M175.9,127v-7.2
			c0-1.3-0.6-2.2-2-2.2c-1.1,0-2.3,0.8-2.8,1.6v7.8h-1.7v-7.2c0-1.3-0.6-2.2-2-2.2c-1.1,0-2.2,0.8-2.8,1.6v7.8h-1.6v-10.6h1.6v1.5
			c0.4-0.7,1.9-1.8,3.4-1.8c1.6,0,2.6,0.9,2.9,2c0.6-1,2-2,3.6-2c1.9,0,3,1.1,3,3.2v7.7H175.9L175.9,127z M188.5,127v-1.6
			c-0.8,1.1-2.1,1.9-3.6,1.9c-2.8,0-4.7-2.1-4.7-5.6c0-3.4,1.9-5.6,4.7-5.6c1.4,0,2.7,0.7,3.6,1.9v-1.6h1.7V127H188.5L188.5,127z
			 M188.5,124.1v-4.8c-0.6-0.9-1.9-1.7-3.2-1.7c-2.1,0-3.4,1.8-3.4,4.1c0,2.4,1.3,4.1,3.4,4.1C186.7,125.7,187.9,125,188.5,124.1
			L188.5,124.1z M196.2,127.2c-1.6,0-2.4-0.9-2.4-2.5v-7h-1.8v-1.5h1.8v-2.9h1.7v2.9h2.2v1.5h-2.2v6.6c0,0.8,0.3,1.4,1.1,1.4
			c0.5,0,0.9-0.2,1.1-0.4l0.5,1.2C197.7,126.9,197.1,127.2,196.2,127.2L196.2,127.2z M199.3,121.6c0-3.1,2.2-5.6,5.2-5.6
			c3.2,0,5.1,2.5,5.1,5.7v0.4h-8.6c0.1,2,1.5,3.7,3.8,3.7c1.2,0,2.4-0.5,3.3-1.3l0.8,1.1c-1.1,1.1-2.5,1.6-4.2,1.6
			C201.6,127.2,199.3,125,199.3,121.6L199.3,121.6z M204.6,117.4c-2.3,0-3.4,1.9-3.5,3.5h7C208,119.4,207,117.4,204.6,117.4
			L204.6,117.4z M212.4,127v-14.7h5.9c3,0,4.6,2,4.6,4.4c0,2.4-1.7,4.4-4.6,4.4h-4.1v5.8H212.4L212.4,127z M221,116.7
			c0-1.7-1.2-2.8-2.9-2.8h-3.9v5.6h3.9C219.8,119.5,221,118.4,221,116.7L221,116.7z M233,127v-1.6c-0.8,1.1-2.1,1.9-3.6,1.9
			c-2.8,0-4.7-2.1-4.7-5.6c0-3.4,1.9-5.6,4.7-5.6c1.4,0,2.7,0.7,3.6,1.9v-1.6h1.7V127H233L233,127z M233,124.1v-4.8
			c-0.6-0.9-1.9-1.7-3.2-1.7c-2.1,0-3.4,1.8-3.4,4.1c0,2.4,1.3,4.1,3.4,4.1C231.1,125.7,232.4,125,233,124.1L233,124.1z M237.9,127
			v-10.6h1.6v1.7c0.9-1.1,2.1-1.9,3.5-1.9v1.7c-0.2,0-0.4-0.1-0.7-0.1c-1,0-2.4,0.8-2.9,1.7v7.5H237.9L237.9,127z M247.9,127.2
			c-1.6,0-2.4-0.9-2.4-2.5v-7h-1.8v-1.5h1.8v-2.9h1.7v2.9h2.2v1.5h-2.2v6.6c0,0.8,0.3,1.4,1.1,1.4c0.5,0,0.9-0.2,1.1-0.4l0.5,1.2
			C249.4,126.9,248.9,127.2,247.9,127.2L247.9,127.2z M258.8,127v-7c0-1.9-0.9-2.5-2.4-2.5c-1.3,0-2.5,0.8-3.2,1.6v7.8h-1.6v-10.6
			h1.6v1.5c0.7-0.9,2.2-1.8,3.8-1.8c2.2,0,3.4,1.1,3.4,3.4v7.5H258.8L258.8,127z M263.2,121.6c0-3.1,2.2-5.6,5.2-5.6
			c3.2,0,5.1,2.5,5.1,5.7v0.4h-8.6c0.1,2,1.5,3.7,3.8,3.7c1.2,0,2.4-0.5,3.3-1.3l0.8,1.1c-1.1,1.1-2.5,1.6-4.2,1.6
			C265.4,127.2,263.2,125,263.2,121.6L263.2,121.6z M268.4,117.4c-2.3,0-3.4,1.9-3.5,3.5h7C271.9,119.4,270.8,117.4,268.4,117.4
			L268.4,117.4z M276.2,127v-10.6h1.6v1.7c0.9-1.1,2.1-1.9,3.5-1.9v1.7c-0.2,0-0.4-0.1-0.7-0.1c-1,0-2.4,0.8-2.9,1.7v7.5H276.2
			L276.2,127z M283.1,126c0-0.7,0.5-1.2,1.2-1.2c0.7,0,1.2,0.5,1.2,1.2c0,0.7-0.5,1.2-1.2,1.2C283.7,127.2,283.1,126.6,283.1,126
			L283.1,126z M287.9,121.6c0-3.1,2.1-5.6,5.3-5.6c1.9,0,3.1,0.8,3.9,1.9l-1.1,1c-0.7-1-1.6-1.4-2.7-1.4c-2.3,0-3.7,1.7-3.7,4.1
			c0,2.4,1.4,4.1,3.7,4.1c1.1,0,2-0.4,2.7-1.4l1.1,1c-0.8,1.1-2,1.9-3.9,1.9C290,127.2,287.9,124.8,287.9,121.6L287.9,121.6z
			 M304.1,127.2c-3.2,0-5.3-2.5-5.3-5.6c0-3.1,2-5.6,5.3-5.6c3.2,0,5.3,2.5,5.3,5.6C309.3,124.7,307.3,127.2,304.1,127.2
			L304.1,127.2z M304.1,125.7c2.3,0,3.5-1.9,3.5-4.1c0-2.2-1.3-4.1-3.5-4.1c-2.3,0-3.5,1.9-3.5,4.1
			C300.5,123.8,301.8,125.7,304.1,125.7L304.1,125.7z M324.8,127v-7.2c0-1.3-0.6-2.2-2-2.2c-1.1,0-2.3,0.8-2.8,1.6v7.8h-1.7v-7.2
			c0-1.3-0.6-2.2-2-2.2c-1.1,0-2.2,0.8-2.8,1.6v7.8H312v-10.6h1.6v1.5c0.4-0.7,1.9-1.8,3.4-1.8c1.6,0,2.6,0.9,2.9,2c0.6-1,2-2,3.6-2
			c1.9,0,3,1.1,3,3.2v7.7H324.8L324.8,127z M328.1,127.4l5.2-15.6h1.3l-5.2,15.6H328.1L328.1,127.4z M338.6,127v-12.3l-2.4,2.5
			l-1.1-1.1l3.7-3.8h1.6V127H338.6L338.6,127z M349.8,127v-3.7h-7v-1.5l6.3-9.4h2.5v9.4h2.1v1.6h-2.1v3.7H349.8L349.8,127z
			 M349.8,114l-5.1,7.7h5.1V114L349.8,114z M357.1,127l5.9-13.1h-7.9v-1.6h10v1.3l-6,13.4H357.1L357.1,127z M367.2,124.9l1.1-1.2
			c1,1.2,2.2,1.9,4,1.9c2,0,3.4-1.4,3.4-3.1c0-1.9-1.4-3.2-3.4-3.2c-1.3,0-2.4,0.4-3.4,1.4l-1.3-0.5v-7.9h9v1.6h-7.2v5.1
			c0.7-0.7,2-1.3,3.4-1.3c2.4,0,4.7,1.7,4.7,4.7c0,3-2.3,4.8-5.2,4.8C369.9,127.2,368.3,126.3,367.2,124.9L367.2,124.9z M379.9,127
			v-1.5c5.3-4.2,8.1-6.6,8.1-9.1c0-1.9-1.5-2.7-3.1-2.7c-1.8,0-3.1,0.7-4,1.9l-1.1-1.2c1.1-1.5,3-2.3,5.1-2.3c2.4,0,4.9,1.4,4.9,4.3
			c0,3-3,5.7-7.1,9h7.2v1.6H379.9L379.9,127z M392.3,122.4v-1.5h5.3v1.5H392.3L392.3,122.4z M399.5,127v-1.5
			c5.3-4.2,8.1-6.6,8.1-9.1c0-1.9-1.5-2.7-3.1-2.7c-1.8,0-3.1,0.7-4,1.9l-1.1-1.2c1.1-1.5,3-2.3,5.1-2.3c2.4,0,4.9,1.4,4.9,4.3
			c0,3-3,5.7-7.1,9h7.2v1.6H399.5L399.5,127z M415.1,127v-12.3l-2.4,2.5l-1.1-1.1l3.7-3.8h1.6V127H415.1L415.1,127z M422.6,127
			v-12.3l-2.4,2.5l-1.1-1.1l3.7-3.8h1.6V127H422.6L422.6,127z M427.3,119.6c0-3.6,1.6-7.6,5.6-7.6c4,0,5.6,4,5.6,7.6
			c0,3.6-1.6,7.6-5.6,7.6C428.9,127.2,427.3,123.2,427.3,119.6L427.3,119.6z M436.6,119.6c0-2.9-0.9-5.9-3.7-5.9
			c-2.8,0-3.7,3-3.7,5.9s0.9,6,3.7,6C435.7,125.6,436.6,122.6,436.6,119.6L436.6,119.6z M440.3,122.4v-1.5h5.3v1.5H440.3
			L440.3,122.4z M450.1,127v-12.3l-2.4,2.5l-1.1-1.1l3.7-3.8h1.6V127H450.1L450.1,127z M454.8,119.6c0-3.6,1.6-7.6,5.6-7.6
			c4,0,5.6,4,5.6,7.6c0,3.6-1.6,7.6-5.6,7.6C456.4,127.2,454.8,123.2,454.8,119.6L454.8,119.6z M464.2,119.6c0-2.9-0.9-5.9-3.7-5.9
			c-2.8,0-3.7,3-3.7,5.9s0.9,6,3.7,6C463.2,125.6,464.2,122.6,464.2,119.6L464.2,119.6z M468.3,119.6c0-3.6,1.6-7.6,5.6-7.6
			c4,0,5.6,4,5.6,7.6c0,3.6-1.6,7.6-5.6,7.6C469.9,127.2,468.3,123.2,468.3,119.6L468.3,119.6z M477.6,119.6c0-2.9-0.9-5.9-3.7-5.9
			c-2.8,0-3.7,3-3.7,5.9s0.9,6,3.7,6C476.7,125.6,477.6,122.6,477.6,119.6L477.6,119.6z M481.8,127v-1.5c5.3-4.2,8.1-6.6,8.1-9.1
			c0-1.9-1.5-2.7-3.1-2.7c-1.8,0-3.1,0.7-4,1.9l-1.1-1.2c1.1-1.5,3-2.3,5.1-2.3c2.4,0,4.9,1.4,4.9,4.3c0,3-3,5.7-7.1,9h7.2v1.6
			H481.8L481.8,127z"/>
	</g>
</g>
    <g id="DACH" xmlns:serif="http://www.serif.com/">
	<g>
		<path class="st3-climate-neutral-certificate" d="M165.2,63l-14.7-19.6l-3.8,4.6v15h-10.4V14.4h10.4v21.7l17.2-21.7h12.8l-19.3,22.8L178,63H165.2L165.2,63
			L165.2,63z M185,54.2L185,54.2c0,6.3,3.4,9.7,9.9,9.7c3.8,0,6.3-1,7.7-2.3l-2-7.1c-0.5,0.6-1.8,1.1-3.2,1.1c-2,0-3.2-1.7-3.2-3.9
			V14.4H185V54.2L185,54.2z M208.3,18.5L208.3,18.5c0,3.1,2.5,5.5,5.5,5.5c3.1,0,5.5-2.5,5.5-5.5c0-3.1-2.5-5.5-5.5-5.5
			C210.8,13,208.3,15.4,208.3,18.5L208.3,18.5z M209.2,63L209.2,63h9.3V27.8h-9.3V63L209.2,63z M273.8,63L273.8,63h9.3V37.6
			c0-7.2-3.9-10.7-10.4-10.7c-5.4,0-10.1,3.2-12.1,6.3c-1.2-3.9-4.6-6.3-9.8-6.3c-5.4,0-10,3.4-11.5,5.4v-4.5h-9.3V63h9.3V39.3
			c1.4-1.9,4.1-4.1,7.3-4.1c3.8,0,5.3,2.3,5.3,5.6V63h9.3V39.3c1.3-1.9,4-4.1,7.3-4.1c3.8,0,5.3,2.3,5.3,5.6V63L273.8,63z M319.1,63
			L319.1,63h9.3V27.8h-9.3v4.5c-2.8-3.6-6.7-5.4-10.9-5.4c-9,0-15.6,7-15.6,18.5c0,11.8,6.8,18.5,15.6,18.5c4.3,0,8.1-1.9,10.9-5.4
			V63L319.1,63z M319.1,51.7L319.1,51.7c-1.5,2.3-4.9,4-8,4c-5.3,0-9-4.2-9-10.3c0-6.1,3.6-10.2,9-10.2c3.1,0,6.4,1.8,8,4.1V51.7
			L319.1,51.7z M363.9,63L363.9,63h9.3V38.2c0-6.9-3.7-11.2-11.5-11.2c-5.7,0-10.1,2.8-12.3,5.4v-4.5h-9.3V63h9.3V39.3
			c1.6-2,4.4-4.1,8-4.1c3.9,0,6.5,1.7,6.5,6.6V63L363.9,63z M382.5,45.4L382.5,45.4c0,11.3,8.1,18.5,18.8,18.5
			c5.5,0,11-1.7,14.5-4.9l-4.2-6.1c-2.3,2.2-6.3,3.4-9.3,3.4c-6,0-9.5-3.6-10.1-7.9h26.2v-2.2c0-11.5-7.1-19.3-17.7-19.3
			C390.1,26.9,382.5,35.2,382.5,45.4L382.5,45.4z M400.8,34.5L400.8,34.5c6.1,0,8.5,4.2,8.8,7.5h-17.4
			C392.5,38.5,395,34.5,400.8,34.5L400.8,34.5z M451.4,63L451.4,63h9.3V27.8h-9.3v23.9c-1.6,2-4.4,4-8,4c-3.9,0-6.5-1.6-6.5-6.5
			V27.8h-9.3v25c0,6.9,3.6,11.1,11.4,11.1c5.8,0,10-2.7,12.4-5.3V63L451.4,63z M474.2,54.2L474.2,54.2c0,6.3,3.4,9.7,9.9,9.7
			c3.9,0,6.3-1,7.7-2.3l-2-7.1c-0.5,0.6-1.8,1.1-3.2,1.1c-2,0-3.2-1.7-3.2-3.9V35.9h7.1v-8.1h-7.1v-9.6h-9.3v9.6h-5.8v8.1h5.8V54.2
			L474.2,54.2z M499.5,63L499.5,63h9.3V39.8c1.5-2.3,5.6-4,8.7-4c1.1,0,1.9,0.1,2.6,0.2v-9c-4.4,0-8.7,2.6-11.2,5.6v-4.7h-9.3V63
			L499.5,63z M552.4,63L552.4,63h9.3V27.8h-9.3v4.5c-2.8-3.6-6.7-5.4-10.9-5.4c-9,0-15.6,7-15.6,18.5c0,11.8,6.8,18.5,15.6,18.5
			c4.3,0,8.1-1.9,10.9-5.4V63L552.4,63z M552.4,51.7L552.4,51.7c-1.5,2.3-4.9,4-8,4c-5.3,0-9-4.2-9-10.3c0-6.1,3.6-10.2,9-10.2
			c3.1,0,6.4,1.8,8,4.1V51.7L552.4,51.7z M573.5,54.2L573.5,54.2c0,6.3,3.4,9.7,9.9,9.7c3.8,0,6.3-1,7.7-2.3l-2-7.1
			c-0.5,0.6-1.8,1.1-3.2,1.1c-2,0-3.2-1.7-3.2-3.9V14.4h-9.3V54.2L573.5,54.2z M33,90.2C21.9,82.7,14.6,70,14.6,55.8
			c0-22.9,18.8-41.6,42-41.6c3.2,0,6.3,0.4,9.3,1L71.6,2c-4.8-1.3-9.9-2-15.1-2C25.5,0,0.3,25,0.3,55.8c0,20.1,10.8,37.7,26.9,47.5
			L33,90.2L33,90.2L33,90.2z M57.6,111.5c30.6-0.6,55.3-25.3,55.3-55.7c0-20.1-10.8-37.7-26.9-47.5l-5.8,13.1
			c11.1,7.5,18.4,20.1,18.4,34.4c0,22.9-18.8,41.6-42,41.6c-3.2,0-6.3-0.4-9.3-1l-14,31.8h17L57.6,111.5L57.6,111.5L57.6,111.5z
			 M326.7,97.1L326.7,97.1v-9.7c0-2.4-1.2-3.2-3.1-3.2c-1.7,0-3.2,1-4,2.1v10.9h-3.4V81.5h3.4v2.1c1-1.2,3-2.5,5.5-2.5
			c3.3,0,5,1.8,5,5v11H326.7L326.7,97.1z M305.2,83.9L305.2,83.9c-2.9,0-4.2,2.2-4.4,4.1h8.8C309.5,86.2,308.3,83.9,305.2,83.9
			L305.2,83.9z M297.3,89.3L297.3,89.3c0-4.5,3.3-8.1,7.9-8.1c4.7,0,7.7,3.6,7.7,8.5v0.8h-12c0.3,2.4,2,4.3,5,4.3
			c1.5,0,3.3-0.6,4.4-1.7l1.5,2.2c-1.5,1.5-3.8,2.3-6.3,2.3C300.8,97.5,297.3,94.2,297.3,89.3L297.3,89.3z M290.5,97.1L290.5,97.1
			V86.9c0-1.7-0.7-2.8-2.5-2.8c-1.5,0-2.9,1.1-3.6,2.1v10.9H281V86.9c0-1.7-0.7-2.8-2.6-2.8c-1.5,0-2.9,1.1-3.6,2.1v10.9h-3.4V81.5
			h3.4v2.1c0.6-1,2.7-2.5,5.1-2.5c2.3,0,3.7,1.2,4.3,2.9c0.9-1.4,3-2.9,5.3-2.9c2.9,0,4.5,1.5,4.5,4.7v11.2H290.5L290.5,97.1z
			 M263.7,97.1L263.7,97.1v-9.8c0-2.4-1.3-3.2-3.2-3.2c-1.7,0-3.2,1-4,2.1v10.9h-3.4V75.6h3.4v8.1c1-1.2,3.1-2.5,5.5-2.5
			c3.4,0,5,1.7,5,4.9v11H263.7L263.7,97.1z M242.1,83.9L242.1,83.9c-2.9,0-4.2,2.2-4.4,4.1h8.8C246.4,86.2,245.2,83.9,242.1,83.9
			L242.1,83.9z M234.2,89.3L234.2,89.3c0-4.5,3.3-8.1,7.9-8.1c4.7,0,7.7,3.6,7.7,8.5v0.8h-12c0.3,2.4,2,4.3,5,4.3
			c1.5,0,3.3-0.6,4.4-1.7l1.5,2.2c-1.5,1.5-3.8,2.3-6.3,2.3C237.7,97.5,234.2,94.2,234.2,89.3L234.2,89.3z M227.4,97.1L227.4,97.1
			v-9.7c0-2.4-1.2-3.2-3.1-3.2c-1.7,0-3.2,1-4,2.1v10.9h-3.4V81.5h3.4v2.1c1-1.2,3-2.5,5.5-2.5c3.3,0,5,1.8,5,5v11H227.4L227.4,97.1
			z M205.7,97.1L205.7,97.1V81.5h3.4v2.3c1.2-1.5,3-2.6,5.1-2.6v3.3c-0.3-0.1-0.6-0.1-1.1-0.1c-1.4,0-3.3,1-4,2.1v10.6H205.7
			L205.7,97.1z M194.7,83.9L194.7,83.9c-2.9,0-4.2,2.2-4.4,4.1h8.8C199,86.2,197.8,83.9,194.7,83.9L194.7,83.9z M186.8,89.3
			L186.8,89.3c0-4.5,3.3-8.1,7.9-8.1c4.7,0,7.7,3.6,7.7,8.5v0.8h-12c0.3,2.4,2,4.3,5,4.3c1.5,0,3.3-0.6,4.4-1.7l1.5,2.2
			c-1.5,1.5-3.8,2.3-6.3,2.3C190.3,97.5,186.8,94.2,186.8,89.3L186.8,89.3z M182.1,97.5L182.1,97.5c-2.6,0-4-1.4-4-4v-9h-2.6v-3h2.6
			v-4.3h3.4v4.3h3.2v3h-3.2v8.2c0,1.1,0.5,1.8,1.5,1.8c0.6,0,1.3-0.3,1.5-0.6l0.8,2.5C184.7,97,183.7,97.5,182.1,97.5L182.1,97.5z
			 M169.7,97.1L169.7,97.1v-9.7c0-2.4-1.2-3.2-3.1-3.2c-1.7,0-3.2,1-4,2.1v10.9h-3.4V81.5h3.4v2.1c1-1.2,3-2.5,5.5-2.5
			c3.3,0,5,1.8,5,5v11H169.7L169.7,97.1z M136.1,88.6L136.1,88.6v-13h3.8v12.9c0,3.4,1.9,5.6,5.5,5.6c3.6,0,5.5-2.2,5.5-5.6V75.6
			h3.8v13c0,5.3-3.1,8.9-9.3,8.9C139.2,97.5,136.1,93.9,136.1,88.6L136.1,88.6z M483,127.4L483,127.4v-1.5c5.3-4.2,8.2-6.6,8.2-9.2
			c0-1.9-1.6-2.7-3.1-2.7c-1.8,0-3.1,0.8-4,1.9l-1.1-1.2c1.1-1.5,3.1-2.3,5.1-2.3c2.5,0,5,1.4,5,4.3c0,3-3.1,5.8-7.2,9h7.2v1.6H483
			L483,127.4z M478.8,120L478.8,120c0-2.9-0.9-6-3.8-6c-2.8,0-3.8,3-3.8,6c0,2.9,1,6,3.8,6C477.9,126,478.8,122.9,478.8,120
			L478.8,120z M469.4,120L469.4,120c0-3.6,1.6-7.6,5.6-7.6c4,0,5.6,4,5.6,7.6c0,3.6-1.6,7.6-5.6,7.6
			C471,127.6,469.4,123.6,469.4,120L469.4,120z M465.3,120L465.3,120c0-2.9-0.9-6-3.8-6c-2.8,0-3.8,3-3.8,6c0,2.9,1,6,3.8,6
			C464.3,126,465.3,122.9,465.3,120L465.3,120z M455.9,120L455.9,120c0-3.6,1.6-7.6,5.6-7.6c4,0,5.6,4,5.6,7.6
			c0,3.6-1.6,7.6-5.6,7.6C457.5,127.6,455.9,123.6,455.9,120L455.9,120z M451.2,127.4L451.2,127.4V115l-2.4,2.5l-1.1-1.1l3.7-3.8
			h1.6v14.8H451.2L451.2,127.4z M441.3,122.7L441.3,122.7v-1.5h5.3v1.5H441.3L441.3,122.7z M437.6,120L437.6,120c0-2.9-0.9-6-3.8-6
			c-2.8,0-3.8,3-3.8,6c0,2.9,1,6,3.8,6C436.7,126,437.6,122.9,437.6,120L437.6,120z M428.2,120L428.2,120c0-3.6,1.6-7.6,5.6-7.6
			c4,0,5.6,4,5.6,7.6c0,3.6-1.6,7.6-5.6,7.6C429.8,127.6,428.2,123.6,428.2,120L428.2,120z M423.5,127.4L423.5,127.4V115l-2.4,2.5
			l-1.1-1.1l3.7-3.8h1.6v14.8H423.5L423.5,127.4z M416,127.4L416,127.4V115l-2.4,2.5l-1.1-1.1l3.7-3.8h1.6v14.8H416L416,127.4z
			 M400.2,127.4L400.2,127.4v-1.5c5.3-4.2,8.2-6.6,8.2-9.2c0-1.9-1.6-2.7-3.1-2.7c-1.8,0-3.1,0.8-4,1.9l-1.1-1.2
			c1.1-1.5,3.1-2.3,5.1-2.3c2.5,0,5,1.4,5,4.3c0,3-3.1,5.8-7.2,9h7.2v1.6H400.2L400.2,127.4z M393.1,122.7L393.1,122.7v-1.5h5.3v1.5
			H393.1L393.1,122.7z M380.6,127.4L380.6,127.4v-1.5c5.3-4.2,8.2-6.6,8.2-9.2c0-1.9-1.6-2.7-3.1-2.7c-1.8,0-3.1,0.8-4,1.9l-1.1-1.2
			c1.1-1.5,3.1-2.3,5.1-2.3c2.5,0,5,1.4,5,4.3c0,3-3.1,5.8-7.2,9h7.2v1.6H380.6L380.6,127.4z M367.8,125.3L367.8,125.3l1.1-1.2
			c1,1.2,2.3,1.9,4.1,1.9c2,0,3.4-1.4,3.4-3.2c0-1.9-1.4-3.2-3.4-3.2c-1.3,0-2.4,0.4-3.4,1.4l-1.4-0.5v-8h9v1.6h-7.2v5.1
			c0.7-0.7,2-1.3,3.5-1.3c2.5,0,4.7,1.7,4.7,4.7c0,3-2.3,4.9-5.2,4.9C370.5,127.6,368.9,126.7,367.8,125.3L367.8,125.3z
			 M357.6,127.4L357.6,127.4l6-13.1h-7.9v-1.6h10.1v1.3l-6,13.5H357.6L357.6,127.4z M350.3,114.3L350.3,114.3l-5.2,7.7h5.2V114.3
			L350.3,114.3z M350.3,127.4L350.3,127.4v-3.7h-7v-1.5l6.3-9.5h2.5v9.4h2.1v1.6h-2.1v3.7H350.3L350.3,127.4z M339,127.4L339,127.4
			V115l-2.4,2.5l-1.1-1.1l3.7-3.8h1.6v14.8H339L339,127.4z M328.5,127.8L328.5,127.8l5.2-15.6h1.3l-5.2,15.6H328.5L328.5,127.8z
			 M325.2,127.4L325.2,127.4v-7.3c0-1.3-0.6-2.2-2-2.2c-1.1,0-2.3,0.8-2.8,1.6v7.8h-1.7v-7.3c0-1.3-0.6-2.2-2-2.2
			c-1.1,0-2.2,0.8-2.8,1.7v7.8h-1.7v-10.7h1.7v1.5c0.4-0.7,1.9-1.8,3.5-1.8c1.6,0,2.6,0.9,2.9,2c0.6-1,2-2,3.6-2c1.9,0,3,1.1,3,3.2
			v7.7H325.2L325.2,127.4z M304.3,126.1L304.3,126.1c2.3,0,3.5-1.9,3.5-4.1c0-2.2-1.3-4.1-3.5-4.1c-2.3,0-3.6,1.9-3.6,4.1
			C300.8,124.2,302,126.1,304.3,126.1L304.3,126.1z M304.3,127.6L304.3,127.6c-3.3,0-5.3-2.5-5.3-5.6c0-3.1,2-5.6,5.3-5.6
			c3.3,0,5.3,2.5,5.3,5.6C309.6,125.1,307.6,127.6,304.3,127.6L304.3,127.6z M288.1,122L288.1,122c0-3.2,2.1-5.6,5.3-5.6
			c1.9,0,3.1,0.8,3.9,1.9l-1.1,1c-0.7-1-1.6-1.4-2.7-1.4c-2.3,0-3.7,1.7-3.7,4.1c0,2.4,1.4,4.1,3.7,4.1c1.1,0,2-0.4,2.7-1.4l1.1,1
			c-0.8,1.1-2,1.9-3.9,1.9C290.2,127.6,288.1,125.2,288.1,122L288.1,122z M283.3,126.4L283.3,126.4c0-0.7,0.6-1.2,1.2-1.2
			c0.7,0,1.2,0.6,1.2,1.2c0,0.7-0.6,1.2-1.2,1.2C283.8,127.6,283.3,127,283.3,126.4L283.3,126.4z M276.3,127.4L276.3,127.4v-10.7
			h1.7v1.7c0.9-1.1,2.1-1.9,3.6-1.9v1.7c-0.2,0-0.4-0.1-0.7-0.1c-1,0-2.4,0.8-2.9,1.7v7.6H276.3L276.3,127.4z M268.5,117.8
			L268.5,117.8c-2.3,0-3.4,1.9-3.5,3.6h7C272,119.7,270.9,117.8,268.5,117.8L268.5,117.8z M263.2,122L263.2,122
			c0-3.1,2.2-5.6,5.3-5.6c3.2,0,5.1,2.5,5.1,5.7v0.4H265c0.1,2,1.5,3.7,3.8,3.7c1.2,0,2.5-0.5,3.3-1.4l0.8,1.1
			c-1.1,1.1-2.5,1.6-4.2,1.6C265.5,127.6,263.2,125.3,263.2,122L263.2,122z M258.9,127.4L258.9,127.4v-7c0-1.9-1-2.5-2.4-2.5
			c-1.3,0-2.5,0.8-3.2,1.7v7.8h-1.7v-10.7h1.7v1.5c0.8-0.9,2.2-1.8,3.8-1.8c2.2,0,3.4,1.1,3.4,3.5v7.5H258.9L258.9,127.4z
			 M247.8,127.6L247.8,127.6c-1.6,0-2.4-0.9-2.4-2.5v-7h-1.8v-1.5h1.8v-2.9h1.7v2.9h2.2v1.5h-2.2v6.6c0,0.8,0.4,1.4,1.1,1.4
			c0.5,0,0.9-0.2,1.1-0.4l0.5,1.2C249.4,127.3,248.8,127.6,247.8,127.6L247.8,127.6z M237.8,127.4L237.8,127.4v-10.7h1.7v1.7
			c0.9-1.1,2.1-1.9,3.6-1.9v1.7c-0.2,0-0.4-0.1-0.7-0.1c-1,0-2.4,0.8-2.9,1.7v7.6H237.8L237.8,127.4z M232.9,124.5L232.9,124.5v-4.8
			c-0.6-0.9-1.9-1.7-3.2-1.7c-2.1,0-3.4,1.8-3.4,4.1c0,2.4,1.3,4.1,3.4,4.1C231,126.1,232.3,125.4,232.9,124.5L232.9,124.5z
			 M232.9,127.4L232.9,127.4v-1.6c-0.8,1.1-2.1,1.9-3.6,1.9c-2.8,0-4.8-2.1-4.8-5.6c0-3.4,1.9-5.6,4.8-5.6c1.4,0,2.7,0.7,3.6,1.9
			v-1.6h1.7v10.7H232.9L232.9,127.4z M220.8,117L220.8,117c0-1.7-1.2-2.8-2.9-2.8H214v5.6h3.9C219.6,119.9,220.8,118.7,220.8,117
			L220.8,117z M212.2,127.4L212.2,127.4v-14.8h5.9c3,0,4.6,2,4.6,4.4c0,2.4-1.7,4.4-4.6,4.4H214v5.9H212.2L212.2,127.4z
			 M204.3,117.8L204.3,117.8c-2.3,0-3.4,1.9-3.5,3.6h7C207.8,119.7,206.7,117.8,204.3,117.8L204.3,117.8z M199,122L199,122
			c0-3.1,2.2-5.6,5.3-5.6c3.2,0,5.1,2.5,5.1,5.7v0.4h-8.7c0.1,2,1.5,3.7,3.8,3.7c1.2,0,2.5-0.5,3.3-1.4l0.8,1.1
			c-1.1,1.1-2.5,1.6-4.2,1.6C201.3,127.6,199,125.3,199,122L199,122z M195.9,127.6L195.9,127.6c-1.6,0-2.4-0.9-2.4-2.5v-7h-1.8v-1.5
			h1.8v-2.9h1.7v2.9h2.2v1.5h-2.2v6.6c0,0.8,0.4,1.4,1.1,1.4c0.5,0,0.9-0.2,1.1-0.4l0.5,1.2C197.4,127.3,196.8,127.6,195.9,127.6
			L195.9,127.6z M188.2,124.5L188.2,124.5v-4.8c-0.6-0.9-1.9-1.7-3.2-1.7c-2.1,0-3.4,1.8-3.4,4.1c0,2.4,1.3,4.1,3.4,4.1
			C186.3,126.1,187.6,125.4,188.2,124.5L188.2,124.5z M188.2,127.4L188.2,127.4v-1.6c-0.8,1.1-2.1,1.9-3.6,1.9
			c-2.8,0-4.8-2.1-4.8-5.6c0-3.4,1.9-5.6,4.8-5.6c1.4,0,2.7,0.7,3.6,1.9v-1.6h1.7v10.7H188.2L188.2,127.4z M175.4,127.4L175.4,127.4
			v-7.3c0-1.3-0.6-2.2-2-2.2c-1.1,0-2.3,0.8-2.8,1.6v7.8H169v-7.3c0-1.3-0.6-2.2-2-2.2c-1.1,0-2.2,0.8-2.8,1.7v7.8h-1.7v-10.7h1.7
			v1.5c0.4-0.7,1.9-1.8,3.5-1.8c1.6,0,2.6,0.9,2.9,2c0.6-1,2-2,3.6-2c1.9,0,3,1.1,3,3.2v7.7H175.4L175.4,127.4z M157.6,127.4
			L157.6,127.4v-10.7h1.7v10.7H157.6L157.6,127.4z M158.4,114.9L158.4,114.9c-0.6,0-1.1-0.5-1.1-1.1c0-0.6,0.5-1.1,1.1-1.1
			c0.6,0,1.1,0.5,1.1,1.1C159.5,114.4,159,114.9,158.4,114.9L158.4,114.9z M154,127.6L154,127.6c-1.6,0-2.4-0.9-2.4-2.5v-12.5h1.7
			v12.2c0,0.8,0.4,1.4,1.1,1.4c0.5,0,0.9-0.2,1.1-0.4l0.5,1.2C155.5,127.3,155,127.6,154,127.6L154,127.6z M143.7,127.6L143.7,127.6
			c-4.2,0-7.5-3.1-7.5-7.6c0-4.5,3.3-7.6,7.5-7.6c2.7,0,4.5,1.3,5.7,2.9l-1.5,0.9c-0.8-1.2-2.4-2.1-4.1-2.1c-3.2,0-5.6,2.5-5.6,6
			c0,3.5,2.5,6,5.6,6c1.8,0,3.3-0.9,4.1-2.1l1.6,0.9C148.1,126.4,146.3,127.6,143.7,127.6L143.7,127.6z"/>
        <path class="st2-climate-neutral-certificate" d="M82.2,55.8c0,14-11.5,25.3-25.6,25.3C42.4,81.1,31,69.7,31,55.8c0-14,11.5-25.3,25.6-25.3
			C70.7,30.4,82.2,41.8,82.2,55.8"/>
	</g>
</g>
</svg>
