<?xml version="1.0" encoding="utf-8"?>
<!-- Generator: Adobe Illustrator 24.0.2, SVG Export Plug-In . SVG Version: 6.00 Build 0)  -->
<svg version="1.1" id="Layer_1" xmlns="http://www.w3.org/2000/svg" xmlns:xlink="http://www.w3.org/1999/xlink" x="0px" y="0px"
	 viewBox="0 0 109.8 56.1" style="enable-background:new 0 0 109.8 56.1;" xml:space="preserve">
<style type="text/css">
	.st0{fill-rule:evenodd;clip-rule:evenodd;fill:#FFFFFE;}
	.st1{fill-rule:evenodd;clip-rule:evenodd;fill:#D9262A;}
	.st2{fill-rule:evenodd;clip-rule:evenodd;fill:#004A86;}
	.st3{filter:url(#Adobe_OpacityMaskFilter);}
	.st4{fill-rule:evenodd;clip-rule:evenodd;fill:#FFFFFF;}
	.st5{mask:url(#mask-2_1_);fill-rule:evenodd;clip-rule:evenodd;fill:#004A86;}
	.st6{filter:url(#Adobe_OpacityMaskFilter_1_);}
	.st7{mask:url(#mask-2_2_);fill-rule:evenodd;clip-rule:evenodd;fill:#004A86;}
</style>
<title>Artboard</title>
<desc>Created with Sketch.</desc>
<g id="Artboard">
	<g id="DERMATEST_Siegel_5Sterne_DE_CMYK" transform="translate(5.000000, 32.000000)">
		<path id="Fill-1" class="st0" d="M98-3.3c-0.4,0-0.6,0.3-0.6,0.6h1.2C98.6-3,98.4-3.3,98-3.3"/>
		<path id="Fill-2" class="st0" d="M99.1,4.2h-0.9V7h-0.7V4.2h-0.9V3.7h2.5V4.2z M96.2,7h-1.9V3.7h1.9v0.5H95V5h1.2v0.5H95v0.9h1.3
			V7z M93.9,4.2h-0.9V7h-0.7V4.2h-0.9V3.7h2.5V4.2z M89.9,7c-0.4,0-0.5,0-0.8-0.1l0.1-0.6c0.2,0.1,0.5,0.2,0.7,0.2
			c0.2,0,0.6-0.1,0.6-0.4c0-0.6-1.4-0.4-1.4-1.5c0-0.7,0.6-1,1.1-1c0.3,0,0.5,0,0.8,0.1l-0.1,0.5c-0.2-0.1-0.4-0.1-0.7-0.1
			c-0.2,0-0.5,0.1-0.5,0.5c0,0.6,1.4,0.3,1.4,1.4C91.1,6.8,90.5,7,89.9,7z M88.4,7h-1.9V3.7h1.9v0.5h-1.3V5h1.2v0.5h-1.2v0.9h1.3V7z
			 M86,4.2h-0.9V7h-0.7V4.2h-0.9V3.7H86V4.2z M83.2,7h-1.9V3.7h1.9v0.5h-1.3V5h1.2v0.5h-1.2v0.9h1.3V7z M80.6,6.9
			C80.2,7,79.8,7,79.5,7c-1.1,0-1.8-0.5-1.8-1.6c0-1.1,0.7-1.8,1.8-1.8c0.4,0,0.7,0.1,1,0.1l0,0.6c-0.3-0.1-0.6-0.2-0.8-0.2
			c-0.8,0-1.2,0.5-1.2,1.2c0,0.7,0.4,1.2,1.1,1.2c0.2,0,0.3,0,0.4,0V5.6h-0.7V5.1h1.3V6.9z M75.8,7h-0.7V5.6h-1.3V7h-0.7V3.7h0.7V5
			h1.3V3.7h0.7V7z M71.9,7c-1.1,0-1.8-0.5-1.8-1.6c0-1.1,0.7-1.8,1.8-1.8c0.2,0,0.5,0,0.7,0.1l0,0.6c-0.2-0.1-0.5-0.2-0.7-0.2
			c-0.7,0-1.1,0.5-1.1,1.2c0,0.7,0.4,1.2,1.1,1.2c0.3,0,0.6-0.1,0.7-0.1l0,0.5C72.4,7,72.2,7,71.9,7z M68.5,7c-0.4,0-0.5,0-0.8-0.1
			l0.1-0.6c0.2,0.1,0.5,0.2,0.7,0.2c0.2,0,0.6-0.1,0.6-0.4c0-0.6-1.4-0.4-1.4-1.5c0-0.7,0.6-1,1.1-1c0.3,0,0.5,0,0.8,0.1l-0.1,0.5
			c-0.2-0.1-0.4-0.1-0.7-0.1c-0.2,0-0.5,0.1-0.5,0.5c0,0.6,1.4,0.3,1.4,1.4C69.7,6.8,69.1,7,68.5,7z M66.3,7H67V3.7h-0.7V7z M65.6,7
			h-0.8l-1.3-2.5h0V7h-0.6V3.7h0.8L65,6.2h0V3.7h0.6V7z M61.6,7h0.7V3.7h-0.7V7z M61.3,7h-1.9V3.7H60v2.8h1.3V7z M58,7l-1.2-1.5h0V7
			h-0.7V3.7h0.7v1.4L58,3.7h0.8l-1.3,1.5L58.9,7H58z M104,2.1H50.5c-0.5,2.3-1.3,4.5-2.3,6.5H104V2.1z"/>
		<path id="Fill-3" class="st0" d="M71.2-2.6h1.2c0-0.4-0.2-0.6-0.6-0.6C71.4-3.3,71.2-2.9,71.2-2.6"/>
		<path id="Fill-4" class="st0" d="M58.5-11.3l1-2.7l1,2.7l2.9,0.1l-2.3,1.8l0.8,2.8l-2.4-1.7l-2.4,1.7l0.8-2.8l-2.1-1.8L58.5-11.3z
			 M64.7-3.6c0.8,0,1,0.6,1,1.3h-1.7c0,0.5,0.4,0.8,0.8,0.8c0.3,0,0.6-0.1,0.7-0.2v0.4c-0.2,0.1-0.4,0.2-0.7,0.2
			c-0.8,0-1.2-0.5-1.2-1.3C63.6-3.1,64.1-3.6,64.7-3.6z M67.6-11.3l1-2.7l1,2.7l2.9,0.1l-2.3,1.8l0.8,2.8l-2.4-1.7l-2.4,1.7L67-9.5
			l-2.3-1.8L67.6-11.3z M72.9-2.3h-1.7c0,0.5,0.4,0.8,0.8,0.8c0.3,0,0.6-0.1,0.7-0.2v0.4c-0.2,0.1-0.4,0.2-0.7,0.2
			c-0.8,0-1.2-0.5-1.2-1.3c0-0.7,0.4-1.2,1.1-1.2C72.6-3.6,72.9-3.1,72.9-2.3z M73.3-2.3h1.2v-0.3h-1.2V-2.3z M76.6-11.3l1-2.7
			l1,2.7l2.9,0.1l-2.3,1.8L80-6.7l-2.4-1.7l-2.4,1.7L76-9.5l-2.3-1.8L76.6-11.3z M81.6-3.2c-0.1,0-0.2,0-0.2,0
			c-0.4,0-0.6,0.4-0.6,0.9v1.1h-0.4v-2.3h0.4v0.4h0c0.1-0.2,0.4-0.4,0.6-0.4c0.1,0,0.2,0,0.3,0V-3.2z M83-2.7c0.2,0,0.3,0,0.5,0
			c0-0.4-0.1-0.6-0.6-0.6c-0.2,0-0.5,0.1-0.7,0.2l0-0.4c0.2-0.1,0.5-0.2,0.8-0.2c0.7,0,0.9,0.3,0.9,1v1c0,0.3,0,0.4,0,0.5h-0.4v-0.3
			h0c-0.1,0.1-0.3,0.4-0.7,0.4c-0.5,0-0.9-0.2-0.9-0.7C81.9-2.5,82.6-2.7,83-2.7z M85.7-11.3l1-2.7l1,2.7l2.9,0.1l-2.3,1.8L89-6.7
			l-2.4-1.7l-2.4,1.7l0.8-2.8l-2.3-1.8L85.7-11.3z M91.4-3.6c0.8,0,1,0.6,1,1.3h-1.7c0,0.5,0.4,0.8,0.8,0.8c0.3,0,0.6-0.1,0.7-0.2
			v0.4c-0.2,0.1-0.4,0.2-0.7,0.2c-0.8,0-1.2-0.5-1.2-1.3C90.3-3.1,90.8-3.6,91.4-3.6z M94.7-11.3l1-2.7l1,2.7l2.9,0.1l-2.3,1.8
			l0.8,2.8l-2.4-1.7l-2.4,1.7l0.8-2.8l-2.3-1.8L94.7-11.3z M98.2-1.5c0.3,0,0.6-0.1,0.7-0.2v0.4c-0.2,0.1-0.4,0.2-0.7,0.2
			c-0.8,0-1.2-0.5-1.2-1.3c0-0.7,0.4-1.2,1.1-1.2c0.8,0,1,0.6,1,1.3h-1.7C97.4-1.8,97.7-1.5,98.2-1.5z M96.3-1.2h-0.4v-0.3h0
			c-0.1,0.2-0.4,0.4-0.8,0.4c-0.7,0-1-0.6-1-1.3c0-0.6,0.3-1.2,1-1.2c0.4,0,0.6,0.2,0.8,0.4h0v-1.4h0.4V-1.2z M93-1.2h0.5v-0.5H93
			V-1.2z M89.2-4.1h0.5v-0.5h-0.5V-4.1z M89.3-1.2h0.4v-2.3h-0.4V-1.2z M88.7-1.2c-0.1,0-0.2,0.1-0.4,0.1c-0.4,0-0.7-0.2-0.7-0.7
			v-1.4h-0.5v-0.3h0.5v-0.5L88-4.2v0.7h0.6v0.3H88v1.3c0,0.3,0.2,0.4,0.4,0.4c0.1,0,0.2,0,0.3-0.1V-1.2z M86.7-1.2h-0.4v-1.2
			c0-0.5-0.1-0.8-0.5-0.8c-0.5,0-0.7,0.4-0.7,1v1.1h-0.4v-2.3H85v0.4h0c0.1-0.3,0.4-0.4,0.8-0.4c0.6,0,0.9,0.4,0.9,1V-1.2z
			 M79.2-1.2v-0.3h0c-0.1,0.1-0.3,0.4-0.7,0.4c-0.5,0-0.9-0.2-0.9-0.7c0-0.6,0.6-0.8,1.1-0.8c0.2,0,0.3,0,0.5,0
			c0-0.4-0.1-0.6-0.6-0.6c-0.2,0-0.5,0.1-0.7,0.2l0-0.4c0.2-0.1,0.5-0.2,0.8-0.2c0.7,0,0.9,0.3,0.9,1v1c0,0.3,0,0.4,0,0.5H79.2z
			 M77-1.3c0,0.7-0.4,1.1-1.2,1.1c-0.2,0-0.5,0-0.8-0.2l0-0.4c0.3,0.2,0.5,0.2,0.8,0.2c0.5,0,0.7-0.3,0.7-0.8v-0.2h0
			c-0.2,0.2-0.5,0.4-0.8,0.4c-0.7,0-1-0.5-1-1.1c0-0.6,0.3-1.2,1-1.2c0.4,0,0.6,0.2,0.8,0.4h0v-0.3H77V-1.3z M70.2-1.2h-0.4v-1.2
			c0-0.5-0.1-0.8-0.5-0.8c-0.5,0-0.7,0.4-0.7,1v1.1h-0.4v-2.3h0.4v0.4h0c0.1-0.3,0.4-0.4,0.8-0.4c0.6,0,0.9,0.4,0.9,1V-1.2z
			 M67.6-3.2c-0.1,0-0.2,0-0.2,0c-0.4,0-0.6,0.4-0.6,0.9v1.1h-0.4v-2.3h0.4v0.4h0c0.1-0.2,0.4-0.4,0.6-0.4c0.1,0,0.2,0,0.3,0V-3.2z
			 M63.3-1.2c-0.1,0-0.2,0.1-0.4,0.1c-0.4,0-0.7-0.2-0.7-0.7v-1.4h-0.5v-0.3h0.5v-0.5l0.4-0.1v0.7h0.6v0.3h-0.6v1.3
			c0,0.3,0.2,0.4,0.4,0.4c0.1,0,0.2,0,0.3-0.1V-1.2z M60.7-1.2c-0.2,0-0.4,0-0.6-0.1l0-0.4c0.2,0.1,0.4,0.2,0.5,0.2
			c0.2,0,0.4-0.1,0.4-0.3c0-0.4-1-0.4-1-1c0-0.5,0.4-0.7,0.8-0.7c0.2,0,0.4,0,0.5,0.1l0,0.4c-0.1-0.1-0.4-0.1-0.5-0.1
			c-0.2,0-0.4,0.1-0.4,0.3c0,0.5,1,0.3,1,1.1C61.5-1.4,61.1-1.2,60.7-1.2z M58.5-2.3h1.2v-0.3h-1.2V-2.3z M56.8-1.2
			c-0.3,0-0.6-0.1-0.7-0.1l0-0.4c0.2,0.1,0.4,0.2,0.7,0.2c0.4,0,0.7-0.2,0.7-0.6c0-0.5-0.3-0.7-0.8-0.7c-0.3,0-0.4,0-0.6,0.1l0-1.7
			H58V-4h-1.3l0,0.9c0.1,0,0.2,0,0.4,0c0.6,0,1,0.4,1,1C58.1-1.6,57.5-1.2,56.8-1.2z M51.1-3.9c0,1.8-0.2,3.5-0.5,5.2H104V-16H48.4
			C50.1-12.4,51.1-8.3,51.1-3.9z"/>
		<path id="Fill-5" class="st0" d="M78.1-1.9c0,0.2,0.2,0.4,0.4,0.4c0.4,0,0.6-0.3,0.6-0.6v-0.2c-0.1,0-0.2,0-0.3,0
			C78.6-2.4,78.1-2.3,78.1-1.9"/>
		<path id="Fill-6" class="st0" d="M82.8-1.5c0.4,0,0.6-0.3,0.6-0.6v-0.2c-0.1,0-0.2,0-0.3,0c-0.2,0-0.8,0-0.8,0.4
			C82.4-1.7,82.6-1.5,82.8-1.5"/>
		<path id="Fill-7" class="st0" d="M75.9-3.3c-0.4,0-0.6,0.5-0.6,0.9c0,0.4,0.2,0.8,0.6,0.8c0.4,0,0.7-0.4,0.7-0.8
			C76.6-2.9,76.4-3.3,75.9-3.3"/>
		<path id="Fill-8" class="st0" d="M91.4-3.3c-0.4,0-0.6,0.3-0.6,0.6H92C92-3,91.8-3.3,91.4-3.3"/>
		<path id="Fill-9" class="st0" d="M95.2-3.3c-0.5,0-0.6,0.4-0.6,0.9c0,0.4,0.2,0.9,0.6,0.9c0.5,0,0.7-0.5,0.7-0.9
			C95.9-2.8,95.7-3.3,95.2-3.3"/>
		<path id="Fill-10" class="st0" d="M64.7-3.3c-0.4,0-0.6,0.3-0.6,0.6h1.2C65.3-3,65.1-3.3,64.7-3.3"/>
		<path id="Fill-11" class="st0" d="M24.5,18c0.2-0.2,0.2-0.6,0.2-0.9l-0.5,0c-0.5,0-1.2,0.1-1.2,0.8c0,0.4,0.3,0.5,0.7,0.5
			C24.1,18.4,24.4,18.3,24.5,18"/>
		<path id="Fill-12" class="st0" d="M10.4,11c-0.5-0.4-1-0.3-1.4,0.1l1.5,1.2C10.8,11.9,10.9,11.3,10.4,11"/>
		<path id="Fill-13" class="st0" d="M31.5,13.7c-0.5,0.3-0.6,0.8-0.4,1.4l1.7-0.9C32.5,13.7,32,13.4,31.5,13.7"/>
		<path id="Fill-14" class="st0" d="M38.4,5.5c-0.1-0.1-0.2,0-0.2,0.1l-0.1,0.1l0.2,0.1l0.1-0.2C38.4,5.6,38.5,5.5,38.4,5.5"/>
		<polyline id="Fill-15" class="st0" points="35.4,-21.8 35.4,-21.8 33.7,-20.5 34.8,-19.8 35.4,-21.8 		"/>
		<path id="Fill-16" class="st0" d="M11.2-21.6c-0.3-0.4-0.7-0.2-1.1,0.1l-0.3,0.2l0.7,0.9l0.3-0.2C11.1-20.8,11.6-21.1,11.2-21.6"
			/>
		<path id="Fill-17" class="st0" d="M38,5.5c0.1-0.2,0.3-0.3,0.5-0.2c0.2,0.1,0.2,0.2,0.1,0.4l0.5,0L39,5.9l-0.5,0l-0.1,0.1l0.4,0.2
			l-0.1,0.2l-0.9-0.5L38,5.5z M38.1,6.4c0.4,0.2,0.8,0.1,1-0.2c0.2-0.3,0.1-0.7-0.3-1c-0.4-0.2-0.8-0.1-1,0.2
			C37.6,5.7,37.7,6.1,38.1,6.4z"/>
		<path id="Fill-18" class="st0" d="M5.4,7.5c-0.5,0.4-1,1-0.5,1.6C5.3,9.6,6,9.4,6.5,9C7,8.6,7.4,7.9,7,7.4
			C6.6,6.8,5.8,7.1,5.4,7.5"/>
		<path id="Fill-19" class="st0" d="M6.5-15.5c0.7,0.5,1.5,0.7,2,0.1c0.5-0.7,0.1-1.4-0.6-1.9c-0.7-0.5-1.5-0.7-2-0.1
			C5.4-16.8,5.8-16,6.5-15.5"/>
		<path id="Fill-20" class="st0" d="M22,18c0-0.6,0.3-1,0.7-1.3s1-0.3,1.4-0.3l0.6,0c0-0.7-0.3-0.9-1-0.9c-0.5,0-0.9,0.2-1.3,0.5
			l-0.1-1c0.4-0.2,1-0.4,1.5-0.4c1.3,0,1.9,0.5,1.9,1.7l0,0.5c0,0.4,0,0.8,0.1,1.1c0,0.3,0,0.6,0.1,1l-1,0c-0.1-0.2-0.1-0.5-0.1-0.6
			l0,0c-0.2,0.5-0.8,0.8-1.3,0.8C22.8,19.3,22,18.9,22,18z M21.3,16.3l-0.6,2.6l-1.1-0.2l0.6-2.5c0.1-0.4,0.2-0.9-0.4-1.1
			c-0.7-0.2-1,0.7-1.1,1.2l-0.5,2l-1.1-0.2l0.6-2.5c0.1-0.4,0.2-0.9-0.4-1.1c-0.7-0.2-1,0.7-1.1,1.2l-0.5,2l-1.1-0.2l0.9-4.2l1,0.2
			l-0.1,0.6l0,0c0.5-0.4,1-0.5,1.4-0.4c0.6,0.1,0.9,0.4,1.1,1c0.4-0.4,1-0.6,1.5-0.4C21.4,14.6,21.5,15.3,21.3,16.3z M14.1,13.7
			c-0.8-0.4-1.3,0.6-1.6,1.1l-0.7,1.4l-1-0.5l2-3.8l0.9,0.5l-0.5,0.9l0,0c0.2-0.3,0.9-0.7,1.5-0.4c0.1,0.1,0.2,0.1,0.3,0.2l-0.5,1
			C14.5,14,14.3,13.8,14.1,13.7z M8.7,13.3c0.4,0.3,0.9,0.5,1.4,0.6l-0.6,0.7c-0.5-0.1-0.9-0.3-1.4-0.7C7.1,13,7,11.8,7.9,10.8
			c0.8-1,2-1.3,3-0.5c1.2,1,0.9,2.1-0.1,3.3l-2.3-1.9C8.1,12.2,8.2,12.9,8.7,13.3z M5.5,11.2l-0.7-0.9L5.2,10l0,0
			c-0.5,0-0.9-0.3-1.3-0.7c-0.8-1-0.2-2.1,0.7-2.8c0.9-0.7,2.1-1,2.9,0.1C7.8,7,7.9,7.5,7.8,8l0,0l2-1.5l0.7,0.9L5.5,11.2z
			 M-0.5-3.9c0-2.3,0.3-4.6,1-6.7h45.3c0.6,2.1,1,4.4,1,6.7c0,2.1-0.3,4.2-0.8,6.2H0.3C-0.2,0.3-0.5-1.8-0.5-3.9z M5.1-18
			c1-1.3,2.4-1.4,3.7-0.4c1.3,1,1.6,2.3,0.5,3.7c-1,1.3-2.4,1.4-3.7,0.4C4.3-15.4,4.1-16.7,5.1-18z M10.1-22.7
			c0.7-0.5,1.6-0.6,2.1,0.1c0.4,0.6,0.4,1.1,0,1.6l0,0c0.4-0.2,0.7,0.1,1.3,0.5l1.2,0.8l-1.2,0.8l-0.8-0.6c-0.7-0.6-1-0.6-1.4-0.3
			l-0.2,0.2l1.2,1.6l-1.1,0.8l-3-4.2L10.1-22.7z M14.7-25.2l2.1,4.7l-1.3,0.5l-2.1-4.7L14.7-25.2z M19.6-26.5c0.3-0.1,1-0.2,1.6-0.1
			l0.1,1.1c-0.5-0.2-1-0.2-1.3-0.1c-1.1,0.2-1.9,0.8-1.7,2c0.2,1,1,1.5,2,1.3c0.2,0,0.3-0.1,0.5-0.2l-0.2-1l-0.8,0.2l-0.2-1l2.1-0.4
			l0.5,2.8c-0.8,0.4-1.4,0.5-1.9,0.6c-1.3,0.3-3-0.1-3.4-2C16.6-25.2,17.8-26.2,19.6-26.5z M35.7-12.2l-0.5,0.3
			c-2.7-4.1-7.2-6.5-12.1-6.5c-4.8,0-9.3,2.4-12,6.4l-0.5-0.3c2.8-4.1,7.5-6.6,12.5-6.6C28.2-19,32.9-16.5,35.7-12.2z M23.5-26.8
			l1.4,0.1l-0.2,5.1l-1.4-0.1L23.5-26.8z M27.2-26.5l1.7,0.5l0.7,3.8l0,0l1-3.4l1.2,0.4l-1.5,4.9l-1.6-0.5l-0.7-3.9l0,0l-1,3.4
			l-1.2-0.4L27.2-26.5z M36.7-22.1l-1.3,5.4l-1.2-0.9l0.3-1.1l-1.6-1.1l-1,0.7L30.8-20l4.5-3.1L36.7-22.1z M40.6-18.4l-3.2,2.6
			l1.3,1.7l-0.8,0.6l-2.2-2.7l4-3.2L40.6-18.4z M37.6,5.3c0.3-0.5,0.8-0.6,1.3-0.4c0.5,0.3,0.6,0.8,0.4,1.3C39,6.7,38.4,6.9,38,6.6
			C37.5,6.3,37.4,5.7,37.6,5.3z M40.6,10.5c-0.5,0.7-1.3,0.8-1.9,0.2l-1.7-1.3l-0.5,0.7l-0.7-0.5L36.3,9l-0.7-0.5L36,7.4l1,0.7
			l0.6-0.8l0.7,0.5l-0.6,0.8l1.6,1.2c0.3,0.2,0.6,0.3,0.9,0c0.1-0.2,0.2-0.3,0.2-0.5L41,9.8C40.9,10.1,40.8,10.3,40.6,10.5z
			 M37,14.4c-0.3,0.3-0.7,0.5-1.1,0.7l-0.6-0.7c0.4-0.1,0.7-0.3,1-0.5c0.2-0.2,0.5-0.6,0.2-0.9c-0.6-0.6-1.6,1.1-2.7,0
			c-0.6-0.7-0.3-1.5,0.3-2.1c0.4-0.4,0.7-0.5,1-0.7l0.5,0.7c-0.3,0.1-0.6,0.3-0.9,0.5c-0.2,0.2-0.4,0.5-0.2,0.8
			c0.5,0.5,1.6-1.1,2.6,0C38.1,12.9,37.7,13.8,37,14.4z M33.4,16.9c-1.2,0.7-2.4,0.3-3-0.9c-0.6-1.1-0.5-2.3,0.7-2.9
			c1.4-0.8,2.3,0,3,1.3l-2.6,1.4c0.4,0.6,1,0.7,1.6,0.4c0.5-0.3,0.8-0.7,1-1.1l0.4,0.8C34.3,16.3,33.9,16.6,33.4,16.9z M23.1,10.6
			c5,0,9.5-2.5,12.2-6.7l0.5,0.3c-2.8,4.4-7.5,7-12.7,7c-5.2,0-9.9-2.6-12.7-7l0.5-0.3C13.5,8.1,18.1,10.6,23.1,10.6z M29.4,18.5
			c-0.8,0.2-1.4-0.2-1.7-1l-0.5-2.1l-0.8,0.2l-0.2-0.8l0.8-0.2l-0.2-0.8l1-0.6l0.3,1.2l1-0.2l0.2,0.8l-1,0.2l0.5,1.9
			c0.1,0.4,0.3,0.7,0.7,0.6c0.2-0.1,0.4-0.1,0.5-0.2l0.3,0.8C29.9,18.3,29.7,18.4,29.4,18.5z M48.9-3.9c0-6.2-2.2-11.9-5.9-16.4
			c-0.5-0.6-1.1-1.2-1.7-1.8c-4.7-4.7-11.1-7.6-18.2-7.6C8.8-29.7-2.7-18.2-2.7-3.9c0,7.1,2.9,13.6,7.6,18.2C5.4,14.9,6,15.4,6.7,16
			c4.5,3.7,10.2,5.9,16.4,5.9C37.3,21.9,48.9,10.3,48.9-3.9z"/>
		<path id="Fill-21" class="st1" d="M43.5-5.8h-1.4v4.5h-1.5v-4.5h-1.4v-1.1h4.3V-5.8z M38.6-3.4c0,1.5-1,2.2-2.5,2.2
			c-1.5,0-2.5-0.7-2.5-2.2v-3.5h1.5v3.2c0,0.7,0.2,1.4,1,1.4c0.8,0,1-0.6,1-1.4v-3.2h1.5V-3.4z M32.5-1.4c-0.9,0.2-1.7,0.3-2.2,0.3
			c-1.5,0-3.2-0.8-3.2-2.9c0-2.1,1.5-2.9,3.5-2.9c0.4,0,1.1,0,1.7,0.2l-0.1,1.2c-0.5-0.3-1-0.4-1.4-0.4c-1.2,0-2.2,0.5-2.2,1.8
			c0,1.1,0.8,1.8,1.9,1.8c0.2,0,0.4,0,0.5-0.1v-1.1h-0.9v-1.1h2.3V-1.4z M22.3-1.3l-0.3-1c-0.3-1-0.5-1.2-1.1-1.2h-0.3v2.2h-1.5
			v-5.6h2.7c1,0,1.8,0.4,1.8,1.4c0,0.7-0.4,1.2-1.1,1.4v0C23-3.9,23-3.5,23.3-2.8l0.5,1.5H22.3z M17.9-1.3h-1.5v-2.4h-1.8v2.4h-1.5
			v-5.6h1.5v2.1h1.8v-2.1h1.5V-1.3z M12-1.3H8v-5.6h3.9v1.1H9.5v1.2h2.3v1.1H9.5v1.3H12V-1.3z M4.5-1.2C4-1.2,3.4-1.2,2.9-1.4L3-2.6
			c0.4,0.2,0.9,0.4,1.5,0.4c0.5,0,0.9-0.1,0.9-0.5c0-1-2.6-0.4-2.6-2.4C2.8-6.6,4.1-7,5.2-7c0.5,0,1.1,0.1,1.4,0.2L6.6-5.6
			C6.2-5.8,5.8-5.8,5.3-5.8c-0.4,0-1,0-1,0.5C4.3-4.4,7-5,7-3C7-1.6,5.8-1.2,4.5-1.2z M46.6-3.9c0-2.3-0.3-4.6-1-6.7H0.4
			c-0.6,2.1-1,4.4-1,6.7c0,2.1,0.3,4.2,0.8,6.2h45.5C46.4,0.3,46.6-1.8,46.6-3.9z"/>
		<path id="Fill-22" class="st1" d="M21-5.8h-0.4v1.3H21c0.5,0,1.1,0,1.1-0.6C22.1-5.7,21.5-5.8,21-5.8"/>
		<path id="Fill-23" class="st0" d="M4.3-5.3c0-0.5,0.6-0.5,1-0.5c0.4,0,0.9,0.1,1.2,0.3l0.1-1.2C6.3-6.9,5.8-7,5.2-7
			C4.1-7,2.8-6.6,2.8-5.2c0,2,2.6,1.4,2.6,2.4c0,0.4-0.4,0.5-0.9,0.5C3.9-2.3,3.4-2.4,3-2.6L2.9-1.4C3.4-1.2,4-1.2,4.5-1.2
			C5.8-1.2,7-1.6,7-3C7-5,4.3-4.4,4.3-5.3"/>
		<polyline id="Fill-24" class="st0" points="9.5,-3.6 11.8,-3.6 11.8,-4.6 9.5,-4.6 9.5,-5.8 11.9,-5.8 11.9,-6.9 8,-6.9 8,-1.3 
			12,-1.3 12,-2.3 9.5,-2.3 9.5,-3.6 		"/>
		<polyline id="Fill-25" class="st0" points="16.4,-4.7 14.6,-4.7 14.6,-6.9 13.1,-6.9 13.1,-1.3 14.6,-1.3 14.6,-3.7 16.4,-3.7 
			16.4,-1.3 17.9,-1.3 17.9,-6.9 16.4,-6.9 16.4,-4.7 		"/>
		<path id="Fill-26" class="st0" d="M30.2-3.5h0.9v1.1c-0.1,0.1-0.3,0.1-0.5,0.1c-1.1,0-1.9-0.7-1.9-1.8c0-1.3,1-1.8,2.2-1.8
			c0.4,0,0.9,0.1,1.4,0.4l0.1-1.2C31.8-6.9,31-7,30.7-7c-2.1,0-3.5,0.8-3.5,2.9c0,2.1,1.7,2.9,3.2,2.9c0.5,0,1.2,0,2.2-0.3v-3.1
			h-2.3V-3.5"/>
		<path id="Fill-27" class="st0" d="M37.1-3.6c0,0.7-0.2,1.4-1,1.4c-0.8,0-1-0.6-1-1.4v-3.2h-1.5v3.5c0,1.5,1,2.2,2.5,2.2
			c1.5,0,2.5-0.7,2.5-2.2v-3.5h-1.5V-3.6"/>
		<polyline id="Fill-28" class="st0" points="39.3,-5.8 40.7,-5.8 40.7,-1.3 42.2,-1.3 42.2,-5.8 43.5,-5.8 43.5,-6.9 39.3,-6.9 
			39.3,-5.8 		"/>
		<path id="Fill-29" class="st2" d="M5.9-17.4c0.5-0.7,1.3-0.5,2,0.1c0.7,0.5,1.1,1.3,0.6,1.9c-0.5,0.7-1.3,0.4-2-0.1
			C5.8-16,5.4-16.8,5.9-17.4z M5.6-14.4c1.3,1,2.7,0.9,3.7-0.4c1-1.3,0.8-2.7-0.5-3.7c-1.3-1-2.6-0.9-3.7,0.4
			C4.1-16.7,4.3-15.4,5.6-14.4z"/>
		<path id="Fill-30" class="st2" d="M10.5-20.3l-0.7-0.9l0.3-0.2c0.4-0.3,0.9-0.5,1.1-0.1c0.3,0.5-0.1,0.8-0.5,1.1L10.5-20.3z
			 M12.3-17.9l-1.2-1.6l0.2-0.2c0.4-0.3,0.7-0.2,1.4,0.3l0.8,0.6l1.2-0.8l-1.2-0.8c-0.6-0.4-0.8-0.7-1.3-0.5l0,0
			c0.4-0.5,0.4-1.1,0-1.6c-0.5-0.7-1.4-0.6-2.1-0.1l-2,1.4l3,4.2L12.3-17.9z"/>
		<polyline id="Fill-31" class="st2" points="16.7,-20.5 14.7,-25.2 13.4,-24.6 15.5,-19.9 16.7,-20.5 		"/>
		<path id="Fill-32" class="st2" d="M20.3-21.3c0.5-0.1,1.1-0.2,1.9-0.6l-0.5-2.8l-2.1,0.4l0.2,1l0.8-0.2l0.2,1
			c-0.1,0.1-0.3,0.1-0.5,0.2c-1,0.2-1.8-0.3-2-1.3c-0.2-1.2,0.6-1.8,1.7-2c0.3-0.1,0.8-0.1,1.3,0.1l-0.1-1.1c-0.5-0.1-1.2,0-1.6,0.1
			c-1.9,0.4-3.1,1.3-2.7,3.2C17.3-21.4,19-21,20.3-21.3"/>
		<polyline id="Fill-33" class="st2" points="24.8,-26.8 23.5,-26.8 23.3,-21.7 24.6,-21.6 24.8,-26.8 		"/>
		<polyline id="Fill-34" class="st2" points="27.9,-24.6 27.9,-24.6 28.6,-20.7 30.2,-20.2 31.7,-25.1 30.5,-25.5 29.5,-22.1 
			29.5,-22.1 28.8,-26 27.2,-26.5 25.7,-21.5 26.9,-21.2 27.9,-24.6 		"/>
		<path id="Fill-35" class="st2" d="M35.4-21.8L35.4-21.8l-0.6,2l-1.1-0.7L35.4-21.8z M32-19.2l1-0.7l1.6,1.1l-0.3,1.1l1.2,0.9
			l1.3-5.4l-1.4-1L30.8-20L32-19.2z"/>
		<polyline id="Fill-36" class="st2" points="37.9,-13.6 38.7,-14.2 37.4,-15.8 40.6,-18.4 39.7,-19.5 35.7,-16.3 37.9,-13.6 		"/>
		<path id="Fill-37" class="st2" d="M6.5,9C6,9.4,5.3,9.6,4.8,9C4.4,8.5,4.9,7.8,5.4,7.5C5.8,7.1,6.6,6.8,7,7.4C7.4,7.9,7,8.6,6.5,9
			z M9.8,6.5L7.8,8l0,0c0.1-0.5,0-0.9-0.3-1.4c-0.8-1-1.9-0.8-2.9-0.1C3.7,7.2,3.1,8.3,3.9,9.3C4.3,9.7,4.7,10,5.2,10l0,0l-0.4,0.3
			l0.7,0.9l5-3.8L9.8,6.5z"/>
		<path id="Fill-38" class="st2" d="M10.4,11c0.5,0.4,0.4,0.9,0.1,1.4L9,11.1C9.4,10.7,9.9,10.6,10.4,11z M10.8,13.6
			c1-1.2,1.3-2.3,0.1-3.3c-1-0.9-2.2-0.5-3,0.5C7,11.8,7.1,13,8.2,13.9c0.5,0.4,0.9,0.6,1.4,0.7l0.6-0.7c-0.5-0.1-1-0.2-1.4-0.6
			c-0.5-0.4-0.7-1.1-0.3-1.6L10.8,13.6z"/>
		<path id="Fill-39" class="st2" d="M14.8,12.9c-0.6-0.3-1.3,0.1-1.5,0.4l0,0l0.5-0.9l-0.9-0.5l-2,3.8l1,0.5l0.7-1.4
			c0.3-0.5,0.8-1.5,1.6-1.1c0.2,0.1,0.3,0.2,0.4,0.3l0.5-1C15,13,14.9,12.9,14.8,12.9"/>
		<path id="Fill-40" class="st2" d="M20.3,14.3c-0.5-0.1-1.1,0-1.5,0.4c-0.1-0.6-0.5-0.9-1.1-1c-0.4-0.1-0.9,0-1.4,0.4l0,0l0.1-0.6
			l-1-0.2l-0.9,4.2l1.1,0.2l0.5-2c0.1-0.5,0.4-1.4,1.1-1.2c0.6,0.1,0.5,0.7,0.4,1.1l-0.6,2.5l1.1,0.2l0.5-2c0.1-0.5,0.4-1.4,1.1-1.2
			c0.6,0.1,0.5,0.7,0.4,1.1l-0.6,2.5l1.1,0.2l0.6-2.6C21.5,15.3,21.4,14.6,20.3,14.3"/>
		<path id="Fill-41" class="st2" d="M23,17.9c0-0.7,0.7-0.8,1.2-0.8l0.5,0c0,0.3,0,0.6-0.2,0.9c-0.2,0.2-0.4,0.4-0.8,0.4
			C23.4,18.4,23,18.3,23,17.9z M23.5,19.3c0.5,0,1.1-0.3,1.3-0.8l0,0c0,0.1,0,0.4,0.1,0.6l1,0c0-0.3-0.1-0.6-0.1-1
			c0-0.3,0-0.6-0.1-1.1l0-0.5c0-1.3-0.6-1.8-1.9-1.7c-0.5,0-1.1,0.2-1.5,0.4l0.1,1c0.4-0.3,0.8-0.5,1.3-0.5c0.7,0,1,0.2,1,0.9
			l-0.6,0c-0.5,0-1,0.1-1.4,0.3S21.9,17.4,22,18C22,18.9,22.8,19.3,23.5,19.3z"/>
		<path id="Fill-42" class="st1" d="M29.4,17.6c-0.4,0.1-0.6-0.2-0.7-0.6l-0.5-1.9l1-0.2L29,14l-1,0.2l-0.3-1.2l-1,0.6l0.2,0.8
			l-0.8,0.2l0.2,0.8l0.8-0.2l0.5,2.1c0.2,0.8,0.8,1.2,1.7,1c0.3-0.1,0.6-0.2,0.8-0.3l-0.3-0.8C29.8,17.4,29.6,17.5,29.4,17.6"/>
		<path id="Fill-43" class="st1" d="M31.5,13.7c0.5-0.3,1,0,1.3,0.5l-1.7,0.9C30.8,14.5,30.9,14,31.5,13.7z M33,16.1
			c-0.6,0.3-1.2,0.2-1.6-0.4l2.6-1.4c-0.7-1.3-1.6-2.1-3-1.3c-1.2,0.6-1.3,1.8-0.7,2.9c0.7,1.2,1.8,1.6,3,0.9c0.5-0.3,0.9-0.6,1.1-1
			l-0.4-0.8C33.8,15.5,33.5,15.9,33,16.1z"/>
		<path id="Fill-44" class="st1" d="M34.8,12.1c-0.2-0.3-0.1-0.6,0.2-0.8c0.3-0.3,0.5-0.4,0.9-0.5l-0.5-0.7c-0.3,0.2-0.6,0.3-1,0.7
			c-0.6,0.6-1,1.4-0.3,2.1c1,1.1,2.1-0.6,2.7,0c0.3,0.3,0,0.7-0.2,0.9c-0.3,0.3-0.6,0.4-1,0.5l0.6,0.7c0.4-0.2,0.7-0.4,1.1-0.7
			c0.7-0.6,1.1-1.5,0.4-2.2C36.4,11,35.2,12.6,34.8,12.1"/>
		<path id="Fill-45" class="st1" d="M40.1,9.8c-0.3,0.3-0.6,0.2-0.9,0l-1.6-1.2l0.6-0.8l-0.7-0.5L37,8.1l-1-0.7l-0.4,1.1L36.3,9
			l-0.5,0.7l0.7,0.5l0.5-0.7l1.7,1.3c0.7,0.5,1.4,0.5,1.9-0.2c0.2-0.3,0.3-0.5,0.4-0.7l-0.7-0.5C40.3,9.5,40.2,9.6,40.1,9.8"/>
		<path id="Fill-46" class="st2" d="M37.8,5.4c0.2-0.3,0.6-0.4,1-0.2c0.4,0.2,0.5,0.6,0.3,1c-0.2,0.3-0.6,0.4-1,0.2
			C37.7,6.1,37.6,5.7,37.8,5.4z M38,6.6c0.5,0.3,1,0.1,1.3-0.4c0.3-0.5,0.1-1-0.4-1.3c-0.5-0.3-1-0.1-1.3,0.4
			C37.4,5.7,37.5,6.3,38,6.6z"/>
		<path id="Fill-47" class="st2" d="M38.4,5.8L38.3,6l-0.2-0.2l0.1-0.2c0-0.1,0.1-0.2,0.2-0.1C38.5,5.6,38.5,5.7,38.4,5.8z
			 M38.9,6.4l-0.4-0.3L38.5,6l0.5,0l0.1-0.2l-0.6,0c0.1-0.2,0.1-0.4-0.1-0.5c-0.2-0.1-0.4,0-0.5,0.3L37.8,6l1,0.6L38.9,6.4z"/>
		<path id="Fill-48" class="st1" d="M10.6-12.4l0.5,0.3c2.7-4,7.2-6.4,12-6.4c4.9,0,9.4,2.4,12.1,6.5l0.5-0.3
			c-2.8-4.3-7.5-6.8-12.6-6.8C18.1-19,13.4-16.6,10.6-12.4"/>
		<path id="Fill-49" class="st1" d="M10.8,3.9l-0.5,0.3c2.8,4.4,7.5,7,12.7,7c5.2,0,9.9-2.6,12.7-7l-0.5-0.3
			c-2.7,4.2-7.3,6.7-12.2,6.7C18.1,10.6,13.5,8.1,10.8,3.9"/>
		<path id="Fill-50" class="st0" d="M21-4.5h-0.4v-1.3H21c0.6,0,1.1,0.1,1.1,0.6C22.1-4.6,21.4-4.5,21-4.5z M22.5-4L22.5-4
			c0.7-0.2,1.1-0.7,1.1-1.4c0-1-0.8-1.4-1.8-1.4h-2.7v5.6h1.5v-2.2h0.3c0.6,0,0.7,0.2,1.1,1.2l0.3,1h1.6l-0.5-1.5
			C23-3.5,23-3.9,22.5-4z"/>
		<polyline id="Fill-51" class="st1" points="84.2,-6.7 86.6,-8.3 89,-6.7 88.2,-9.5 90.5,-11.2 87.6,-11.3 86.6,-14.1 85.7,-11.3 
			82.8,-11.2 85.1,-9.5 84.2,-6.7 		"/>
		<polyline id="Fill-52" class="st1" points="93.3,-6.7 95.7,-8.3 98.1,-6.7 97.2,-9.5 99.6,-11.2 96.6,-11.3 95.7,-14.1 
			94.7,-11.3 91.8,-11.2 94.1,-9.5 93.3,-6.7 		"/>
		<polyline id="Fill-53" class="st1" points="75.2,-6.7 77.6,-8.3 80,-6.7 79.2,-9.5 81.5,-11.2 78.6,-11.3 77.6,-14.1 76.6,-11.3 
			73.7,-11.2 76,-9.5 75.2,-6.7 		"/>
		<polyline id="Fill-54" class="st1" points="66.1,-6.7 68.5,-8.3 70.9,-6.7 70.1,-9.5 72.4,-11.2 69.5,-11.3 68.5,-14.1 
			67.6,-11.3 64.7,-11.2 67,-9.5 66.1,-6.7 		"/>
		<polyline id="Fill-55" class="st1" points="57.1,-6.7 59.5,-8.3 61.9,-6.7 61.1,-9.5 63.4,-11.2 60.5,-11.3 59.5,-14.1 
			58.5,-11.3 55.8,-11.2 57.9,-9.5 57.1,-6.7 		"/>
		<polyline id="Fill-56" class="st2" points="58.8,3.7 58,3.7 56.9,5.1 56.9,3.7 56.2,3.7 56.2,7 56.9,7 56.9,5.5 56.9,5.5 58,7 
			58.9,7 57.5,5.3 58.8,3.7 		"/>
		<polyline id="Fill-57" class="st2" points="60,3.7 59.3,3.7 59.3,7 61.3,7 61.3,6.5 60,6.5 60,3.7 		"/>
		<polygon id="Fill-58" class="st2" points="61.6,7 62.3,7 62.3,3.7 61.6,3.7 		"/>
		<polyline id="Fill-59" class="st2" points="65,6.2 65,6.2 63.8,3.7 62.9,3.7 62.9,7 63.6,7 63.6,4.5 63.6,4.5 64.8,7 65.6,7 
			65.6,3.7 65,3.7 65,6.2 		"/>
		<polygon id="Fill-60" class="st2" points="66.3,7 67,7 67,3.7 66.3,3.7 		"/>
		<path id="Fill-61" class="st2" d="M68.3,4.6c0-0.4,0.3-0.5,0.5-0.5c0.2,0,0.5,0.1,0.7,0.1l0.1-0.5c-0.2-0.1-0.5-0.1-0.8-0.1
			c-0.6,0-1.1,0.3-1.1,1c0,1.1,1.4,0.8,1.4,1.5c0,0.3-0.3,0.4-0.6,0.4c-0.3,0-0.5-0.1-0.7-0.2l-0.1,0.6C67.9,7,68.1,7,68.5,7
			c0.7,0,1.2-0.3,1.2-1C69.7,5,68.3,5.2,68.3,4.6"/>
		<path id="Fill-62" class="st2" d="M71.9,6.5c-0.7,0-1.1-0.5-1.1-1.2c0-0.7,0.4-1.2,1.1-1.2c0.2,0,0.5,0,0.7,0.2l0-0.6
			c-0.2-0.1-0.5-0.1-0.7-0.1c-1.1,0-1.8,0.6-1.8,1.8c0,1.1,0.7,1.6,1.8,1.6c0.2,0,0.5,0,0.7-0.1l0-0.5C72.5,6.5,72.2,6.5,71.9,6.5"
			/>
		<polyline id="Fill-63" class="st2" points="75.1,5 73.8,5 73.8,3.7 73.2,3.7 73.2,7 73.8,7 73.8,5.6 75.1,5.6 75.1,7 75.8,7 
			75.8,3.7 75.1,3.7 75.1,5 		"/>
		<path id="Fill-64" class="st2" d="M79.2,5.6h0.7v0.9c-0.1,0-0.3,0-0.4,0c-0.7,0-1.1-0.5-1.1-1.2c0-0.7,0.4-1.2,1.2-1.2
			c0.3,0,0.6,0.1,0.8,0.2l0-0.6c-0.3-0.1-0.6-0.1-1-0.1c-1.1,0-1.8,0.6-1.8,1.8c0,1.1,0.7,1.6,1.8,1.6c0.4,0,0.7-0.1,1.1-0.2V5.1
			h-1.3V5.6"/>
		<polyline id="Fill-65" class="st2" points="81.9,5.6 83.1,5.6 83.1,5 81.9,5 81.9,4.2 83.2,4.2 83.2,3.7 81.2,3.7 81.2,7 83.2,7 
			83.2,6.5 81.9,6.5 81.9,5.6 		"/>
		<polyline id="Fill-66" class="st2" points="83.5,4.2 84.5,4.2 84.5,7 85.1,7 85.1,4.2 86,4.2 86,3.7 83.5,3.7 83.5,4.2 		"/>
		<polyline id="Fill-67" class="st2" points="87.1,5.6 88.3,5.6 88.3,5 87.1,5 87.1,4.2 88.4,4.2 88.4,3.7 86.5,3.7 86.5,7 88.4,7 
			88.4,6.5 87.1,6.5 87.1,5.6 		"/>
		<path id="Fill-68" class="st2" d="M89.7,4.6c0-0.4,0.3-0.5,0.5-0.5c0.2,0,0.5,0.1,0.7,0.1l0.1-0.5c-0.2-0.1-0.5-0.1-0.8-0.1
			c-0.6,0-1.1,0.3-1.1,1c0,1.1,1.4,0.8,1.4,1.5c0,0.3-0.3,0.4-0.6,0.4c-0.3,0-0.5-0.1-0.7-0.2L89,6.9C89.3,7,89.5,7,89.9,7
			c0.7,0,1.2-0.3,1.2-1C91.1,5,89.7,5.2,89.7,4.6"/>
		<polyline id="Fill-69" class="st2" points="91.3,4.2 92.3,4.2 92.3,7 92.9,7 92.9,4.2 93.9,4.2 93.9,3.7 91.3,3.7 91.3,4.2 		"/>
		<polyline id="Fill-70" class="st2" points="95,5.6 96.1,5.6 96.1,5 95,5 95,4.2 96.2,4.2 96.2,3.7 94.3,3.7 94.3,7 96.2,7 
			96.2,6.5 95,6.5 95,5.6 		"/>
		<polyline id="Fill-71" class="st2" points="96.6,4.2 97.5,4.2 97.5,7 98.2,7 98.2,4.2 99.1,4.2 99.1,3.7 96.6,3.7 96.6,4.2 		"/>
		<path id="Fill-72" class="st2" d="M57-3.2c-0.2,0-0.3,0-0.4,0l0-0.9H58v-0.4h-1.7l0,1.7c0.2-0.1,0.3-0.1,0.6-0.1
			c0.4,0,0.8,0.2,0.8,0.7c0,0.4-0.4,0.6-0.7,0.6c-0.3,0-0.5,0-0.7-0.2l0,0.4c0.1,0,0.3,0.1,0.7,0.1c0.7,0,1.2-0.4,1.2-1.1
			C58.1-2.8,57.6-3.2,57-3.2"/>
		<polygon id="Fill-73" class="st2" points="58.5,-2.3 59.7,-2.3 59.7,-2.6 58.5,-2.6 		"/>
		<path id="Fill-74" class="st2" d="M60.5-3c0-0.2,0.2-0.3,0.4-0.3c0.1,0,0.4,0.1,0.5,0.1l0-0.4c-0.2-0.1-0.3-0.1-0.5-0.1
			c-0.5,0-0.8,0.2-0.8,0.7c0,0.7,1,0.6,1,1c0,0.3-0.2,0.3-0.4,0.3c-0.1,0-0.4-0.1-0.5-0.2l0,0.4c0.2,0.1,0.4,0.1,0.6,0.1
			c0.4,0,0.8-0.2,0.8-0.7C61.5-2.6,60.5-2.5,60.5-3"/>
		<path id="Fill-75" class="st2" d="M62.6-1.9v-1.3h0.6v-0.3h-0.6v-0.7l-0.4,0.1v0.5h-0.5v0.3h0.5v1.4c0,0.5,0.3,0.7,0.7,0.7
			c0.1,0,0.3,0,0.4-0.1v-0.4c-0.1,0-0.2,0.1-0.3,0.1C62.8-1.5,62.6-1.7,62.6-1.9"/>
		<path id="Fill-76" class="st2" d="M64.7-3.3c0.4,0,0.6,0.3,0.6,0.6h-1.2C64.1-2.9,64.3-3.3,64.7-3.3z M64.8-1.2
			c0.4,0,0.6-0.1,0.7-0.2v-0.4c-0.1,0.1-0.4,0.2-0.7,0.2c-0.4,0-0.8-0.3-0.8-0.8h1.7c0-0.7-0.3-1.3-1-1.3c-0.7,0-1.1,0.5-1.1,1.2
			C63.6-1.7,64-1.2,64.8-1.2z"/>
		<path id="Fill-77" class="st2" d="M66.7-3.2L66.7-3.2l0-0.4h-0.4v2.3h0.4v-1.1c0-0.6,0.3-0.9,0.6-0.9c0.1,0,0.2,0,0.2,0v-0.4
			c-0.1,0-0.2,0-0.3,0C67.1-3.6,66.9-3.4,66.7-3.2"/>
		<path id="Fill-78" class="st2" d="M69.3-3.6c-0.3,0-0.6,0.2-0.8,0.4h0v-0.4h-0.4v2.3h0.4v-1.1c0-0.6,0.2-1,0.7-1
			c0.4,0,0.5,0.3,0.5,0.8v1.2h0.4v-1.4C70.2-3.2,69.9-3.6,69.3-3.6"/>
		<path id="Fill-79" class="st2" d="M72.4-2.6h-1.2c0-0.3,0.2-0.6,0.6-0.6C72.2-3.3,72.4-3,72.4-2.6z M70.7-2.4
			c0,0.8,0.4,1.3,1.2,1.3c0.4,0,0.6-0.1,0.7-0.2v-0.4c-0.1,0.1-0.4,0.2-0.7,0.2c-0.4,0-0.8-0.3-0.8-0.8h1.7c0-0.7-0.3-1.3-1-1.3
			C71.2-3.6,70.7-3.1,70.7-2.4z"/>
		<polygon id="Fill-80" class="st2" points="73.3,-2.3 74.4,-2.3 74.4,-2.6 73.3,-2.6 		"/>
		<path id="Fill-81" class="st2" d="M75.9-1.6c-0.4,0-0.6-0.4-0.6-0.8c0-0.4,0.2-0.9,0.6-0.9c0.5,0,0.7,0.4,0.7,0.9
			C76.6-1.9,76.3-1.6,75.9-1.6z M76.6-3.2L76.6-3.2c-0.1-0.3-0.4-0.4-0.8-0.4c-0.7,0-1,0.6-1,1.2c0,0.6,0.3,1.1,1,1.1
			c0.3,0,0.6-0.1,0.8-0.4h0v0.2c0,0.5-0.3,0.8-0.7,0.8c-0.3,0-0.5-0.1-0.8-0.2l0,0.4c0.4,0.1,0.6,0.2,0.8,0.2c0.8,0,1.2-0.4,1.2-1.1
			v-2.2h-0.4V-3.2z"/>
		<path id="Fill-82" class="st2" d="M79.1-2.1c0,0.3-0.2,0.6-0.6,0.6c-0.2,0-0.4-0.1-0.4-0.4c0-0.4,0.6-0.4,0.8-0.4
			c0.1,0,0.2,0,0.3,0V-2.1z M79.6-2.7c0-0.6-0.3-1-0.9-1c-0.3,0-0.6,0.1-0.8,0.2l0,0.4c0.2-0.1,0.4-0.2,0.7-0.2
			c0.4,0,0.6,0.2,0.6,0.6c-0.2,0-0.3,0-0.5,0c-0.4,0-1.1,0.2-1.1,0.8c0,0.5,0.4,0.7,0.9,0.7c0.4,0,0.6-0.2,0.7-0.4h0v0.3h0.4
			c0-0.1,0-0.2,0-0.5V-2.7z"/>
		<path id="Fill-83" class="st2" d="M80.7-3.2L80.7-3.2l0-0.4h-0.4v2.3h0.4v-1.1c0-0.6,0.3-0.9,0.6-0.9c0.1,0,0.2,0,0.2,0v-0.4
			c-0.1,0-0.2,0-0.3,0C81.1-3.6,80.8-3.4,80.7-3.2"/>
		<path id="Fill-84" class="st2" d="M83.2-2.4c0.1,0,0.2,0,0.3,0v0.2c0,0.3-0.2,0.6-0.6,0.6c-0.2,0-0.4-0.1-0.4-0.4
			C82.4-2.3,83-2.4,83.2-2.4z M82.8-1.2c0.4,0,0.6-0.2,0.7-0.4h0v0.3h0.4c0-0.1,0-0.2,0-0.5v-1c0-0.6-0.3-1-0.9-1
			c-0.3,0-0.6,0.1-0.8,0.2l0,0.4c0.2-0.1,0.4-0.2,0.7-0.2c0.4,0,0.6,0.2,0.6,0.6c-0.2,0-0.3,0-0.5,0c-0.4,0-1.1,0.2-1.1,0.8
			C81.9-1.4,82.3-1.2,82.8-1.2z"/>
		<path id="Fill-85" class="st2" d="M85.8-3.6c-0.3,0-0.6,0.2-0.8,0.4h0v-0.4h-0.4v2.3h0.4v-1.1c0-0.6,0.2-1,0.7-1
			c0.4,0,0.5,0.3,0.5,0.8v1.2h0.4v-1.4C86.7-3.2,86.4-3.6,85.8-3.6"/>
		<path id="Fill-86" class="st2" d="M88-1.9v-1.3h0.6v-0.3H88v-0.7l-0.4,0.1v0.5h-0.5v0.3h0.5v1.4c0,0.5,0.3,0.7,0.7,0.7
			c0.1,0,0.3,0,0.4-0.1v-0.4c-0.1,0-0.2,0.1-0.3,0.1C88.2-1.5,88-1.7,88-1.9"/>
		<polygon id="Fill-87" class="st2" points="89.2,-4.1 89.7,-4.1 89.7,-4.6 89.2,-4.6 		"/>
		<polygon id="Fill-88" class="st2" points="89.3,-1.2 89.7,-1.2 89.7,-3.6 89.3,-3.6 		"/>
		<path id="Fill-89" class="st2" d="M91.4-3.3C91.8-3.3,92-3,92-2.6h-1.2C90.8-2.9,91-3.3,91.4-3.3z M91.5-1.2
			c0.4,0,0.6-0.1,0.7-0.2v-0.4c-0.1,0.1-0.4,0.2-0.7,0.2c-0.4,0-0.8-0.3-0.8-0.8h1.7c0-0.7-0.3-1.3-1-1.3c-0.7,0-1.1,0.5-1.1,1.2
			C90.3-1.7,90.7-1.2,91.5-1.2z"/>
		<polygon id="Fill-90" class="st2" points="93,-1.2 93.5,-1.2 93.5,-1.7 93,-1.7 		"/>
		<path id="Fill-91" class="st2" d="M95.2-1.5c-0.5,0-0.7-0.5-0.6-0.9c0-0.4,0.2-0.9,0.6-0.9c0.5,0,0.7,0.4,0.7,0.9
			C95.9-2,95.7-1.5,95.2-1.5z M95.9-3.2L95.9-3.2c-0.1-0.2-0.4-0.4-0.8-0.4c-0.7,0-1,0.6-1,1.2c0,0.6,0.3,1.3,1,1.3
			c0.4,0,0.7-0.2,0.8-0.4h0v0.3h0.4v-3.4h-0.4V-3.2z"/>
		<g id="Group-95">
			<g id="Clip-93">
			</g>
			<defs>
				<filter id="Adobe_OpacityMaskFilter" filterUnits="userSpaceOnUse" x="96.9" y="-3.6" width="2.1" height="2.4">
					<feColorMatrix  type="matrix" values="1 0 0 0 0  0 1 0 0 0  0 0 1 0 0  0 0 0 1 0"/>
				</filter>
			</defs>
			<mask maskUnits="userSpaceOnUse" x="96.9" y="-3.6" width="2.1" height="2.4" id="mask-2_1_">
				<g class="st3">
					<polygon id="path-1_1_" class="st4" points="-5,-32 104.8,-32 104.8,24.1 -5,24.1 					"/>
				</g>
			</mask>
			<path id="Fill-92" class="st5" d="M97.4-2.6c0-0.3,0.2-0.6,0.6-0.6c0.4,0,0.6,0.3,0.6,0.6H97.4z M98-3.6c-0.7,0-1.1,0.5-1.1,1.2
				c0,0.8,0.4,1.3,1.2,1.3c0.4,0,0.6-0.1,0.7-0.2v-0.4c-0.1,0.1-0.4,0.2-0.7,0.2c-0.4,0-0.8-0.3-0.8-0.8H99C99-3.1,98.8-3.6,98-3.6z
				"/>
			<defs>
				<filter id="Adobe_OpacityMaskFilter_1_" filterUnits="userSpaceOnUse" x="-5" y="-32" width="109.8" height="56.1">
					<feColorMatrix  type="matrix" values="1 0 0 0 0  0 1 0 0 0  0 0 1 0 0  0 0 0 1 0"/>
				</filter>
			</defs>
			<mask maskUnits="userSpaceOnUse" x="-5" y="-32" width="109.8" height="56.1" id="mask-2_2_">
				<g class="st6">
					<polygon id="path-1_2_" class="st4" points="-5,-32 104.8,-32 104.8,24.1 -5,24.1 					"/>
				</g>
			</mask>
			<path id="Fill-94" class="st7" d="M23.1,21.9c-6.2,0-11.9-2.2-16.4-5.9c-0.6-0.5-1.2-1.1-1.8-1.7C0.2,9.6-2.7,3.2-2.7-3.9
				c0-14.2,11.6-25.8,25.8-25.8c7.1,0,13.6,2.9,18.2,7.6c0.6,0.6,1.1,1.2,1.7,1.8c3.7,4.5,5.9,10.2,5.9,16.4
				C48.9,10.3,37.3,21.9,23.1,21.9z M104,1.3H50.6c0.3-1.7,0.5-3.4,0.5-5.2c0-4.3-1-8.4-2.7-12.1H104V1.3z M50.5,2.1H104v6.5H48.1
				C49.2,6.6,50,4.4,50.5,2.1z M48-16.8C43.3-25.8,33.9-32,23.1-32C7.6-32-5-19.4-5-3.9c0,15.5,12.6,28.1,28.1,28.1
				c10.6,0,19.9-6,24.7-14.7h57v-26.2H48z"/>
		</g>
	</g>
</g>
</svg>
