<?xml version="1.0" encoding="UTF-8"?>
<svg width="55px" height="79px" viewBox="0 0 55 79" version="1.1" xmlns="http://www.w3.org/2000/svg" xmlns:xlink="http://www.w3.org/1999/xlink">
    <title>g12</title>
    <defs>
        <path d="M16.3495957,8.06778 C16.3256739,7.58898 16.1647043,7.19694 15.8947174,6.89571 C15.6273783,6.59799 15.2519348,6.39063 14.7966913,6.2793 C14.3445522,6.16887 13.8117,6.15492 13.226987,6.24087 C12.6441,6.32826 12.0081652,6.51591 11.345387,6.81057 C10.6832478,7.10523 10.0558043,7.47972 9.48551739,7.90407 C8.91623478,8.32887 8.4041087,8.8056 7.97324348,9.30456 C7.54183043,9.80433 7.19195217,10.32822 6.94999565,10.84635 C6.7052087,11.36799 6.56907391,11.88315 6.56667343,12.36546 C6.5645087,12.85002 6.69790435,13.2561 6.94132174,13.57254 C7.18656522,13.89123 7.54356522,14.12037 7.98766957,14.25267 C8.43387391,14.38452 8.96626957,14.41854 9.55947391,14.34429 C10.1554174,14.27103 10.8113478,14.08761 11.4983217,13.78989 C12.1879435,13.49082 12.8438739,13.10328 13.436987,12.66021 C14.0298261,12.2184 14.5608522,11.71944 15.0017609,11.1978 C15.4413,10.67832 15.7906304,10.13481 16.0237304,9.60138 C16.2561913,9.06966 16.3739739,8.54802 16.3495957,8.06778 Z M20.9128043,4.14909 C20.9880391,5.14296 20.6738609,6.10344 19.9995783,7.41951 C19.4396087,8.51094 18.5064783,9.36558 17.5766348,10.47438 C16.6416783,11.58759 15.5259391,12.60477 14.2570826,13.55202 C12.9881348,14.49801 11.859887,15.40548 10.3893391,16.03845 C8.92527391,16.66935 7.59679565,17.3691 6.34364348,17.514 C5.09943913,17.65728 3.99237391,17.5707 3.07540435,17.27613 C2.16802174,16.98282 1.44863478,16.48593 0.9681,15.8058 C0.493408696,15.13404 0.251817391,14.28102 0.291078261,13.26915 C0.330247826,12.26727 0.640865217,11.20212 1.16513478,10.13265 C1.68566087,9.06966 2.42056957,8.00019 3.31443913,6.98085 C4.2042913,5.96502 5.25684783,4.99455 6.42125217,4.12713 C7.58547391,3.25944 8.86574348,2.49111 10.2166826,1.87902 C11.5726435,1.26441 12.876287,0.86274 14.075387,0.66411 C15.2834348,0.46242 16.3900435,0.46692 17.3371435,0.66636 C18.2946522,0.86841 19.146613,1.19016 19.7254826,1.78389 C20.3110174,2.38419 20.8383913,3.16557 20.9128043,4.14909 Z" id="path-1"></path>
        <radialGradient cx="55.3451831%" cy="-0.000530866293%" fx="55.3451831%" fy="-0.000530866293%" r="118.576788%" gradientTransform="translate(0.553452,-0.000005),scale(0.827012,1.000000),translate(-0.553452,0.000005)" id="radialGradient-3">
            <stop stop-color="#FFFFFF" offset="0%"></stop>
            <stop stop-color="#ED1C24" offset="100%"></stop>
        </radialGradient>
        <path d="M13.5643636,3.00342167 C9.78836364,5.3328 7.54381818,6.55821833 4.7759,9.91631667 C3.66595455,11.2627167 3.00976364,12.035925 2.23823636,13.5964583 C1.85313636,14.3741583 1.39713636,15.6542833 1.39713636,15.6542833 L1.20458182,17.0907917 L0.905663636,19.0337583 L0.757109091,20.7757917 L0.732863636,21.3662167 C0.737354545,21.2178083 0.746781818,21.0665583 0.761590909,20.9122833 C0.775954545,20.758375 0.795254545,20.6014417 0.820381818,20.44185 C0.844627273,20.283175 0.874245455,20.1208333 0.908809091,19.955925 C0.943818182,19.7918417 0.983309091,19.624275 1.02819091,19.4538667 C1.47791818,17.73365 2.24676364,15.9262583 3.47475455,13.90015 C4.82571818,11.6699917 5.85442727,10.5317667 7.72154545,8.72483333 C9.57472727,6.93121 10.8072727,5.62623417 13.0469091,3.9989125 C14.409,3.00876583 17.7317273,0.93412 19.6952727,0.66869 C20.4790909,0.562494167 17.9134545,0.753261667 16.9085455,1.22277833 C15.5531818,1.85722167 14.8215455,2.22805917 13.5643636,3.00342167 Z" id="path-4"></path>
        <linearGradient x1="49.9998088%" y1="0.000601542112%" x2="49.9998088%" y2="100.000885%" id="linearGradient-6">
            <stop stop-color="#ED1C24" offset="0%"></stop>
            <stop stop-color="#FFFFFF" offset="100%"></stop>
        </linearGradient>
        <path d="M41.1870766,5.37499814 L39.7770383,3.91443907 L38.2805872,2.5947607 L37.5226213,2.00384721 L35.8142936,1.32373256 C34.8838596,1.02946395 33.7434255,0.60759007 32.5088936,0.431227535 C31.328783,0.263535698 29.4881106,0.0264747419 28.0362511,0.333473581 C26.6031574,0.636196116 25.6466298,0.971353953 24.0205149,1.66295093 C22.4114681,2.34789977 20.7182426,3.22374 18.9724723,4.29283884 C16.5481787,5.77626279 14.2296,7.50463395 12.0974298,9.36725581 C9.96561702,11.2311837 8.00187574,13.2473023 6.29580894,15.3070465 C4.57430043,17.3856558 3.10161957,19.5258488 1.97835191,21.6155233 C0.835680255,23.7398442 0.356109064,25.8334186 0.0336012511,27.7625581 C-0.0286059319,28.1404953 0.0261018383,28.4959395 0.0013953383,28.8478465 C-0.0241943234,29.2019302 0.305814511,31.4402581 0.693178723,33.0578512 C0.859499617,33.748514 0.942006383,34.1435023 1.17319404,34.8153 C1.44407617,35.6040977 2.01982468,36.7773628 2.01982468,36.7773628 L2.30438809,37.2788302 L2.94058085,38.3171372 C2.70587234,37.9532581 2.50954468,37.5582698 2.35159787,37.1315372 C2.19498255,36.7069814 2.0780617,36.2516791 2.00085319,35.7656302 C1.92496723,35.2838442 1.88790894,34.7731256 1.89277021,34.2319326 C1.89717574,33.6952744 1.94306298,33.1304093 2.03085191,32.5377907 C2.3383634,30.4552814 3.14176979,28.2169535 4.31884213,25.9522326 C5.47608511,23.7253326 7.00170383,21.4553512 8.79204766,19.2597419 C10.5664851,17.0856279 12.6152809,14.965207 14.8473574,13.0133023 C17.0765745,11.0627581 19.5097149,9.26168372 22.0629574,7.72458488 C24.129983,6.47923326 26.1319532,5.49291419 28.0242766,4.76437605 C29.9412638,4.02581581 31.7532511,3.54797512 33.4071574,3.33242302 C35.0894809,3.11382349 36.6141702,3.16529442 37.9223362,3.49436372 C39.2568638,3.82997233 40.3678085,4.4546707 41.1870766,5.37499814 Z" id="path-7"></path>
        <radialGradient cx="63.5181372%" cy="0.814984017%" fx="63.5181372%" fy="0.814984017%" r="119.699259%" gradientTransform="translate(0.635181,0.008150),scale(0.925833,1.000000),translate(-0.635181,-0.008150)" id="radialGradient-9">
            <stop stop-color="#FFFFFF" offset="0%"></stop>
            <stop stop-color="#ED1C24" offset="100%"></stop>
        </radialGradient>
        <path d="M46.3548346,11.2469694 L44.0013096,5.03522449 L43.3913038,3.67567347 C42.5721481,2.29977551 41.2226154,1.40085 39.6827327,0.842317347 C38.1775577,0.29655 35.4951231,0.329161224 33.4924712,0.53487551 C31.5276904,0.737632653 29.3616231,1.29616531 27.0769712,2.20308061 C24.8243154,3.09711122 22.4453923,4.33460204 20.0085327,5.91410204 C17.2959096,7.67314286 14.7456173,9.70659184 12.43855,11.8905612 C10.129675,14.075449 8.04314615,16.4296837 6.27196923,18.8284592 C4.48437846,21.2494592 3.00242327,23.7363061 1.93323654,26.1583163 C0.8435325,28.6220204 0.173285385,31.0367755 0.042535,33.2608776 C-0.00655288462,34.1014592 0.0229034615,34.8854694 0.127324808,35.6128163 C0.23218,36.3477857 0.413365,37.0226939 0.666378654,37.637449 C0.921181923,38.2574388 1.24871769,38.8177347 1.64585865,39.313102 C2.04569308,39.8134286 2.5160275,40.248551 3.05151115,40.6151633 L4.90119615,41.7898469 L6.66252115,42.7297041 L8.613925,43.5884694 L10.3608788,44.2107551 C9.51975962,43.9479184 8.76911538,43.5737755 8.12069615,43.0949388 C7.47905577,42.6227143 6.93638654,42.0480918 6.50217885,41.3732755 C6.07429808,40.7072755 5.75216731,39.9456735 5.54464423,39.092602 C5.33938077,38.2485306 5.24791154,37.3152857 5.27828077,36.297551 C5.33938077,34.1993571 5.91187692,31.9254796 6.88287885,29.6090816 C7.83833462,27.3307041 9.18596923,24.9946531 10.8303365,22.726102 C12.4590673,20.4756429 14.3908577,18.2747755 16.5390288,16.2404082 C18.6854827,14.2069592 21.0682923,12.3219184 23.6083712,10.7057755 C26.1451962,9.09110204 28.6230904,7.88207143 30.9480538,7.07666327 C33.3090808,6.2584898 36.4078269,5.65705102 38.3711615,5.67036735 C40.3770673,5.68386735 42.1253769,6.13506122 43.492625,7.03754082 C44.89205,7.96086735 45.1593173,9.51639796 45.6202788,11.4029082 L46.3548346,11.2469694 Z" id="path-10"></path>
        <radialGradient cx="64.7252527%" cy="0.814335598%" fx="64.7252527%" fy="0.814335598%" r="112.436459%" gradientTransform="translate(0.647253,0.008143),scale(0.945577,1.000000),translate(-0.647253,-0.008143)" id="radialGradient-12">
            <stop stop-color="#FFFFFF" offset="0%"></stop>
            <stop stop-color="#ED1C24" offset="100%"></stop>
        </radialGradient>
        <path d="M38.5586778,10.9962 C38.7232244,10.54998 39.7137844,10.2195 39.8433444,9.7686 C39.9738156,9.31509 40.0862467,8.85897 40.1807289,8.40096 C40.2761222,7.94214 40.5594778,5.43033 40.5819822,4.96503 C40.48258,4.69476 40.5113711,4.45023 40.3606733,4.17492 C39.6552911,2.87838 38.9329622,2.38644 37.7679244,1.62594 C36.4318711,0.75501 33.8720133,0.18486 31.9000044,0.14562 C29.9638933,0.10674 27.7768622,0.46422 25.4476067,1.21122 C23.1508778,1.94814 20.7051822,3.06774 18.2068244,4.57344 C15.7274178,6.06681 13.4121933,7.81083 11.3366822,9.69309 C9.25889333,11.57589 7.40569333,13.61187 5.85780667,15.68898 C4.30008,17.78211 3.04101556,19.92987 2.17600667,22.02093 C1.29833333,24.14025 0.819817778,26.21376 0.846695556,28.11402 C0.863915556,29.30571 1.07748,30.36222 1.46752667,31.27851 C1.86386,32.20488 2.44095778,32.98761 3.17904889,33.61707 C3.92807333,34.25436 4.81786444,34.77078 5.89388667,35.00739 C7.00179778,35.25102 8.10023333,35.42778 9.50680667,35.48763 L9.79972889,35.4798 L11.8823467,35.35227 L13.9182244,35.10126 L14.9276444,34.92882 L16.7885889,34.52589 L18.58694,34.02819 L19.0777556,33.8724 L20.7132911,33.29397 L21.0623378,33.15735 C19.1770667,33.90957 17.39712,34.35264 15.7890089,34.50312 C14.1989378,34.65081 12.7801556,34.51185 11.5921578,34.10379 C10.4194667,33.69996 9.47355111,33.03513 8.80552444,32.12631 C8.14697333,31.23 7.75975111,30.09681 7.69269333,28.74051 C7.61843778,27.21924 7.95354444,25.55685 8.61892889,23.85342 C9.27565778,22.16844 10.2571067,20.43414 11.4909333,18.74682 C12.7168333,17.06967 14.1971156,15.42834 15.8654511,13.914 C17.5339689,12.40092 19.39792,11.00619 21.4006333,9.82188 C23.4135511,8.63136 25.3860156,7.75836 27.2362089,7.20144 C29.1065378,6.63741 30.8612467,6.39288 32.4087689,6.46929 C33.9789778,6.54696 35.3409978,6.95475 36.3967933,7.6959 C37.4692622,8.44947 38.2262133,9.54855 38.5586778,10.9962 Z" id="path-13"></path>
        <radialGradient cx="62.7565849%" cy="0.813247239%" fx="62.7565849%" fy="0.813247239%" r="119.856723%" gradientTransform="translate(0.627566,0.008132),scale(0.889484,1.000000),translate(-0.627566,-0.008132)" id="radialGradient-15">
            <stop stop-color="#FFFFFF" offset="0%"></stop>
            <stop stop-color="#ED1C24" offset="100%"></stop>
        </radialGradient>
    </defs>
    <g id="Homepage" stroke="none" stroke-width="1" fill="none" fill-rule="evenodd">
        <g id="DE-AT" transform="translate(-1020.000000, -4177.000000)">
            <g id="g12" transform="translate(1020.000000, 4177.000000)">
                <path d="M7,71.1802296 L8.50607573,71.1802296 L8.50607573,72.7569187 L8.53996612,72.7569187 C8.59521084,72.6039522 8.6816263,72.4260098 8.79922165,72.2230913 C8.91612106,72.0211793 9.07234101,71.8288733 9.26757017,71.6486437 C9.46279932,71.4679566 9.70271508,71.3138923 9.987409,71.1884635 C10.2721029,71.0621198 10.609267,71 11,71 L11,72.6088925 C10.6652168,72.6088925 10.3446271,72.6565573 10.0378646,72.7486849 C9.73082734,72.8417273 9.46554645,73.0064041 9.24284602,73.2419834 C9.0195046,73.4771053 8.84124353,73.7925529 8.70737604,74.186405 C8.57317888,74.5804401 8.50607573,75.0787704 8.50607573,75.6815791 L8.50607573,79 L7,79 L7,71.1802296 Z" id="Path" fill="#231F20" fill-rule="nonzero"></path>
                <path d="M16.5244843,73.4739473 C16.5244843,73.3559358 16.5026009,73.219225 16.4591031,73.0640832 C16.4149776,72.9085836 16.3412556,72.7614942 16.2373991,72.6222781 C16.1339013,72.4830621 15.9890583,72.365319 15.80287,72.2683331 C15.6173094,72.1727786 15.3823318,72.1239278 15.098565,72.1239278 C14.7925561,72.1239278 14.5408969,72.1772521 14.3441256,72.2846167 C14.1476233,72.3918917 13.9892377,72.5204608 13.8687892,72.6700554 C13.7482511,72.8207236 13.6643049,72.9704076 13.6148879,73.1200022 C13.5653812,73.2703126 13.5408072,73.3874294 13.5408072,73.4739473 L16.5244843,73.4739473 Z M17.8193722,78.7430409 C17.5023318,78.8184645 17.2049327,78.8796622 16.9261883,78.9277973 C16.6473543,78.9766482 16.295157,79 15.8688789,79 C14.6886099,79 13.7482511,78.6471286 13.0492377,77.9395068 C12.3498655,77.2326008 12,76.1297881 12,74.6300844 C12,73.8054353 12.1175785,73.1550747 12.3525561,72.6785551 C12.5875336,72.2016776 12.8743498,71.8372644 13.2131839,71.5862104 C13.5517489,71.3339932 13.9016143,71.1737516 14.2624215,71.1040541 C14.6232287,71.0340882 14.9289686,71 15.1801794,71 C15.6611659,71 16.0764126,71.0744394 16.426278,71.2243919 C16.775426,71.3747917 17.0682511,71.5862104 17.303139,71.8584689 C17.5382063,72.1317117 17.7128251,72.4563999 17.8276233,72.83146 C17.9425112,73.2062517 18,73.6187105 18,74.0682995 L18,74.437544 L13.475426,74.437544 C13.475426,74.7914891 13.5249327,75.1711122 13.623139,75.5783817 C13.721435,75.9853828 13.8824215,76.3578482 14.1064574,76.6951518 C14.3304933,77.0318291 14.6255605,77.3133031 14.9920179,77.5384108 C15.3578475,77.76325 15.8085202,77.8750881 16.3439462,77.8750881 C16.68287,77.8750881 16.9696861,77.843505 17.2049327,77.7794442 C17.44,77.7150254 17.6443946,77.6565118 17.8193722,77.6028295 L17.8193722,78.7430409 Z" id="Shape" fill="#231F20" fill-rule="nonzero"></path>
                <path d="M20.5504694,75.0928446 C20.5504694,75.3755412 20.5662463,75.6812206 20.5972065,76.0107565 C20.6283363,76.3405547 20.6927166,76.643962 20.790941,76.9210658 C20.8892502,77.1985192 21.0364171,77.4314053 21.2329507,77.6194619 C21.429145,77.807868 21.6875141,77.9012846 22.0080581,77.9012846 C22.287124,77.9012846 22.5275956,77.813286 22.7288792,77.6353663 C22.9303325,77.4573592 23.0958211,77.2292794 23.2250905,76.9521755 C23.3544447,76.6757708 23.4495306,76.3717518 23.5120448,76.0429149 C23.5738803,75.7130294 23.6050102,75.391533 23.6050102,75.0775519 C23.6050102,74.7534339 23.5792242,74.4236358 23.5273976,74.0884196 C23.475656,73.7541648 23.3877799,73.4532917 23.2637695,73.18615 C23.1397591,72.919183 22.9742705,72.7024635 22.7677279,72.5350302 C22.560846,72.3682086 22.3028161,72.2840551 21.9927053,72.2840551 C21.7236485,72.2840551 21.4963244,72.3577222 21.3101391,72.5039205 C21.124378,72.6501188 20.9743271,72.849623 20.860665,73.1005982 C20.7467485,73.3516607 20.6669306,73.6471158 20.6204479,73.9867887 C20.57405,74.3270733 20.5504694,74.6953216 20.5504694,75.0928446 Z M23.6050102,77.6823804 L23.5738803,77.6823804 C23.532487,77.7872447 23.4627629,77.9149169 23.3645386,78.0665332 C23.2662294,78.2184116 23.1344153,78.3619883 22.969266,78.4979623 C22.8037774,78.6336741 22.6019848,78.7521708 22.3646517,78.8516171 C22.1266399,78.9508012 21.8476589,79 21.5271149,79 C21.0828998,79 20.7005202,78.9031753 20.3803155,78.7103124 C20.0598564,78.5164883 19.7960586,78.2496087 19.5895159,77.9095863 C19.3827188,77.570263 19.2330072,77.1698563 19.1397874,76.7091526 C19.0467372,76.2494101 19,75.7517418 19,75.2183322 C19,73.9734185 19.2251188,72.9899664 19.6746777,72.2687624 C20.1244911,71.5465097 20.7673603,71.1863009 21.6048971,71.1863009 C21.9151776,71.1863009 22.1838102,71.227198 22.4111344,71.3117885 C22.6381192,71.3949808 22.8296483,71.4998451 22.9846189,71.6253327 C23.1397591,71.7509076 23.2662294,71.8817258 23.3645386,72.0177872 C23.4627629,72.1534117 23.532487,72.2788992 23.5738803,72.3942499 L23.6050102,72.3942499 L23.6050102,68 L25,68 L25,78.8278478 L23.6050102,78.8278478 L23.6050102,77.6823804 Z" id="Shape" fill="#231F20" fill-rule="nonzero"></path>
                <path d="M28.5504474,75.0928446 C28.5504474,75.3755412 28.5661394,75.6812206 28.5972688,76.0107565 C28.6283133,76.3405547 28.6923534,76.643962 28.7909156,76.9210658 C28.8892235,77.1985192 29.0364731,77.4314053 29.2329191,77.6194619 C29.4291106,77.807868 29.6871369,77.9012846 30.0080156,77.9012846 C30.2867382,77.9012846 30.5272912,77.813286 30.7287417,77.6353663 C30.9302769,77.4573592 31.0957632,77.2292794 31.2250307,76.9521755 C31.3541287,76.6757708 31.4495526,76.3717518 31.511981,76.0429149 C31.5738157,75.7130294 31.6049451,75.391533 31.6049451,75.0775519 C31.6049451,74.7534339 31.5788201,74.4236358 31.5274185,74.0884196 C31.4752534,73.7541648 31.3877179,73.4532917 31.2637092,73.18615 C31.1397006,72.919183 30.9742143,72.7024635 30.7676746,72.5350302 C30.5607956,72.3682086 30.3025149,72.2840551 29.9925781,72.2840551 C29.7232707,72.2840551 29.4959498,72.3577222 29.3101913,72.5039205 C29.1242631,72.6501188 28.9742143,72.849623 28.8602994,73.1005982 C28.746639,73.3516607 28.666907,73.6471158 28.6205098,73.9867887 C28.5740277,74.3270733 28.5504474,74.6953216 28.5504474,75.0928446 Z M31.6049451,77.6823804 L31.5738157,77.6823804 C31.5323381,77.7872447 31.4623606,77.9149169 31.364392,78.0665332 C31.266169,78.2184116 31.1343568,78.3619883 30.9692947,78.4979623 C30.8038085,78.6336741 30.6019339,78.7521708 30.3646041,78.8516171 C30.1266805,78.9508012 29.8472794,79 29.5270792,79 C29.0828704,79 28.7001569,78.9031753 28.3803808,78.7103124 C28.0594173,78.5164883 27.7957929,78.2496087 27.5895924,77.9095863 C27.3827134,77.570263 27.2325798,77.1698563 27.1397006,76.7091526 C27.0468213,76.2494101 27,75.7517418 27,75.2183322 C27,73.9734185 27.2251156,72.9899664 27.6745833,72.2687624 C28.1241359,71.5465097 28.7674202,71.1863009 29.6049451,71.1863009 C29.9147122,71.1863009 30.1834259,71.227198 30.4107469,71.3117885 C30.637983,71.3949808 30.8295093,71.4998451 30.9846474,71.6253327 C31.1397006,71.7509076 31.266169,71.8817258 31.364392,72.0177872 C31.4623606,72.1534117 31.5323381,72.2788992 31.5738157,72.3942499 L31.6049451,72.3942499 L31.6049451,68 L33,68 L33,78.8278478 L31.6049451,78.8278478 L31.6049451,77.6823804 Z" id="Shape" fill="#ED1C24" fill-rule="nonzero"></path>
                <path d="M36.662699,74.9996869 C36.662699,75.2995918 36.6822559,75.6210591 36.7213696,75.9639099 C36.7600286,76.3064027 36.8428042,76.6171336 36.9705152,76.8952972 C37.0976805,77.1739977 37.2836073,77.407605 37.527659,77.5946877 C37.7713469,77.7816809 38.0982652,77.8750881 38.5082321,77.8750881 C38.9071925,77.8750881 39.229017,77.7816809 39.4724319,77.5946877 C39.7161198,77.407605 39.9019557,77.1739977 40.0295757,76.8952972 C40.1568319,76.6171336 40.2399714,76.3064027 40.2789942,75.9639099 C40.3174712,75.6210591 40.337301,75.2995918 40.337301,74.9996869 C40.337301,74.6895823 40.3174712,74.3653414 40.2789942,74.0275904 C40.2399714,73.689929 40.1568319,73.3802718 40.0295757,73.0962031 C39.9019557,72.8125818 39.7161198,72.5790639 39.4724319,72.3971705 C39.229017,72.2147403 38.9071925,72.1239278 38.5082321,72.1239278 C38.0982652,72.1239278 37.7713469,72.2147403 37.527659,72.3971705 C37.2836073,72.5790639 37.0976805,72.8125818 36.9705152,73.0962031 C36.8428042,73.3802718 36.7600286,73.689929 36.7213696,74.0275904 C36.6822559,74.3653414 36.662699,74.6895823 36.662699,74.9996869 Z M38.5082321,79 C37.9097005,79 37.3915795,78.9040877 36.9539601,78.7110999 C36.5159769,78.5185595 36.1500357,78.2479114 35.8565006,77.8995135 C35.5629654,77.5514735 35.3464752,77.1311413 35.2081216,76.6382486 C35.0694042,76.1460717 35,75.5994967 35,74.9996869 C35,73.7787731 35.2855305,72.8070346 35.8565006,72.083845 C36.4271068,71.3611027 37.3111689,71 38.5082321,71 C39.6942889,71 40.5726204,71.3611027 41.1435904,72.083845 C41.7141966,72.8070346 42,73.7787731 42,74.9996869 C42,75.5994967 41.9303229,76.1460717 41.7919693,76.6382486 C41.6532519,77.1311413 41.4397635,77.5514735 41.1519589,77.8995135 C40.8638815,78.2479114 40.5005783,78.5185595 40.0629589,78.7110999 C39.6249756,78.9040877 39.1068547,79 38.5082321,79 Z" id="Shape" fill="#ED1C24" fill-rule="nonzero"></path>
                <path d="M47.8693707,78.882716 C47.5218577,78.9609053 47.1370092,79 46.7132215,79 C46.246663,79 45.8603889,78.9500561 45.5567159,78.8497942 C45.2525974,78.7483165 45.0138827,78.6112982 44.8403935,78.4378975 C44.6662805,78.2637486 44.547235,78.057052 44.4819204,77.8165918 C44.4169622,77.5762252 44.3843494,77.3211747 44.3843494,77.052095 L44.3843494,71.9974747 L43,71.9974747 L43,70.8214553 L44.3843494,70.8214553 L44.3843494,68.9398616 L45.8498744,68 L45.8498744,70.8214553 L48,70.8214553 L48,71.9974747 L45.8498744,71.9974747 L45.8498744,76.2625327 C45.8498744,76.4417321 45.8603889,76.6236438 45.8824871,76.8082679 C45.9043181,76.9936401 45.9557322,77.1609615 46.0375314,77.3122896 C46.1186178,77.4639918 46.2435443,77.5870744 46.4118653,77.6822858 C46.5800082,77.7774972 46.8056244,77.8240741 47.0878228,77.8240741 C47.2180956,77.8240741 47.3536257,77.8138795 47.4951259,77.7910587 C47.6360024,77.7689862 47.7609288,77.7407407 47.8693707,77.7071642 L47.8693707,78.882716 Z" id="Path" fill="#ED1C24" fill-rule="nonzero"></path>
                <g id="Clipped" transform="translate(31.000000, 35.000000)">
                    <mask id="mask-2" fill="white">
                        <use xlink:href="#path-1"></use>
                    </mask>
                    <g id="Shape"></g>
                    <path d="M16.3495957,8.06778 C16.3256739,7.58898 16.1647043,7.19694 15.8947174,6.89571 C15.6273783,6.59799 15.2519348,6.39063 14.7966913,6.2793 C14.3445522,6.16887 13.8117,6.15492 13.226987,6.24087 C12.6441,6.32826 12.0081652,6.51591 11.345387,6.81057 C10.6832478,7.10523 10.0558043,7.47972 9.48551739,7.90407 C8.91623478,8.32887 8.4041087,8.8056 7.97324348,9.30456 C7.54183043,9.80433 7.19195217,10.32822 6.94999565,10.84635 C6.7052087,11.36799 6.56907391,11.88315 6.56667343,12.36546 C6.5645087,12.85002 6.69790435,13.2561 6.94132174,13.57254 C7.18656522,13.89123 7.54356522,14.12037 7.98766957,14.25267 C8.43387391,14.38452 8.96626957,14.41854 9.55947391,14.34429 C10.1554174,14.27103 10.8113478,14.08761 11.4983217,13.78989 C12.1879435,13.49082 12.8438739,13.10328 13.436987,12.66021 C14.0298261,12.2184 14.5608522,11.71944 15.0017609,11.1978 C15.4413,10.67832 15.7906304,10.13481 16.0237304,9.60138 C16.2561913,9.06966 16.3739739,8.54802 16.3495957,8.06778 Z M20.9128043,4.14909 C20.9880391,5.14296 20.6738609,6.10344 19.9995783,7.41951 C19.4396087,8.51094 18.5064783,9.36558 17.5766348,10.47438 C16.6416783,11.58759 15.5259391,12.60477 14.2570826,13.55202 C12.9881348,14.49801 11.859887,15.40548 10.3893391,16.03845 C8.92527391,16.66935 7.59679565,17.3691 6.34364348,17.514 C5.09943913,17.65728 3.99237391,17.5707 3.07540435,17.27613 C2.16802174,16.98282 1.44863478,16.48593 0.9681,15.8058 C0.493408696,15.13404 0.251817391,14.28102 0.291078261,13.26915 C0.330247826,12.26727 0.640865217,11.20212 1.16513478,10.13265 C1.68566087,9.06966 2.42056957,8.00019 3.31443913,6.98085 C4.2042913,5.96502 5.25684783,4.99455 6.42125217,4.12713 C7.58547391,3.25944 8.86574348,2.49111 10.2166826,1.87902 C11.5726435,1.26441 12.876287,0.86274 14.075387,0.66411 C15.2834348,0.46242 16.3900435,0.46692 17.3371435,0.66636 C18.2946522,0.86841 19.146613,1.19016 19.7254826,1.78389 C20.3110174,2.38419 20.8383913,3.16557 20.9128043,4.14909 Z" id="Shape" fill="url(#radialGradient-3)" fill-rule="nonzero" mask="url(#mask-2)"></path>
                </g>
                <g id="Clipped" transform="translate(1.000000, 1.000000)">
                    <mask id="mask-5" fill="white">
                        <use xlink:href="#path-4"></use>
                    </mask>
                    <g id="Path"></g>
                    <path d="M13.5643636,3.00342167 C9.78836364,5.3328 7.54381818,6.55821833 4.7759,9.91631667 C3.66595455,11.2627167 3.00976364,12.035925 2.23823636,13.5964583 C1.85313636,14.3741583 1.39713636,15.6542833 1.39713636,15.6542833 L1.20458182,17.0907917 L0.905663636,19.0337583 L0.757109091,20.7757917 L0.732863636,21.3662167 C0.737354545,21.2178083 0.746781818,21.0665583 0.761590909,20.9122833 C0.775954545,20.758375 0.795254545,20.6014417 0.820381818,20.44185 C0.844627273,20.283175 0.874245455,20.1208333 0.908809091,19.955925 C0.943818182,19.7918417 0.983309091,19.624275 1.02819091,19.4538667 C1.47791818,17.73365 2.24676364,15.9262583 3.47475455,13.90015 C4.82571818,11.6699917 5.85442727,10.5317667 7.72154545,8.72483333 C9.57472727,6.93121 10.8072727,5.62623417 13.0469091,3.9989125 C14.409,3.00876583 17.7317273,0.93412 19.6952727,0.66869 C20.4790909,0.562494167 17.9134545,0.753261667 16.9085455,1.22277833 C15.5531818,1.85722167 14.8215455,2.22805917 13.5643636,3.00342167 Z" id="Path" fill="url(#linearGradient-6)" fill-rule="nonzero" mask="url(#mask-5)"></path>
                </g>
                <g id="Clipped">
                    <mask id="mask-8" fill="white">
                        <use xlink:href="#path-7"></use>
                    </mask>
                    <g id="Path"></g>
                    <path d="M41.1870766,5.37499814 L39.7770383,3.91443907 L38.2805872,2.5947607 L37.5226213,2.00384721 L35.8142936,1.32373256 C34.8838596,1.02946395 33.7434255,0.60759007 32.5088936,0.431227535 C31.328783,0.263535698 29.4881106,0.0264747419 28.0362511,0.333473581 C26.6031574,0.636196116 25.6466298,0.971353953 24.0205149,1.66295093 C22.4114681,2.34789977 20.7182426,3.22374 18.9724723,4.29283884 C16.5481787,5.77626279 14.2296,7.50463395 12.0974298,9.36725581 C9.96561702,11.2311837 8.00187574,13.2473023 6.29580894,15.3070465 C4.57430043,17.3856558 3.10161957,19.5258488 1.97835191,21.6155233 C0.835680255,23.7398442 0.356109064,25.8334186 0.0336012511,27.7625581 C-0.0286059319,28.1404953 0.0261018383,28.4959395 0.0013953383,28.8478465 C-0.0241943234,29.2019302 0.305814511,31.4402581 0.693178723,33.0578512 C0.859499617,33.748514 0.942006383,34.1435023 1.17319404,34.8153 C1.44407617,35.6040977 2.01982468,36.7773628 2.01982468,36.7773628 L2.30438809,37.2788302 L2.94058085,38.3171372 C2.70587234,37.9532581 2.50954468,37.5582698 2.35159787,37.1315372 C2.19498255,36.7069814 2.0780617,36.2516791 2.00085319,35.7656302 C1.92496723,35.2838442 1.88790894,34.7731256 1.89277021,34.2319326 C1.89717574,33.6952744 1.94306298,33.1304093 2.03085191,32.5377907 C2.3383634,30.4552814 3.14176979,28.2169535 4.31884213,25.9522326 C5.47608511,23.7253326 7.00170383,21.4553512 8.79204766,19.2597419 C10.5664851,17.0856279 12.6152809,14.965207 14.8473574,13.0133023 C17.0765745,11.0627581 19.5097149,9.26168372 22.0629574,7.72458488 C24.129983,6.47923326 26.1319532,5.49291419 28.0242766,4.76437605 C29.9412638,4.02581581 31.7532511,3.54797512 33.4071574,3.33242302 C35.0894809,3.11382349 36.6141702,3.16529442 37.9223362,3.49436372 C39.2568638,3.82997233 40.3678085,4.4546707 41.1870766,5.37499814 Z" id="Path" fill="url(#radialGradient-9)" fill-rule="nonzero" mask="url(#mask-8)"></path>
                </g>
                <g id="Clipped" transform="translate(5.000000, 5.000000)">
                    <mask id="mask-11" fill="white">
                        <use xlink:href="#path-10"></use>
                    </mask>
                    <g id="Path"></g>
                    <path d="M46.3548346,11.2469694 L44.0013096,5.03522449 L43.3913038,3.67567347 C42.5721481,2.29977551 41.2226154,1.40085 39.6827327,0.842317347 C38.1775577,0.29655 35.4951231,0.329161224 33.4924712,0.53487551 C31.5276904,0.737632653 29.3616231,1.29616531 27.0769712,2.20308061 C24.8243154,3.09711122 22.4453923,4.33460204 20.0085327,5.91410204 C17.2959096,7.67314286 14.7456173,9.70659184 12.43855,11.8905612 C10.129675,14.075449 8.04314615,16.4296837 6.27196923,18.8284592 C4.48437846,21.2494592 3.00242327,23.7363061 1.93323654,26.1583163 C0.8435325,28.6220204 0.173285385,31.0367755 0.042535,33.2608776 C-0.00655288462,34.1014592 0.0229034615,34.8854694 0.127324808,35.6128163 C0.23218,36.3477857 0.413365,37.0226939 0.666378654,37.637449 C0.921181923,38.2574388 1.24871769,38.8177347 1.64585865,39.313102 C2.04569308,39.8134286 2.5160275,40.248551 3.05151115,40.6151633 L4.90119615,41.7898469 L6.66252115,42.7297041 L8.613925,43.5884694 L10.3608788,44.2107551 C9.51975962,43.9479184 8.76911538,43.5737755 8.12069615,43.0949388 C7.47905577,42.6227143 6.93638654,42.0480918 6.50217885,41.3732755 C6.07429808,40.7072755 5.75216731,39.9456735 5.54464423,39.092602 C5.33938077,38.2485306 5.24791154,37.3152857 5.27828077,36.297551 C5.33938077,34.1993571 5.91187692,31.9254796 6.88287885,29.6090816 C7.83833462,27.3307041 9.18596923,24.9946531 10.8303365,22.726102 C12.4590673,20.4756429 14.3908577,18.2747755 16.5390288,16.2404082 C18.6854827,14.2069592 21.0682923,12.3219184 23.6083712,10.7057755 C26.1451962,9.09110204 28.6230904,7.88207143 30.9480538,7.07666327 C33.3090808,6.2584898 36.4078269,5.65705102 38.3711615,5.67036735 C40.3770673,5.68386735 42.1253769,6.13506122 43.492625,7.03754082 C44.89205,7.96086735 45.1593173,9.51639796 45.6202788,11.4029082 L46.3548346,11.2469694 Z" id="Path" fill="url(#radialGradient-12)" fill-rule="nonzero" mask="url(#mask-11)"></path>
                </g>
                <g id="Clipped" transform="translate(14.000000, 18.000000)">
                    <mask id="mask-14" fill="white">
                        <use xlink:href="#path-13"></use>
                    </mask>
                    <g id="Path"></g>
                    <path d="M38.5586778,10.9962 C38.7232244,10.54998 39.7137844,10.2195 39.8433444,9.7686 C39.9738156,9.31509 40.0862467,8.85897 40.1807289,8.40096 C40.2761222,7.94214 40.5594778,5.43033 40.5819822,4.96503 C40.48258,4.69476 40.5113711,4.45023 40.3606733,4.17492 C39.6552911,2.87838 38.9329622,2.38644 37.7679244,1.62594 C36.4318711,0.75501 33.8720133,0.18486 31.9000044,0.14562 C29.9638933,0.10674 27.7768622,0.46422 25.4476067,1.21122 C23.1508778,1.94814 20.7051822,3.06774 18.2068244,4.57344 C15.7274178,6.06681 13.4121933,7.81083 11.3366822,9.69309 C9.25889333,11.57589 7.40569333,13.61187 5.85780667,15.68898 C4.30008,17.78211 3.04101556,19.92987 2.17600667,22.02093 C1.29833333,24.14025 0.819817778,26.21376 0.846695556,28.11402 C0.863915556,29.30571 1.07748,30.36222 1.46752667,31.27851 C1.86386,32.20488 2.44095778,32.98761 3.17904889,33.61707 C3.92807333,34.25436 4.81786444,34.77078 5.89388667,35.00739 C7.00179778,35.25102 8.10023333,35.42778 9.50680667,35.48763 L9.79972889,35.4798 L11.8823467,35.35227 L13.9182244,35.10126 L14.9276444,34.92882 L16.7885889,34.52589 L18.58694,34.02819 L19.0777556,33.8724 L20.7132911,33.29397 L21.0623378,33.15735 C19.1770667,33.90957 17.39712,34.35264 15.7890089,34.50312 C14.1989378,34.65081 12.7801556,34.51185 11.5921578,34.10379 C10.4194667,33.69996 9.47355111,33.03513 8.80552444,32.12631 C8.14697333,31.23 7.75975111,30.09681 7.69269333,28.74051 C7.61843778,27.21924 7.95354444,25.55685 8.61892889,23.85342 C9.27565778,22.16844 10.2571067,20.43414 11.4909333,18.74682 C12.7168333,17.06967 14.1971156,15.42834 15.8654511,13.914 C17.5339689,12.40092 19.39792,11.00619 21.4006333,9.82188 C23.4135511,8.63136 25.3860156,7.75836 27.2362089,7.20144 C29.1065378,6.63741 30.8612467,6.39288 32.4087689,6.46929 C33.9789778,6.54696 35.3409978,6.95475 36.3967933,7.6959 C37.4692622,8.44947 38.2262133,9.54855 38.5586778,10.9962 Z" id="Path" fill="url(#radialGradient-15)" fill-rule="nonzero" mask="url(#mask-14)"></path>
                </g>
                <path d="M30.8531437,3.43489467 C30.5896073,4.28501806 29.9906284,5.20044823 29.1307994,6.12755964 C28.2620158,7.0637003 27.1284422,8.0093048 25.8105811,8.90709336 C24.4860935,9.80975132 22.9798258,10.6602561 21.3763103,11.4024632 C19.7718992,12.1449364 18.0791054,12.7734354 16.3827298,13.2342105 C14.6962043,13.6919699 13.1753404,13.9371253 11.8719859,13.9892785 C10.5815262,14.0412543 9.50896975,13.9032435 8.70213466,13.5972427 C7.90547209,13.2948785 7.36832526,12.8294025 7.134008,12.219707 C6.90190255,11.6191472 6.96644792,10.8788027 7.36566572,10.0188075 C7.48547046,9.75901727 7.63313323,9.49612269 7.80600344,9.23065592 C7.97709166,8.96607612 8.17383506,8.69940309 8.39311741,8.43133753 C8.61150428,8.16459354 8.85200028,7.89697147 9.11328905,7.62989044 C9.37368236,7.36314645 9.65444757,7.09684595 9.9541609,6.83186701 L10.7592767,6.14474003 L11.5506023,5.5213854 L12.3009154,4.97247321 L13.051139,4.46090199 L13.7884678,3.99151453 L14.5046635,3.56871014 L15.2138746,3.17630184 C15.2138746,3.17630184 13.7766476,4.24801414 13.0674365,5.12126055 C12.669938,5.6113585 12.3464052,6.04022081 12.1624759,6.45796066 C11.9772035,6.87790017 11.9613537,7.23451082 12.0926294,7.52020024 C12.2248006,7.80753941 12.50553,8.02263579 12.9122518,8.15732935 C13.3212123,8.291473 13.8575084,8.34444218 14.4972311,8.30656017 C15.1391926,8.26789763 15.8841329,8.13794043 16.7067998,7.90776576 C17.5321532,7.67758221 18.3549993,7.36876977 19.1344151,7.00862902 C19.913831,6.6481601 20.6482048,6.23724983 21.298494,5.80233846 C21.9465446,5.36818987 22.5098839,4.91135288 22.9479471,4.4574872 C23.3847567,4.00571474 23.6978125,3.55835933 23.8498631,3.14149757 C24.0002123,2.72629442 23.9780046,2.38047806 23.8086715,2.11064746 C23.6403234,1.84268834 23.3286108,1.64819602 22.8984277,1.53508216 C22.4713788,1.42230535 21.9430523,1.44863029 21.3171198,1.56427197 C20.7051566,1.67704878 19.990304,1.72781831 19.1989784,1.9562368 C18.6873972,2.10293092 18.396549,2.21350807 17.9058323,2.43201037 C19.403593,1.67704878 20.2953006,1.31999465 21.9055322,0.827364439 C22.9461562,0.50896752 23.6597551,0.324051691 24.616026,0.157529613 C25.7287352,-0.0360855966 26.6673654,-0.022317424 27.5126877,0.0460754361 C28.3632038,0.114909469 29.0839664,0.288701949 29.6445298,0.563265363 C30.2112718,0.840252837 30.6162027,1.22010536 30.8284287,1.69720049 C31.0432517,2.17904085 31.0617879,2.76032703 30.8531437,3.43489467 Z" id="Path" fill="#ED1C24" fill-rule="nonzero"></path>
                <path d="M51.9874142,41.0280255 C51.9874142,41.0280255 51.6156733,42.0461527 51.2798755,42.6467731 C50.9679798,43.2049524 50.3562294,43.9953152 50.3562294,43.9953152 C50.3562294,43.9953152 50.1520729,44.2668096 50.0180953,44.4374027 C49.6437486,44.9197219 49.0213051,45.6453642 49.0213051,45.6453642 L48.1872469,46.5562377 C47.3270402,47.455143 46.343549,48.3214579 45.2610346,49.1372301 C44.1745665,49.9544753 42.9917711,50.7197968 41.7367302,51.4097186 C40.4804312,52.0995483 39.1553014,52.7144385 37.7866805,53.2316497 C36.4216538,53.7482164 35.0170899,54.1671041 33.6010242,54.4671381 C33.3228251,54.5266109 33.0473217,54.5811124 32.7736155,54.6292614 C32.500718,54.6784232 32.2314148,54.7222453 31.9639986,54.7601753 C31.6977506,54.799026 31.4350969,54.832537 31.1746896,54.8606163 C30.9160795,54.8897083 30.6596259,54.9129082 30.4068565,54.9306764 L28.860677,54.9976984 L28.5208356,55 L26.8679951,54.9530478 L25.1870292,54.8003149 C25.1870292,54.8003149 24.8999343,54.7632134 24.7167146,54.737896 C24.0175327,54.6382836 23.6240464,54.5720902 22.9337604,54.4283795 C22.2306248,54.2818148 21.1450552,53.9916316 21.1450552,53.9916316 L20.2453112,53.6870864 L20,53.5674042 C20.6352931,53.8180003 21.4644091,54.0532219 22.2874147,54.1796247 C23.1152727,54.3063957 23.9998308,54.3779288 24.9340801,54.391278 C25.8747094,54.4037986 26.8656588,54.357767 27.9015371,54.2475673 C28.9406502,54.1381962 30.0252313,53.9639205 31.1480917,53.722899 C33.7211638,53.1712562 36.2694351,52.316173 38.6893898,51.2324969 C41.1117706,50.1468874 43.3897503,48.8394056 45.4282596,47.3859115 C47.4548177,45.9413475 49.2311225,44.3614506 50.6698324,42.7217126 C51.1680028,42.1546032 51.5765853,41.6397856 51.9949622,41.0057462 C52.0096989,40.9847558 51.9874142,41.0280255 51.9874142,41.0280255 Z" id="Path" fill="#ED1C24" fill-rule="nonzero"></path>
                <path d="M37.0711255,0.897636592 L38.8965526,1.5816223 L40.6969962,2.40595339 L41.3316666,2.73387117 C41.8344244,2.99934466 42.2744965,3.30805661 42.6440699,3.65965698 C43.0168229,4.01445373 43.3182596,4.41203758 43.5415662,4.85353232 C43.7657813,5.29801157 43.9111396,5.785499 43.9699188,6.31541429 C44.0299699,6.85104988 44.0008074,7.42923307 43.8761627,8.04893219 C43.548289,9.68606166 42.5871076,11.4535513 41.1172632,13.2472936 C39.6222536,15.0719862 37.6097687,16.9114172 35.2231679,18.6526542 C32.8149452,20.4107482 30.0440536,22.0535151 27.0730219,23.4649829 C24.0991738,24.8764507 20.9528037,26.0434471 17.8027088,26.8517503 C14.9859385,27.5741108 12.4307222,27.9432129 10.2081946,27.9936916 C8.01849976,28.0446308 6.16473694,27.7859738 4.70700267,27.2577902 C3.2753057,26.7400156 2.23112472,25.964413 1.62158308,24.9680123 C1.02457859,23.9913242 0.847414141,22.805168 1.13446942,21.4415075 L1.26230292,20.8607267 L1.78304884,18.9341556 L2.43386314,17.0709592 L3.1026201,15.49562 L3.71664967,14.2106252 L3.61483531,14.470756 C3.63681166,14.4233171 3.59016983,14.5234454 3.59016983,14.5234454 C3.00932736,15.8065058 2.8918143,16.9256949 3.18963518,17.8501543 C3.49598677,18.8045508 4.2450269,19.5507689 5.37935724,20.0538052 C6.53252965,20.5649476 8.08084936,20.8227756 9.96017706,20.789246 C11.8641884,20.7566375 14.0996166,20.4241048 16.5845158,19.7583946 C19.0881299,19.0868812 21.5909264,18.1463939 23.9591756,17.024073 C26.3266073,15.9012915 28.5405042,14.6056114 30.4782205,13.2263836 C32.4001291,11.8559988 34.0363179,10.4124752 35.2715904,8.98267667 C36.4902376,7.57311564 37.3106941,6.18353421 37.6321175,4.89677079 C37.7981893,4.2324607 37.822446,3.6288908 37.7179697,3.0877652 C37.6146745,2.55247043 37.3855536,2.07985947 37.0441434,1.6718667 C36.7060038,1.26662815 36.2574827,0.925777518 35.712571,0.64921347 C35.3450872,0.462884614 34.9356312,0.306076557 34.4839304,0.180031921 L33.8130112,0 C34.1036369,0.0424333848 34.2668924,0.0733165544 34.4839304,0.127760726 C34.4839304,0.127760726 35.1405863,0.288577599 35.5555841,0.407873939 C36.1534607,0.578644686 37.0711255,0.897636592 37.0711255,0.897636592 Z" id="Path" fill="#ED1C24" fill-rule="nonzero"></path>
                <path d="M49.1035393,9.36529695 L50.448834,11.047752 L51.6699546,12.8537076 L52.2163568,13.7755345 C52.3786206,14.0628809 52.5178324,14.3630064 52.6298503,14.6773713 C52.7445695,14.9925578 52.8334454,15.3219838 52.8943169,15.6647366 C52.9575295,16.008676 52.9917472,16.3673113 52.9987708,16.739182 C53.0055243,17.1128784 52.9845435,17.4988974 52.9334871,17.8996123 C52.6694707,19.9668085 51.6402392,22.1839761 49.9846443,24.419856 C48.2948316,26.7021055 45.9671296,28.9862719 43.1673137,31.1295948 C40.334901,33.2971979 37.0491042,35.300225 33.5001014,36.9901649 C29.9483973,38.6813828 26.1754489,40.0383368 22.3872826,40.9238347 C19.688769,41.5561245 17.1844858,41.8979645 14.9242286,41.9811197 C12.6920658,42.0608063 10.707531,41.8868284 9.00794831,41.4861135 C7.3350464,41.0920619 5.94443127,40.4811314 4.86680877,39.6797015 C3.8078439,38.8938803 3.05341631,37.9256837 2.63108021,36.8041382 L2.20383657,35.5799039 L1.61923668,33.4858717 L1.20845444,31.3739488 L1.12354239,30.78027 L1.00573185,29.5915432 C0.990616648,29.4781746 1.01017655,29.5915432 1.01017655,29.5915432 C1.16088558,30.7249549 1.63524694,31.7162452 2.42390122,32.5414989 C3.30681617,33.4667944 4.57339224,34.1818743 6.18273033,34.6515962 C7.82051411,35.1306285 9.80814655,35.3541709 12.0941571,35.2856203 C14.4143853,35.2168872 17.0310466,34.8503106 19.8829993,34.1512958 C23.4528929,33.2768427 27.0152225,31.9761165 30.3752177,30.3787335 C33.7330517,28.7817156 36.8520824,26.9067531 39.5511363,24.8891214 C42.2202946,22.8928491 44.4533578,20.7760884 46.0915738,18.6708289 C47.6973731,16.6054583 48.7190407,14.5652807 49.0198861,12.67261 C49.1047999,12.1413661 49.130193,11.636593 49.0999374,11.1589299 C49.0706723,10.6842789 48.9857584,10.2366466 48.8501484,9.81612408 C48.7154388,9.39770101 48.5295829,9.00625089 48.297533,8.64197454 C48.1543591,8.41790278 47.9938962,8.21025212 47.8151539,8.00612482 L47.8151539,8 L48.9333514,9.17059878 L49.1035393,9.36529695 Z" id="Path" fill="#ED1C24" fill-rule="nonzero"></path>
                <path d="M54.8649363,24.6777445 C55.0282513,26.362815 55.0810118,27.3461335 54.8072323,29.016774 C54.384339,31.5981317 53.7024068,33.1196014 52.23401,35.222332 C50.7390082,37.363663 48.6639101,39.4830784 46.1593574,41.4507076 C43.628739,43.4388996 40.6812494,45.253029 37.487574,46.7622331 C34.2925503,48.271347 30.8827993,49.4600234 27.4419492,50.1979407 C25.6583374,50.5806079 23.9628995,50.8213194 22.3715445,50.9306271 C20.7916944,51.040025 19.3189833,51.0181996 17.9677023,50.8781378 C16.6293642,50.7390681 15.4130855,50.4831148 14.3315394,50.122724 C13.2616779,49.7647683 12.3267287,49.3032769 11.5363992,48.7504251 L9.87808243,47.4775132 L8.49444401,46.2473504 C8.49444401,46.2473504 7.55057863,45.3396995 7.00387338,44.7083843 C6.6111534,44.2578958 6.04358662,43.5142065 6.04358662,43.5142065 C5.94551673,43.4047184 6.04358662,43.5142065 6.04358662,43.5142065 C6.68260034,44.23589 7.4684897,44.8593588 8.45539942,45.3711751 C9.60915647,45.9726381 10.9891996,46.4187976 12.5734539,46.6965763 C14.1781113,46.974355 15.9876091,47.0771692 17.9751625,46.9831032 C19.9836582,46.8868728 22.1674233,46.5915976 24.4930216,46.0754523 C28.2285936,45.2477079 31.9406166,43.9428695 35.4268569,42.2972111 C38.9098615,40.6532663 42.1292431,38.6882526 44.8951717,36.5478234 C47.6304507,34.4310235 49.8970866,32.1641509 51.5323937,29.8871773 C53.1347142,27.6545761 54.1190982,25.4297311 54.347937,23.3407992 C54.3723848,23.1159608 54.3879343,22.8946397 54.3945855,22.6772869 C54.4016862,22.4598439 54.3688794,22.2253554 54.3457798,22.0276635 C54.3214219,21.8071542 54.6254017,22.977342 54.6254017,22.977342 C54.6254017,22.977342 54.8006709,24.0117971 54.8649363,24.6777445 Z" id="Path" fill="#ED1C24" fill-rule="nonzero"></path>
            </g>
        </g>
    </g>
</svg>