<svg width="18" height="24" viewBox="0 0 18 24" fill="none" xmlns="http://www.w3.org/2000/svg">
<path fill-rule="evenodd" clip-rule="evenodd" d="M15.49 5.61111H13.7649V5.14646C13.7649 2.58029 11.7217 0.5 9.2013 0.5C6.68087 0.5 4.63767 2.58029 4.63767 5.14646V5.61111H2.92174C1.53551 5.61111 0.411743 6.75527 0.411743 8.16667V20.9444C0.411743 22.3558 1.53551 23.5 2.92174 23.5H15.49C16.8741 23.4949 17.995 22.3537 18 20.9444V8.16667C18 7.48889 17.7355 6.83888 17.2648 6.35962C16.7941 5.88036 16.1557 5.61111 15.49 5.61111ZM6.00672 5.14646C6.00672 3.98445 6.6156 2.9107 7.60399 2.3297C8.59239 1.74869 9.81014 1.74869 10.7985 2.3297C11.7869 2.9107 12.3958 3.98445 12.3958 5.14646V5.61111H6.00672V5.14646ZM15.4899 22.1061C16.12 22.1061 16.6308 21.586 16.6308 20.9445V8.16668C16.6308 7.52514 16.12 7.00506 15.4899 7.00506H13.7649V9.32829C13.7649 9.71322 13.4584 10.0253 13.0803 10.0253C12.7023 10.0253 12.3958 9.71322 12.3958 9.32829V7.00506H6.0067V9.32829C6.0067 9.71322 5.70022 10.0253 5.32216 10.0253C4.9441 10.0253 4.63761 9.71322 4.63761 9.32829V7.00506H2.92169C2.29158 7.00506 1.78078 7.52514 1.78078 8.16668V20.9445C1.78078 21.586 2.29158 22.1061 2.92169 22.1061H15.4899Z" fill="white"/>
</svg>
