<svg width="20" height="25" viewBox="0 0 20 25" fill="none" xmlns="http://www.w3.org/2000/svg">
<path fill-rule="evenodd" clip-rule="evenodd" d="M17.2717 5.55556H15.3967V5.0505C15.3967 2.26119 13.1758 0 10.4362 0C7.6966 0 5.47572 2.26119 5.47572 5.0505V5.55556H3.61058C2.10381 5.55556 0.882324 6.79921 0.882324 8.33333V22.2222C0.882324 23.7563 2.10381 25 3.61058 25H17.2717C18.7762 24.9945 19.9945 23.754 20 22.2222V8.33333C20 7.59662 19.7125 6.89008 19.2009 6.36915C18.6892 5.84821 17.9953 5.55556 17.2717 5.55556ZM6.96382 5.05052C6.96382 3.78746 7.62565 2.62035 8.69999 1.98882C9.77433 1.35729 11.098 1.35729 12.1723 1.98882C13.2467 2.62035 13.9085 3.78746 13.9085 5.05052V5.55557H6.96382V5.05052ZM17.2717 23.4849C17.9566 23.4849 18.5118 22.9196 18.5118 22.2222V8.33336C18.5118 7.63603 17.9566 7.07073 17.2717 7.07073H15.3966V9.59598C15.3966 10.0144 15.0635 10.3536 14.6525 10.3536C14.2416 10.3536 13.9085 10.0144 13.9085 9.59598V7.07073H6.96382V9.59598C6.96382 10.0144 6.63069 10.3536 6.21975 10.3536C5.80881 10.3536 5.47568 10.0144 5.47568 9.59598V7.07073H3.61054C2.92564 7.07073 2.37042 7.63603 2.37042 8.33336V22.2222C2.37042 22.9196 2.92564 23.4849 3.61054 23.4849H17.2717Z" fill="black"/>
</svg>
