<svg width="32" height="21" viewBox="0 0 32 21" fill="none" xmlns="http://www.w3.org/2000/svg">
<path d="M1.094 0.5L1.05963 10.594C1.05963 10.594 8.05095 19.6151 9.36635 20.0582C10.6817 20.5032 21.2152 20.7568 22.3141 20.1028C23.414 19.4479 30.9051 10.6953 30.9051 10.6953L30.9404 0.600327L1.094 0.5Z" stroke="#020203" stroke-width="0.8" stroke-linecap="round" stroke-linejoin="round"/>
<path d="M1.05963 10.5959C1.05963 10.5959 5.89113 9.29631 8.51357 12.5978C11.136 15.8975 9.36635 20.061 9.36635 20.061" stroke="#020203" stroke-width="0.8" stroke-linecap="round" stroke-linejoin="round"/>
<path d="M30.9055 10.6992C30.9055 10.6992 26.1492 9.32716 23.5054 12.6101C20.8598 15.893 22.3145 20.1058 22.3145 20.1058" stroke="#020203" stroke-width="0.8" stroke-linecap="round" stroke-linejoin="round"/>
<path d="M6.02569 5.98547L1.26294 5.96875" stroke="#020203" stroke-width="0.8" stroke-linecap="round" stroke-linejoin="round"/>
<path d="M1.2718 3.35522L6.03549 3.37102" stroke="#020203" stroke-width="0.8" stroke-linecap="round" stroke-linejoin="round"/>
<path d="M25.827 3.43677L30.548 3.45349" stroke="#020203" stroke-width="0.8" stroke-linecap="round" stroke-linejoin="round"/>
<path d="M30.5391 6.06726L25.8173 6.05054" stroke="#020203" stroke-width="0.8" stroke-linecap="round" stroke-linejoin="round"/>
</svg>
