<svg width="27" height="27" viewBox="0 0 27 27" fill="none" xmlns="http://www.w3.org/2000/svg">
<path d="M0.639374 17.2087C2.33118 19.2464 7.22602 25.1278 7.80912 25.3227C8.94178 25.7005 17.9999 25.889 18.9425 25.3227C19.8866 24.7564 26.3023 17.2087 26.3023 17.2087V1.31958H0.639374V17.2087Z" stroke="#020203" stroke-width="0.8" stroke-linecap="round" stroke-linejoin="round"/>
<path d="M26.3607 17.1751C26.3607 17.1751 22.2095 16.0433 19.9449 18.8741C17.6804 21.7042 18.9425 25.3226 18.9425 25.3226" stroke="#020203" stroke-width="0.8" stroke-linecap="round" stroke-linejoin="round"/>
<path d="M0.639374 5.52644C0.639374 5.52644 4.3728 5.23888 4.3728 1.79297" stroke="#020203" stroke-width="0.8" stroke-linecap="round" stroke-linejoin="round"/>
<path d="M22.882 1.79297C22.882 1.79297 23.1456 5.21252 26.3023 5.21252" stroke="#020203" stroke-width="0.8" stroke-linecap="round" stroke-linejoin="round"/>
<path d="M8.0935 25.1062C8.0935 25.1062 9.13751 21.419 6.70764 18.7288C4.27777 16.0385 0.639374 17.2103 0.639374 17.2103" stroke="#020203" stroke-width="0.8" stroke-linecap="round" stroke-linejoin="round"/>
</svg>
