<?xml version="1.0" encoding="UTF-8"?>
<svg width="162px" height="54px" viewBox="0 -15 162 54" version="1.1" xmlns="http://www.w3.org/2000/svg" xmlns:xlink="http://www.w3.org/1999/xlink">
    <title>Group 21 Copy 2</title>
    <defs>
        <polygon id="path-1" points="0.255964653 0.310195242 76.8254667 0.310195242 76.8254667 28 0.255964653 28"></polygon>
        <polygon id="path-3" points="0 0.124177778 15.6839069 0.124177778 15.6839069 21.6564741 0 21.6564741"></polygon>
    </defs>
    <g id="Desktop" stroke="none" stroke-width="1" fill="none" fill-rule="evenodd">
        <g id="Trialpack-page-Header-1" transform="translate(-875.000000, -324.000000)">
            <g id="Group-21-Copy-2" transform="translate(875.000000, 324.000000)">
                <path d="M104.05022,1.90010585 L105.046597,1.90010585 C106.026199,1.88760436 107.004963,1.93511001 107.978694,2.04178939 C111.11208,2.25514814 113.672633,4.61126211 114.128047,7.69912992 C114.491205,9.72687145 114.544043,11.7962846 114.284884,13.8390279 C113.952759,17.2102628 111.171628,19.8239075 107.764825,19.9630907 C106.970576,20.0405999 106.172972,20.0789378 105.374528,20.0765524 L103.381776,20.0765524 L101.658246,20.0765524 L101.658246,1.88677092 L103.196423,1.88677092 L104.120671,1.88677092 M109.059779,0.329918816 C107.025091,0.0832227643 104.976146,-0.0251234745 102.925523,0.00488009935 L99.8936196,0.00488009935 L97.0470695,0.00488009935 L96.6344288,0.00488009935 L96.6344288,0.429097296 C96.5849454,0.802475103 96.6872669,1.17835321 96.9187483,1.47588865 C97.2466802,1.81509572 97.8572543,1.94344434 99.3107226,1.95677926 L99.3107226,19.9630907 L97.5167419,19.9630907 C97.2450028,19.9322537 96.9724251,20.0139301 96.76275,20.1897844 C96.5681714,20.416478 96.4742369,20.7131801 96.5061076,21.0098821 C96.5061076,21.406596 96.5061076,22 97.0328116,22 L99.3107226,22 L102.270497,22 C104.135768,22 105.744395,21.9291582 107.338765,21.7883081 C112.676257,21.2782474 115.522807,18.8879626 116.276799,14.2349084 C116.604731,11.9379681 116.571183,9.60435685 116.176993,7.31741778 C115.797062,3.57947255 112.82219,0.623287093 109.059779,0.245742122" id="Fill-4" fill="#000000"></path>
                <path d="M136.400244,11.4822858 C136.400244,11.798902 136.30389,12.1431206 136.24964,12.5019523 L136.24964,12.5847596 C136.137901,13.5898131 135.950051,14.5843127 135.686089,15.5609519 C134.752504,18.5509453 132.567122,19.996826 128.980149,19.996826 L128.841691,19.996826 C125.905717,20.1997851 123.240183,18.2789802 122.493639,15.4229397 C121.628069,12.5709584 121.628069,9.5249482 122.493639,6.67377875 C123.441798,3.51817064 125.640945,1.97486964 129.214153,1.97486964 L130.092678,1.97486964 C133.143629,2.18188792 135.32982,4.40063682 135.961387,7.92725416 C136.085271,8.63030448 136.153286,9.30494054 136.22211,10.1322018 C136.22211,10.5040229 136.30389,10.9448501 136.345994,11.4270809 M130.024663,0.0183439045 C125.502486,-0.201663761 122.369755,1.56164491 120.982738,5.07527287 C120.508254,6.39694253 120.148747,7.75676851 119.910695,9.14013775 C119.786811,9.70517588 119.663736,10.3392201 119.511512,10.9448501 C119.46455,11.134008 119.564953,11.3288487 119.745516,11.3994785 L119.828105,12.0749263 C119.828105,12.72196 119.95118,13.4526127 120.046724,14.0590545 C120.359269,17.6676673 122.900919,20.6909461 126.396395,21.6099449 C127.333219,21.8583669 128.299191,21.9874488 129.268403,21.9955672 C133.111241,22.1189663 136.564614,19.6550429 137.706291,15.9741766 C138.76457,12.7146534 138.76457,9.20264915 137.706291,5.94393782 C136.673923,2.52448289 133.584916,0.142554874 130.024663,0.0183439045" id="Fill-6" fill="#000000"></path>
                <path d="M159.432054,11.3850855 C159.432054,11.7570356 159.321091,12.1574099 159.264794,12.514742 C159.157095,13.525017 158.971884,14.5247346 158.711611,15.5065855 C157.824723,18.483811 155.580986,19.9854176 152.050568,19.9854176 C148.603372,19.9854176 146.401247,18.4553868 145.487434,15.4651675 C144.698454,12.8363408 144.641341,10.0450904 145.320989,7.38783956 C145.79503,4.02404584 148.848144,1.62910917 152.244753,1.95720494 L152.744087,1.95720494 C156.135801,2.08145903 158.449706,4.28636003 159.099981,7.98068586 C159.210128,8.65636823 159.27948,9.3588505 159.348832,10.1165568 L159.348832,10.1993929 C159.348832,10.543731 159.348832,10.9441053 159.473665,11.3850855 M160.734238,5.98125078 C159.709462,2.53056041 156.578837,0.120193498 152.965197,0 L152.313289,0 C148.160336,0 145.196156,1.77772681 143.894789,5.1269024 C143.434618,6.43278851 143.086227,7.77440783 142.856958,9.13876646 L142.856958,9.26220843 C142.745995,9.7998307 142.635032,10.365065 142.510199,10.9026873 C142.467772,11.0837896 142.560785,11.2689526 142.732125,11.3436675 L142.732125,11.9909257 C142.732125,12.611384 142.843088,13.3690903 142.94018,14.0033547 C143.224931,17.6180929 145.773816,20.6586636 149.295259,21.5844784 C150.269449,21.8549137 151.274643,21.993786 152.286364,21.9978465 C156.399338,22.0888038 160.008899,19.2894322 160.926791,15.2994954 C161.763909,12.2369975 161.683134,8.99827001 160.690995,5.98125078" id="Fill-8" fill="#000000"></path>
                <g id="Group-12" transform="translate(0.500000, 0.000000)">
                    <mask id="mask-4" fill="white">
                        <use xlink:href="#path-3"></use>
                    </mask>
                    <g id="Clip-11"></g>
                    <path d="M15.5052,16.4424741 C15.2788,16.2509926 14.9828,16.165437 14.6908,16.2078074 C14.4732,16.2078074 13.794,16.2078074 13.794,16.7741037 L13.794,19.7058074 L4.8876,19.7058074 L4.8876,1.97788148 L6.9244,1.97788148 C7.1708,1.9844 7.4012,1.85158519 7.522,1.63158519 C7.6148,1.44825185 7.6612,1.24373333 7.6572,1.03677037 C7.6572,0.677437037 7.522,0.124177778 7.1284,0.124177778 L0.2172,0.124177778 L0.2172,0.345807407 C0.0556,0.798844444 0.0852,1.29914074 0.2988,1.72854815 C0.4436,1.92084444 0.6716,2.02921481 0.9092,2.01943704 L1.7652,2.01943704 L2.7564,2.01943704 L2.7564,19.7196593 L0.5836,19.7196593 C0.3124,19.7196593 -0.0004,19.8858815 -0.0004,20.6607704 C-0.0004,20.9092889 -0.0004,21.6564741 0.4884,21.6564741 L15.6812,21.6564741 L15.6812,20.0521037 L15.6812,17.0095852 C15.6988,16.8018074 15.63,16.5964741 15.4916,16.4424741" id="Fill-10" fill="#000000" mask="url(#mask-4)"></path>
                </g>
                <path d="M27.7280211,1.94017062 L28.7825929,1.94017062 C29.2605882,1.94017062 29.5,1.57232227 29.5,0.836625592 C29.5,0.0291943128 28.9656726,0 28.9093404,0 L22.2869939,0 C22.0815471,0 21.8843844,0.0817440758 21.7385834,0.22771564 C21.5786994,0.431241706 21.5024852,0.689819905 21.5281661,0.949232227 C21.4867454,1.44053081 21.8479341,1.87177251 22.3358704,1.91264455 C22.3897173,1.91764929 22.4443927,1.91681517 22.4982396,1.91181043 L23.9040592,1.91181043 L24.4375582,1.91181043 L24.4375582,20.14491 L22.1039143,20.14491 C21.5,20.14491 21.5,20.8105403 21.5,21.0941422 C21.5,21.8865592 21.9357461,21.9858199 22.31516,22 L25.8582893,22 L29.3591695,22 L29.3591695,20.5844929 C29.3591695,20.1032038 28.8389251,20.1032038 28.3327638,20.1032038 L26.6452832,20.1032038 L26.6452832,1.94017062 L27.7280211,1.94017062 Z" id="Fill-13" fill="#000000"></path>
                <path d="M51.3730675,16.6866982 C51.1390384,16.4952129 50.8387283,16.4086282 50.5400547,16.4469253 C50.304389,16.4469253 49.6096661,16.4469253 49.6096661,17.025544 L49.6096661,20.0210407 L40.4440702,20.0210407 L40.4440702,1.90736045 L42.5274206,1.90736045 C42.7794519,1.91402081 43.0151177,1.77831599 43.1378602,1.55352886 C43.2401457,1.36870388 43.2884244,1.15807001 43.2769684,0.94577105 C43.2769684,0.564465468 43.1378602,0 42.7491754,0 L35.6669299,0 L35.6669299,0.225619678 C35.4991817,0.687682119 35.5294582,1.2005298 35.7495765,1.63844844 C35.895231,1.83909177 36.1300785,1.95065279 36.3747453,1.93483444 L37.2355798,1.93483444 L38.2494333,1.93483444 L38.2494333,20.0210407 L36.0973471,20.0210407 C35.8330415,20.0210407 35.5,20.1908798 35.5,20.9826301 C35.5,21.2373888 35.5,22 35.9999714,22 L51.4843541,22 L51.4843541,20.3748723 L51.4843541,17.2661495 C51.5252683,17.0655061 51.4851724,16.8573699 51.3730675,16.6866982" id="Fill-15" fill="#000000"></path>
                <path d="M72.3137047,16.6866982 C72.0795425,16.4952129 71.7801085,16.4086282 71.4823063,16.4469253 C71.2473281,16.4469253 70.554632,16.4469253 70.554632,17.025544 L70.554632,20.0210407 L61.4843113,20.0210407 L61.4843113,1.90736045 L63.5615837,1.90736045 C63.8128798,1.91069063 64.0454103,1.77498581 64.1710583,1.55352886 C64.2665182,1.36620624 64.3130243,1.15723746 64.3097607,0.94577105 C64.3097607,0.564465468 64.1571881,0 63.7696373,0 L56.7211079,0 L56.6525726,0.225619678 C56.4869457,0.687682119 56.5171338,1.19969726 56.7349782,1.63844844 C56.8818395,1.83659413 57.1151859,1.94815516 57.3583231,1.93483444 L58.2166461,1.93483444 L59.2275418,1.93483444 L59.2275418,20.0210407 L57.0817342,20.0210407 C56.8181996,20.0210407 56.5,20.1908798 56.5,20.9826301 C56.5,21.2373888 56.5,22 56.9846425,22 L72.493202,22 L72.493202,21.5762346 L72.493202,20.6437843 L72.493202,20.3748723 L72.493202,17.2661495 C72.5225742,17.0555156 72.4556707,16.8423841 72.3137047,16.6866982" id="Fill-17" fill="#000000"></path>
                <path d="M91.7586683,1.06705407 L89.3469703,1.06705407 L86.4530989,1.06705407 C85.6633322,1.06705407 85.6633322,1.73120865 85.6633322,2.00181972 C85.6417175,2.22932459 85.6965855,2.45682947 85.8196229,2.65240384 C85.9235395,2.80966159 86.1056015,2.90146181 86.2993022,2.89667223 L88.0484276,2.89667223 L85.4388722,6.96062776 L85.0431575,7.51542035 C84.1818962,8.87087045 83.2940322,10.2255223 82.4053368,11.6480265 C81.6280401,10.3883679 80.7967068,8.93872279 79.9919761,7.65192328 L79.9919761,7.52978908 C78.8912908,5.70096918 77.8471361,3.95277381 77.1704307,2.88310176 L78.4822748,2.88310176 C79.2870054,2.88310176 79.2870054,2.16466531 79.2870054,1.92039692 C79.2870054,1.67692679 79.2870054,1 78.7075661,1 L73.1351387,1 C72.5,1 72.5,1.44622886 72.5,1.85334285 C72.5,2.25965858 72.5,2.86873304 73.3047307,2.86873304 L73.8825074,2.86873304 C74.0471114,2.84957473 74.2125467,2.84957473 74.3763194,2.86873304 C74.9349754,3.37562987 75.410498,3.96075644 75.787092,4.60335793 L76.9019101,6.37869423 L80.9239008,12.7727786 L81.0219981,12.934826 C81.1882648,13.1479621 81.3029888,13.3930288 81.3603508,13.6532624 L81.3603508,18.6384131 L81.3603508,20.1838498 L79.4840314,20.1838498 C78.7507954,20.1838498 78.4964074,20.4408904 78.4964074,21.1321859 C78.4964074,21.8226831 79.0326174,21.9990992 79.1024494,21.9990992 L85.6358982,21.9990992 C85.8512135,22.0086784 86.0623722,21.9416243 86.2286389,21.8091127 C86.3807729,21.6318984 86.4481109,21.4004022 86.4123635,21.1728973 L86.4123635,21.19924 C86.4123635,20.400179 85.9177202,20.3458971 85.7622609,20.3458971 L83.4627928,20.2780448 L83.4627928,18.8012587 L83.4627928,13.8288802 C83.5292995,13.5087769 83.6631442,13.2046388 83.8585075,12.934826 C84.6898408,11.5801741 85.5935002,10.2255223 86.3832669,9.04728652 C87.3284929,7.69263467 88.4865402,5.89015744 89.4866343,4.22338488 C90.1924363,3.0451491 90.3611969,2.86873304 90.4742583,2.86873304 L90.6862483,2.86873304 L91.4768463,2.86873304 L91.9290916,2.86873304 C92.0754063,2.87272435 92.2183956,2.81844248 92.323975,2.72025617 C92.5076996,2.54384011 92.4927356,2.28600125 92.4927356,1.97467879 L92.4927356,1.82620192 C92.5476036,1.46299238 92.2857336,1.12612551 91.907477,1.07423843 C91.8717296,1.06944886 91.837645,1.06705407 91.8018976,1.06705407" id="Fill-19" fill="#000000"></path>
            </g>
        </g>
    </g>
</svg>
