<svg width="38" height="16" viewBox="0 0 38 16" fill="none" xmlns="http://www.w3.org/2000/svg">
<path d="M1.89072 3.76123L4.51081 10.4219L7.1309 3.76123H8.89868L5.25265 11.6531H3.75322L0.0282593 3.76123H1.89072Z" fill="#fff"/>
<path d="M11.3133 3.76123V11.6531H9.81384V3.76123H11.3133Z" fill="#fff"/>
<path d="M13.9964 3.76123L16.6165 10.4219L19.2366 3.76123H21.0044L17.3583 11.6531H15.8589L12.134 3.76123H13.9964Z" fill="#fff"/>
<path d="M28.9243 7.65944C28.9243 10.027 27.3775 11.8106 25.01 11.8106C22.4215 11.8106 20.9536 10.027 20.9536 7.65944C20.9536 5.37085 22.4214 3.60303 24.9152 3.60303C27.3776 3.60307 28.9243 5.37085 28.9243 7.65944ZM22.4688 7.65944C22.453 9.55348 23.3211 10.8635 25.0573 10.9582C26.5252 10.9582 27.4091 9.60089 27.4091 7.65944C27.4091 5.79699 26.5252 4.45534 24.931 4.45534C23.3843 4.45534 22.4688 5.79699 22.4688 7.65944Z" fill="#fff"/>
<path d="M10.2814 0.209961L11.3133 2.26183H9.81384L8.78192 0.209961H10.2814Z" fill="#fff"/>
<path d="M37.7308 3.76123H35.963L33.3429 10.4219L30.7228 3.76123H28.8604L32.5847 11.6519L30.9434 15.2099H32.4429L34.0837 11.6531H34.0847L37.7308 3.76123Z" fill="#fff"/>
</svg>
